<?xml version="1.0" standalone="no"?>
 <!DOCTYPE svg PUBLIC "-//W3C//DTD SVG 1.1//EN" 
 "http://www.w3.org/Graphics/SVG/1.1/DTD/svg11.dtd"> 
<svg xmlns="http://www.w3.org/2000/svg" version="1.1" 
    width="29.7002cm" height="21.0007cm" viewBox="0 0 116930 82680 ">
<title>SVG Picture created as HU_CDC_InterfaceAdapter-HU_CDC_InterfaceAdapter.svg date 2020/08/25 10:30:52 </title>
  <desc>Picture generated by Eeschema-SVG </desc>
<g style="fill:#000000; fill-opacity:1;stroke:#000000; stroke-opacity:1;
stroke-linecap:round; stroke-linejoin:round; "
 transform="translate(0 0) scale(1 1)">
</g>
<g style="fill:#000000; fill-opacity:0.0; 
stroke:#000000; stroke-width:-10; stroke-opacity:1; 
stroke-linecap:round; stroke-linejoin:round;">
</g>
<g style="fill:#840000; fill-opacity:0.0; 
stroke:#840000; stroke-width:-10; stroke-opacity:1; 
stroke-linecap:round; stroke-linejoin:round;">
</g>
<g style="fill:#840000; fill-opacity:0.0; 
stroke:#840000; stroke-width:100; stroke-opacity:1; 
stroke-linecap:round; stroke-linejoin:round;">
</g>
<g style="fill:#840000; fill-opacity:0.0; 
stroke:#840000; stroke-width:60; stroke-opacity:1; 
stroke-linecap:round; stroke-linejoin:round;">
<rect x="69690" y="65360" width="42520" height="12600" rx="0" />
</g>
<g style="fill:#840000; fill-opacity:0.0; 
stroke:#840000; stroke-width:100; stroke-opacity:1; 
stroke-linecap:round; stroke-linejoin:round;">
</g>
<g style="fill:#840000; fill-opacity:0.0; 
stroke:#840000; stroke-width:60; stroke-opacity:1; 
stroke-linecap:round; stroke-linejoin:round;">
<rect x="3940" y="3940" width="109050" height="74800" rx="0" />
</g>
<g style="fill:#840000; fill-opacity:0.0; 
stroke:#840000; stroke-width:100; stroke-opacity:1; 
stroke-linecap:round; stroke-linejoin:round;">
</g>
<g style="fill:#840000; fill-opacity:0.0; 
stroke:#840000; stroke-width:60; stroke-opacity:1; 
stroke-linecap:round; stroke-linejoin:round;">
<rect x="4720" y="4720" width="107490" height="73240" rx="0" />
</g>
<g style="fill:#840000; fill-opacity:0.0; 
stroke:#840000; stroke-width:100; stroke-opacity:1; 
stroke-linecap:round; stroke-linejoin:round;">
</g>
<g style="fill:#840000; fill-opacity:0.0; 
stroke:#840000; stroke-width:60; stroke-opacity:1; 
stroke-linecap:round; stroke-linejoin:round;">
<path d="M23620 4720
L23620 3940
" />
</g>
<g style="fill:#840000; fill-opacity:0.0; 
stroke:#840000; stroke-width:100; stroke-opacity:1; 
stroke-linecap:round; stroke-linejoin:round;">
</g>
<g style="fill:#840000; fill-opacity:0.0; 
stroke:#840000; stroke-width:60; stroke-opacity:1; 
stroke-linecap:round; stroke-linejoin:round;">
<path d="M43310 4720
L43310 3940
" />
</g>
<g style="fill:#840000; fill-opacity:0.0; 
stroke:#840000; stroke-width:100; stroke-opacity:1; 
stroke-linecap:round; stroke-linejoin:round;">
</g>
<g style="fill:#840000; fill-opacity:0.0; 
stroke:#840000; stroke-width:60; stroke-opacity:1; 
stroke-linecap:round; stroke-linejoin:round;">
<path d="M62990 4720
L62990 3940
" />
</g>
<g style="fill:#840000; fill-opacity:0.0; 
stroke:#840000; stroke-width:100; stroke-opacity:1; 
stroke-linecap:round; stroke-linejoin:round;">
</g>
<g style="fill:#840000; fill-opacity:0.0; 
stroke:#840000; stroke-width:60; stroke-opacity:1; 
stroke-linecap:round; stroke-linejoin:round;">
<path d="M82680 4720
L82680 3940
" />
</g>
<g style="fill:#840000; fill-opacity:0.0; 
stroke:#840000; stroke-width:100; stroke-opacity:1; 
stroke-linecap:round; stroke-linejoin:round;">
</g>
<g style="fill:#840000; fill-opacity:0.0; 
stroke:#840000; stroke-width:60; stroke-opacity:1; 
stroke-linecap:round; stroke-linejoin:round;">
<path d="M102360 4720
L102360 3940
" />
</g>
<g style="fill:#840000; fill-opacity:0.0; 
stroke:#840000; stroke-width:100; stroke-opacity:1; 
stroke-linecap:round; stroke-linejoin:round;">
</g>
<g style="fill:#840000; fill-opacity:0.0; 
stroke:#840000; stroke-width:60; stroke-opacity:1; 
stroke-linecap:round; stroke-linejoin:round;">
<path d="M14190 4560
L13900 4560
" />
<path d="M14050 4560
L14050 4050
L14000 4120
L13950 4170
L13900 4190
" />
</g>
<g style="fill:#840000; fill-opacity:0.0; 
stroke:#840000; stroke-width:100; stroke-opacity:1; 
stroke-linecap:round; stroke-linejoin:round;">
</g>
<g style="fill:#840000; fill-opacity:0.0; 
stroke:#840000; stroke-width:60; stroke-opacity:1; 
stroke-linecap:round; stroke-linejoin:round;">
<path d="M33580 4090
L33610 4070
L33660 4050
L33780 4050
L33830 4070
L33850 4090
L33870 4140
L33870 4190
L33850 4260
L33560 4560
L33870 4560
" />
</g>
<g style="fill:#840000; fill-opacity:0.0; 
stroke:#840000; stroke-width:100; stroke-opacity:1; 
stroke-linecap:round; stroke-linejoin:round;">
</g>
<g style="fill:#840000; fill-opacity:0.0; 
stroke:#840000; stroke-width:60; stroke-opacity:1; 
stroke-linecap:round; stroke-linejoin:round;">
<path d="M53250 4050
L53560 4050
L53390 4240
L53470 4240
L53520 4260
L53540 4290
L53560 4340
L53560 4460
L53540 4510
L53520 4530
L53470 4560
L53320 4560
L53270 4530
L53250 4510
" />
</g>
<g style="fill:#840000; fill-opacity:0.0; 
stroke:#840000; stroke-width:100; stroke-opacity:1; 
stroke-linecap:round; stroke-linejoin:round;">
</g>
<g style="fill:#840000; fill-opacity:0.0; 
stroke:#840000; stroke-width:60; stroke-opacity:1; 
stroke-linecap:round; stroke-linejoin:round;">
<path d="M73200 4220
L73200 4560
" />
<path d="M73070 4020
L72950 4390
L73270 4390
" />
</g>
<g style="fill:#840000; fill-opacity:0.0; 
stroke:#840000; stroke-width:100; stroke-opacity:1; 
stroke-linecap:round; stroke-linejoin:round;">
</g>
<g style="fill:#840000; fill-opacity:0.0; 
stroke:#840000; stroke-width:60; stroke-opacity:1; 
stroke-linecap:round; stroke-linejoin:round;">
<path d="M92910 4050
L92670 4050
L92640 4290
L92670 4260
L92720 4240
L92840 4240
L92890 4260
L92910 4290
L92930 4340
L92930 4460
L92910 4510
L92890 4530
L92840 4560
L92720 4560
L92670 4530
L92640 4510
" />
</g>
<g style="fill:#840000; fill-opacity:0.0; 
stroke:#840000; stroke-width:100; stroke-opacity:1; 
stroke-linecap:round; stroke-linejoin:round;">
</g>
<g style="fill:#840000; fill-opacity:0.0; 
stroke:#840000; stroke-width:60; stroke-opacity:1; 
stroke-linecap:round; stroke-linejoin:round;">
<path d="M112570 4050
L112470 4050
L112420 4070
L112400 4090
L112350 4170
L112320 4260
L112320 4460
L112350 4510
L112370 4530
L112420 4560
L112520 4560
L112570 4530
L112590 4510
L112610 4460
L112610 4340
L112590 4290
L112570 4260
L112520 4240
L112420 4240
L112370 4260
L112350 4290
L112320 4340
" />
</g>
<g style="fill:#840000; fill-opacity:0.0; 
stroke:#840000; stroke-width:100; stroke-opacity:1; 
stroke-linecap:round; stroke-linejoin:round;">
</g>
<g style="fill:#840000; fill-opacity:0.0; 
stroke:#840000; stroke-width:60; stroke-opacity:1; 
stroke-linecap:round; stroke-linejoin:round;">
<path d="M23620 77960
L23620 78740
" />
</g>
<g style="fill:#840000; fill-opacity:0.0; 
stroke:#840000; stroke-width:100; stroke-opacity:1; 
stroke-linecap:round; stroke-linejoin:round;">
</g>
<g style="fill:#840000; fill-opacity:0.0; 
stroke:#840000; stroke-width:60; stroke-opacity:1; 
stroke-linecap:round; stroke-linejoin:round;">
<path d="M43310 77960
L43310 78740
" />
</g>
<g style="fill:#840000; fill-opacity:0.0; 
stroke:#840000; stroke-width:100; stroke-opacity:1; 
stroke-linecap:round; stroke-linejoin:round;">
</g>
<g style="fill:#840000; fill-opacity:0.0; 
stroke:#840000; stroke-width:60; stroke-opacity:1; 
stroke-linecap:round; stroke-linejoin:round;">
<path d="M62990 77960
L62990 78740
" />
</g>
<g style="fill:#840000; fill-opacity:0.0; 
stroke:#840000; stroke-width:100; stroke-opacity:1; 
stroke-linecap:round; stroke-linejoin:round;">
</g>
<g style="fill:#840000; fill-opacity:0.0; 
stroke:#840000; stroke-width:60; stroke-opacity:1; 
stroke-linecap:round; stroke-linejoin:round;">
<path d="M82680 77960
L82680 78740
" />
</g>
<g style="fill:#840000; fill-opacity:0.0; 
stroke:#840000; stroke-width:100; stroke-opacity:1; 
stroke-linecap:round; stroke-linejoin:round;">
</g>
<g style="fill:#840000; fill-opacity:0.0; 
stroke:#840000; stroke-width:60; stroke-opacity:1; 
stroke-linecap:round; stroke-linejoin:round;">
<path d="M102360 77960
L102360 78740
" />
</g>
<g style="fill:#840000; fill-opacity:0.0; 
stroke:#840000; stroke-width:100; stroke-opacity:1; 
stroke-linecap:round; stroke-linejoin:round;">
</g>
<g style="fill:#840000; fill-opacity:0.0; 
stroke:#840000; stroke-width:60; stroke-opacity:1; 
stroke-linecap:round; stroke-linejoin:round;">
<path d="M14190 78580
L13900 78580
" />
<path d="M14050 78580
L14050 78070
L14000 78140
L13950 78190
L13900 78210
" />
</g>
<g style="fill:#840000; fill-opacity:0.0; 
stroke:#840000; stroke-width:100; stroke-opacity:1; 
stroke-linecap:round; stroke-linejoin:round;">
</g>
<g style="fill:#840000; fill-opacity:0.0; 
stroke:#840000; stroke-width:60; stroke-opacity:1; 
stroke-linecap:round; stroke-linejoin:round;">
<path d="M33580 78110
L33610 78090
L33660 78070
L33780 78070
L33830 78090
L33850 78110
L33870 78160
L33870 78210
L33850 78280
L33560 78580
L33870 78580
" />
</g>
<g style="fill:#840000; fill-opacity:0.0; 
stroke:#840000; stroke-width:100; stroke-opacity:1; 
stroke-linecap:round; stroke-linejoin:round;">
</g>
<g style="fill:#840000; fill-opacity:0.0; 
stroke:#840000; stroke-width:60; stroke-opacity:1; 
stroke-linecap:round; stroke-linejoin:round;">
<path d="M53250 78070
L53560 78070
L53390 78260
L53470 78260
L53520 78280
L53540 78310
L53560 78360
L53560 78480
L53540 78530
L53520 78550
L53470 78580
L53320 78580
L53270 78550
L53250 78530
" />
</g>
<g style="fill:#840000; fill-opacity:0.0; 
stroke:#840000; stroke-width:100; stroke-opacity:1; 
stroke-linecap:round; stroke-linejoin:round;">
</g>
<g style="fill:#840000; fill-opacity:0.0; 
stroke:#840000; stroke-width:60; stroke-opacity:1; 
stroke-linecap:round; stroke-linejoin:round;">
<path d="M73200 78240
L73200 78580
" />
<path d="M73070 78040
L72950 78410
L73270 78410
" />
</g>
<g style="fill:#840000; fill-opacity:0.0; 
stroke:#840000; stroke-width:100; stroke-opacity:1; 
stroke-linecap:round; stroke-linejoin:round;">
</g>
<g style="fill:#840000; fill-opacity:0.0; 
stroke:#840000; stroke-width:60; stroke-opacity:1; 
stroke-linecap:round; stroke-linejoin:round;">
<path d="M92910 78070
L92670 78070
L92640 78310
L92670 78280
L92720 78260
L92840 78260
L92890 78280
L92910 78310
L92930 78360
L92930 78480
L92910 78530
L92890 78550
L92840 78580
L92720 78580
L92670 78550
L92640 78530
" />
</g>
<g style="fill:#840000; fill-opacity:0.0; 
stroke:#840000; stroke-width:100; stroke-opacity:1; 
stroke-linecap:round; stroke-linejoin:round;">
</g>
<g style="fill:#840000; fill-opacity:0.0; 
stroke:#840000; stroke-width:60; stroke-opacity:1; 
stroke-linecap:round; stroke-linejoin:round;">
<path d="M112570 78070
L112470 78070
L112420 78090
L112400 78110
L112350 78190
L112320 78280
L112320 78480
L112350 78530
L112370 78550
L112420 78580
L112520 78580
L112570 78550
L112590 78530
L112610 78480
L112610 78360
L112590 78310
L112570 78280
L112520 78260
L112420 78260
L112370 78280
L112350 78310
L112320 78360
" />
</g>
<g style="fill:#840000; fill-opacity:0.0; 
stroke:#840000; stroke-width:100; stroke-opacity:1; 
stroke-linecap:round; stroke-linejoin:round;">
</g>
<g style="fill:#840000; fill-opacity:0.0; 
stroke:#840000; stroke-width:60; stroke-opacity:1; 
stroke-linecap:round; stroke-linejoin:round;">
<path d="M3940 23620
L4720 23620
" />
</g>
<g style="fill:#840000; fill-opacity:0.0; 
stroke:#840000; stroke-width:100; stroke-opacity:1; 
stroke-linecap:round; stroke-linejoin:round;">
</g>
<g style="fill:#840000; fill-opacity:0.0; 
stroke:#840000; stroke-width:60; stroke-opacity:1; 
stroke-linecap:round; stroke-linejoin:round;">
<path d="M3940 43310
L4720 43310
" />
</g>
<g style="fill:#840000; fill-opacity:0.0; 
stroke:#840000; stroke-width:100; stroke-opacity:1; 
stroke-linecap:round; stroke-linejoin:round;">
</g>
<g style="fill:#840000; fill-opacity:0.0; 
stroke:#840000; stroke-width:60; stroke-opacity:1; 
stroke-linecap:round; stroke-linejoin:round;">
<path d="M3940 62990
L4720 62990
" />
</g>
<g style="fill:#840000; fill-opacity:0.0; 
stroke:#840000; stroke-width:100; stroke-opacity:1; 
stroke-linecap:round; stroke-linejoin:round;">
</g>
<g style="fill:#840000; fill-opacity:0.0; 
stroke:#840000; stroke-width:60; stroke-opacity:1; 
stroke-linecap:round; stroke-linejoin:round;">
<path d="M4200 13860
L4450 13860
" />
<path d="M4160 14010
L4330 13500
L4500 14010
" />
</g>
<g style="fill:#840000; fill-opacity:0.0; 
stroke:#840000; stroke-width:100; stroke-opacity:1; 
stroke-linecap:round; stroke-linejoin:round;">
</g>
<g style="fill:#840000; fill-opacity:0.0; 
stroke:#840000; stroke-width:60; stroke-opacity:1; 
stroke-linecap:round; stroke-linejoin:round;">
<path d="M4360 33420
L4430 33440
L4460 33470
L4480 33520
L4480 33590
L4460 33640
L4430 33660
L4390 33690
L4190 33690
L4190 33180
L4360 33180
L4410 33200
L4430 33220
L4460 33270
L4460 33320
L4430 33370
L4410 33390
L4360 33420
L4190 33420
" />
</g>
<g style="fill:#840000; fill-opacity:0.0; 
stroke:#840000; stroke-width:100; stroke-opacity:1; 
stroke-linecap:round; stroke-linejoin:round;">
</g>
<g style="fill:#840000; fill-opacity:0.0; 
stroke:#840000; stroke-width:60; stroke-opacity:1; 
stroke-linecap:round; stroke-linejoin:round;">
<path d="M4480 53330
L4460 53350
L4390 53380
L4340 53380
L4260 53350
L4220 53300
L4190 53250
L4170 53160
L4170 53080
L4190 52990
L4220 52940
L4260 52890
L4340 52870
L4390 52870
L4460 52890
L4480 52910
" />
</g>
<g style="fill:#840000; fill-opacity:0.0; 
stroke:#840000; stroke-width:100; stroke-opacity:1; 
stroke-linecap:round; stroke-linejoin:round;">
</g>
<g style="fill:#840000; fill-opacity:0.0; 
stroke:#840000; stroke-width:60; stroke-opacity:1; 
stroke-linecap:round; stroke-linejoin:round;">
<path d="M4190 73060
L4190 72550
L4310 72550
L4390 72570
L4430 72620
L4460 72670
L4480 72760
L4480 72840
L4460 72930
L4430 72980
L4390 73030
L4310 73060
L4190 73060
" />
</g>
<g style="fill:#840000; fill-opacity:0.0; 
stroke:#840000; stroke-width:100; stroke-opacity:1; 
stroke-linecap:round; stroke-linejoin:round;">
</g>
<g style="fill:#840000; fill-opacity:0.0; 
stroke:#840000; stroke-width:60; stroke-opacity:1; 
stroke-linecap:round; stroke-linejoin:round;">
<path d="M112990 23620
L112210 23620
" />
</g>
<g style="fill:#840000; fill-opacity:0.0; 
stroke:#840000; stroke-width:100; stroke-opacity:1; 
stroke-linecap:round; stroke-linejoin:round;">
</g>
<g style="fill:#840000; fill-opacity:0.0; 
stroke:#840000; stroke-width:60; stroke-opacity:1; 
stroke-linecap:round; stroke-linejoin:round;">
<path d="M112990 43310
L112210 43310
" />
</g>
<g style="fill:#840000; fill-opacity:0.0; 
stroke:#840000; stroke-width:100; stroke-opacity:1; 
stroke-linecap:round; stroke-linejoin:round;">
</g>
<g style="fill:#840000; fill-opacity:0.0; 
stroke:#840000; stroke-width:60; stroke-opacity:1; 
stroke-linecap:round; stroke-linejoin:round;">
<path d="M112990 62990
L112210 62990
" />
</g>
<g style="fill:#840000; fill-opacity:0.0; 
stroke:#840000; stroke-width:100; stroke-opacity:1; 
stroke-linecap:round; stroke-linejoin:round;">
</g>
<g style="fill:#840000; fill-opacity:0.0; 
stroke:#840000; stroke-width:60; stroke-opacity:1; 
stroke-linecap:round; stroke-linejoin:round;">
<path d="M112470 13860
L112720 13860
" />
<path d="M112430 14010
L112600 13500
L112770 14010
" />
</g>
<g style="fill:#840000; fill-opacity:0.0; 
stroke:#840000; stroke-width:100; stroke-opacity:1; 
stroke-linecap:round; stroke-linejoin:round;">
</g>
<g style="fill:#840000; fill-opacity:0.0; 
stroke:#840000; stroke-width:60; stroke-opacity:1; 
stroke-linecap:round; stroke-linejoin:round;">
<path d="M112630 33420
L112700 33440
L112730 33470
L112750 33520
L112750 33590
L112730 33640
L112700 33660
L112660 33690
L112460 33690
L112460 33180
L112630 33180
L112680 33200
L112700 33220
L112730 33270
L112730 33320
L112700 33370
L112680 33390
L112630 33420
L112460 33420
" />
</g>
<g style="fill:#840000; fill-opacity:0.0; 
stroke:#840000; stroke-width:100; stroke-opacity:1; 
stroke-linecap:round; stroke-linejoin:round;">
</g>
<g style="fill:#840000; fill-opacity:0.0; 
stroke:#840000; stroke-width:60; stroke-opacity:1; 
stroke-linecap:round; stroke-linejoin:round;">
<path d="M112750 53330
L112730 53350
L112660 53380
L112610 53380
L112530 53350
L112490 53300
L112460 53250
L112440 53160
L112440 53080
L112460 52990
L112490 52940
L112530 52890
L112610 52870
L112660 52870
L112730 52890
L112750 52910
" />
</g>
<g style="fill:#840000; fill-opacity:0.0; 
stroke:#840000; stroke-width:100; stroke-opacity:1; 
stroke-linecap:round; stroke-linejoin:round;">
</g>
<g style="fill:#840000; fill-opacity:0.0; 
stroke:#840000; stroke-width:60; stroke-opacity:1; 
stroke-linecap:round; stroke-linejoin:round;">
<path d="M112460 73060
L112460 72550
L112580 72550
L112660 72570
L112700 72620
L112730 72670
L112750 72760
L112750 72840
L112730 72930
L112700 72980
L112660 73030
L112580 73060
L112460 73060
" />
</g>
<g style="fill:#840000; fill-opacity:0.0; 
stroke:#840000; stroke-width:100; stroke-opacity:1; 
stroke-linecap:round; stroke-linejoin:round;">
</g>
<g style="fill:#840000; fill-opacity:0.0; 
stroke:#840000; stroke-width:60; stroke-opacity:1; 
stroke-linecap:round; stroke-linejoin:round;">
<path d="M78910 76290
L78910 75700
L79050 75700
L79130 75730
L79190 75790
L79210 75840
L79240 75950
L79240 76040
L79210 76150
L79190 76210
L79130 76260
L79050 76290
L78910 76290
" />
<path d="M79750 76290
L79750 75980
L79720 75930
L79660 75900
L79550 75900
L79500 75930
" />
<path d="M79750 76260
L79690 76290
L79550 76290
L79500 76260
L79470 76210
L79470 76150
L79500 76100
L79550 76070
L79690 76070
L79750 76040
" />
<path d="M79950 75900
L80170 75900
" />
<path d="M80030 75700
L80030 76210
L80060 76260
L80110 76290
L80170 76290
" />
<path d="M80590 76260
L80540 76290
L80420 76290
L80370 76260
L80340 76210
L80340 75980
L80370 75930
L80420 75900
L80540 75900
L80590 75930
L80620 75980
L80620 76040
L80340 76100
" />
<path d="M80870 76240
L80900 76260
L80870 76290
L80840 76260
L80870 76240
L80870 76290
" />
<path d="M80870 75930
L80900 75950
L80870 75980
L80840 75950
L80870 75930
L80870 75980
" />
</g>
<g style="fill:#840000; fill-opacity:0.0; 
stroke:#840000; stroke-width:100; stroke-opacity:1; 
stroke-linecap:round; stroke-linejoin:round;">
</g>
<g style="fill:#840000; fill-opacity:0.0; 
stroke:#840000; stroke-width:60; stroke-opacity:1; 
stroke-linecap:round; stroke-linejoin:round;">
<path d="M69690 76580
L112210 76580
" />
</g>
<g style="fill:#840000; fill-opacity:0.0; 
stroke:#840000; stroke-width:100; stroke-opacity:1; 
stroke-linecap:round; stroke-linejoin:round;">
</g>
<g style="fill:#840000; fill-opacity:0.0; 
stroke:#840000; stroke-width:60; stroke-opacity:1; 
stroke-linecap:round; stroke-linejoin:round;">
<path d="M70250 77390
L70250 76800
" />
<path d="M70580 77390
L70330 77050
" />
<path d="M70580 76800
L70250 77140
" />
<path d="M70840 77390
L70840 77000
" />
<path d="M70840 76800
L70810 76830
L70840 76860
L70860 76830
L70840 76800
L70840 76860
" />
<path d="M71450 77340
L71430 77360
L71340 77390
L71290 77390
L71200 77360
L71140 77310
L71120 77250
L71090 77140
L71090 77050
L71120 76940
L71140 76890
L71200 76830
L71290 76800
L71340 76800
L71430 76830
L71450 76860
" />
<path d="M71960 77390
L71960 77080
L71930 77030
L71880 77000
L71760 77000
L71710 77030
" />
<path d="M71960 77360
L71900 77390
L71760 77390
L71710 77360
L71680 77310
L71680 77250
L71710 77200
L71760 77170
L71900 77170
L71960 77140
" />
<path d="M72490 77390
L72490 76800
" />
<path d="M72490 77360
L72440 77390
L72320 77390
L72270 77360
L72240 77340
L72210 77280
L72210 77110
L72240 77050
L72270 77030
L72320 77000
L72440 77000
L72490 77030
" />
<path d="M73220 77080
L73420 77080
" />
<path d="M73500 77390
L73220 77390
L73220 76800
L73500 76800
" />
<path d="M73760 77340
L73790 77360
L73760 77390
L73730 77360
L73760 77340
L73760 77390
" />
<path d="M74040 77390
L74040 76800
L74180 76800
L74260 76830
L74320 76890
L74350 76940
L74380 77050
L74380 77140
L74350 77250
L74320 77310
L74260 77360
L74180 77390
L74040 77390
" />
<path d="M74630 77340
L74660 77360
L74630 77390
L74600 77360
L74630 77340
L74630 77390
" />
<path d="M74880 77220
L75160 77220
" />
<path d="M74830 77390
L75020 76800
L75220 77390
" />
<path d="M75420 77340
L75440 77360
L75420 77390
L75390 77360
L75420 77340
L75420 77390
" />
<path d="M76600 77390
L76600 76800
" />
<path d="M76650 77170
L76820 77390
" />
<path d="M76820 77000
L76600 77220
" />
<path d="M77070 77390
L77070 77000
" />
<path d="M77070 76800
L77040 76830
L77070 76860
L77100 76830
L77070 76800
L77070 76860
" />
<path d="M77610 77360
L77550 77390
L77440 77390
L77380 77360
L77350 77340
L77330 77280
L77330 77110
L77350 77050
L77380 77030
L77440 77000
L77550 77000
L77610 77030
" />
<path d="M78110 77390
L78110 77080
L78080 77030
L78030 77000
L77920 77000
L77860 77030
" />
<path d="M78110 77360
L78060 77390
L77920 77390
L77860 77360
L77830 77310
L77830 77250
L77860 77200
L77920 77170
L78060 77170
L78110 77140
" />
<path d="M78650 77390
L78650 76800
" />
<path d="M78650 77360
L78590 77390
L78480 77390
L78420 77360
L78390 77340
L78370 77280
L78370 77110
L78390 77050
L78420 77030
L78480 77000
L78590 77000
L78650 77030
" />
<path d="M79550 77620
L79520 77590
L79460 77500
L79430 77450
L79400 77360
L79380 77220
L79380 77110
L79400 76970
L79430 76890
L79460 76830
L79520 76750
L79550 76720
" />
<path d="M80050 76800
L79770 76800
L79740 77080
L79770 77050
L79830 77030
L79970 77030
L80020 77050
L80050 77080
L80080 77140
L80080 77280
L80050 77340
L80020 77360
L79970 77390
L79830 77390
L79770 77360
L79740 77340
" />
<path d="M80330 77340
L80360 77360
L80330 77390
L80300 77360
L80330 77340
L80330 77390
" />
<path d="M80920 77390
L80580 77390
" />
<path d="M80750 77390
L80750 76800
L80700 76890
L80640 76940
L80580 76970
" />
<path d="M81170 77340
L81200 77360
L81170 77390
L81150 77360
L81170 77340
L81170 77390
" />
<path d="M81710 77000
L81710 77390
" />
<path d="M81570 76770
L81430 77200
L81790 77200
" />
<path d="M81960 77620
L81990 77590
L82050 77500
L82070 77450
L82100 77360
L82130 77220
L82130 77110
L82100 76970
L82070 76890
L82050 76830
L81990 76750
L81960 76720
" />
<path d="M82410 77170
L82860 77170
" />
<path d="M83450 77390
L83110 77390
" />
<path d="M83280 77390
L83280 76800
L83230 76890
L83170 76940
L83110 76970
" />
</g>
<g style="fill:#840000; fill-opacity:0.0; 
stroke:#840000; stroke-width:100; stroke-opacity:1; 
stroke-linecap:round; stroke-linejoin:round;">
</g>
<g style="fill:#840000; fill-opacity:0.0; 
stroke:#840000; stroke-width:60; stroke-opacity:1; 
stroke-linecap:round; stroke-linejoin:round;">
<path d="M69690 75400
L112210 75400
" />
</g>
<g style="fill:#840000; fill-opacity:0.0; 
stroke:#840000; stroke-width:100; stroke-opacity:1; 
stroke-linecap:round; stroke-linejoin:round;">
</g>
<g style="fill:#840000; fill-opacity:0.0; 
stroke:#840000; stroke-width:120; stroke-opacity:1; 
stroke-linecap:round; stroke-linejoin:round;">
<path d="M104090 76290
L103890 76010
" />
<path d="M103750 76290
L103750 75700
L103980 75700
L104030 75730
L104060 75760
L104090 75810
L104090 75900
L104060 75950
L104030 75980
L103980 76010
L103750 76010
" />
<path d="M104570 76260
L104510 76290
L104400 76290
L104340 76260
L104320 76210
L104320 75980
L104340 75930
L104400 75900
L104510 75900
L104570 75930
L104600 75980
L104600 76040
L104320 76100
" />
<path d="M104790 75900
L104930 76290
L105070 75900
" />
<path d="M105300 76240
L105330 76260
L105300 76290
L105270 76260
L105300 76240
L105300 76290
" />
<path d="M105300 75930
L105330 75950
L105300 75980
L105270 75950
L105300 75930
L105300 75980
" />
</g>
<g style="fill:#840000; fill-opacity:0.0; 
stroke:#840000; stroke-width:100; stroke-opacity:1; 
stroke-linecap:round; stroke-linejoin:round;">
</g>
<g style="fill:#840000; fill-opacity:0.0; 
stroke:#840000; stroke-width:60; stroke-opacity:1; 
stroke-linecap:round; stroke-linejoin:round;">
<path d="M70220 76260
L70300 76290
L70440 76290
L70500 76260
L70530 76240
L70550 76180
L70550 76120
L70530 76070
L70500 76040
L70440 76010
L70330 75980
L70270 75950
L70250 75930
L70220 75870
L70220 75810
L70250 75760
L70270 75730
L70330 75700
L70470 75700
L70550 75730
" />
<path d="M70810 76290
L70810 75900
" />
<path d="M70810 75700
L70780 75730
L70810 75760
L70840 75730
L70810 75700
L70810 75760
" />
<path d="M71030 75900
L71340 75900
L71030 76290
L71340 76290
" />
<path d="M71790 76260
L71730 76290
L71620 76290
L71570 76260
L71540 76210
L71540 75980
L71570 75930
L71620 75900
L71730 75900
L71790 75930
L71820 75980
L71820 76040
L71540 76100
" />
<path d="M72070 76240
L72100 76260
L72070 76290
L72040 76260
L72070 76240
L72070 76290
" />
<path d="M72070 75930
L72100 75950
L72070 75980
L72040 75950
L72070 75930
L72070 75980
" />
<path d="M72770 76120
L73060 76120
" />
<path d="M72720 76290
L72910 75700
L73110 76290
" />
<path d="M73560 75900
L73560 76290
" />
<path d="M73420 75670
L73280 76100
L73650 76100
" />
</g>
<g style="fill:#840000; fill-opacity:0.0; 
stroke:#840000; stroke-width:100; stroke-opacity:1; 
stroke-linecap:round; stroke-linejoin:round;">
</g>
<g style="fill:#840000; fill-opacity:0.0; 
stroke:#840000; stroke-width:60; stroke-opacity:1; 
stroke-linecap:round; stroke-linejoin:round;">
<path d="M103710 77390
L103710 76800
" />
<path d="M104240 77390
L104240 76800
" />
<path d="M104240 77360
L104180 77390
L104070 77390
L104010 77360
L103990 77340
L103960 77280
L103960 77110
L103990 77050
L104010 77030
L104070 77000
L104180 77000
L104240 77030
" />
<path d="M104520 77340
L104550 77360
L104520 77390
L104490 77360
L104520 77340
L104520 77390
" />
<path d="M104520 77030
L104550 77050
L104520 77080
L104490 77050
L104520 77030
L104520 77080
" />
<path d="M105190 76800
L105590 76800
L105340 77390
" />
<path d="M106230 76770
L105730 77530
" />
<path d="M106370 76800
L106770 76800
L106520 77390
" />
</g>
<g style="fill:#840000; fill-opacity:0.0; 
stroke:#840000; stroke-width:100; stroke-opacity:1; 
stroke-linecap:round; stroke-linejoin:round;">
</g>
<g style="fill:#840000; fill-opacity:0.0; 
stroke:#840000; stroke-width:60; stroke-opacity:1; 
stroke-linecap:round; stroke-linejoin:round;">
<path d="M69690 73820
L112210 73820
" />
</g>
<g style="fill:#840000; fill-opacity:0.0; 
stroke:#840000; stroke-width:100; stroke-opacity:1; 
stroke-linecap:round; stroke-linejoin:round;">
</g>
<g style="fill:#840000; fill-opacity:0.0; 
stroke:#840000; stroke-width:160; stroke-opacity:1; 
stroke-linecap:round; stroke-linejoin:round;">
<path d="M70360 74090
L70810 74090
" />
<path d="M70480 74880
L70580 74090
" />
<path d="M70970 74880
L71040 74360
" />
<path d="M71070 74090
L71030 74130
L71060 74170
L71110 74130
L71070 74090
L71060 74170
" />
<path d="M71300 74360
L71600 74360
" />
<path d="M71450 74090
L71360 74770
L71390 74840
L71460 74880
L71540 74880
" />
<path d="M71910 74880
L71840 74840
L71820 74770
L71900 74090
" />
<path d="M72520 74840
L72440 74880
L72290 74880
L72220 74840
L72190 74770
L72230 74470
L72280 74390
L72360 74360
L72510 74360
L72580 74390
L72610 74470
L72600 74540
L72210 74620
" />
<path d="M72900 74810
L72930 74840
L72890 74880
L72860 74840
L72900 74810
L72890 74880
" />
<path d="M72950 74390
L72990 74430
L72940 74470
L72910 74430
L72950 74390
L72940 74470
" />
</g>
<g style="fill:#840000; fill-opacity:0.0; 
stroke:#840000; stroke-width:100; stroke-opacity:1; 
stroke-linecap:round; stroke-linejoin:round;">
</g>
<g style="fill:#840000; fill-opacity:0.0; 
stroke:#840000; stroke-width:60; stroke-opacity:1; 
stroke-linecap:round; stroke-linejoin:round;">
<path d="M70440 73060
L70250 73060
" />
<path d="M70250 73370
L70250 72780
L70530 72780
" />
<path d="M70750 73370
L70750 72980
" />
<path d="M70750 72780
L70720 72810
L70750 72840
L70780 72810
L70750 72780
L70750 72840
" />
<path d="M71120 73370
L71060 73340
L71030 73290
L71030 72780
" />
<path d="M71570 73340
L71510 73370
L71400 73370
L71340 73340
L71310 73290
L71310 73060
L71340 73010
L71400 72980
L71510 72980
L71570 73010
L71590 73060
L71590 73120
L71310 73180
" />
<path d="M71850 73320
L71880 73340
L71850 73370
L71820 73340
L71850 73320
L71850 73370
" />
<path d="M71850 73010
L71880 73030
L71850 73060
L71820 73030
L71850 73010
L71850 73060
" />
<path d="M72580 73370
L72580 72780
" />
<path d="M72580 73060
L72910 73060
" />
<path d="M72910 73370
L72910 72780
" />
<path d="M73200 72780
L73200 73260
L73220 73320
L73250 73340
L73310 73370
L73420 73370
L73480 73340
L73500 73320
L73530 73260
L73530 72780
" />
<path d="M73670 73430
L74120 73430
" />
<path d="M74600 73320
L74570 73340
L74490 73370
L74430 73370
L74350 73340
L74290 73290
L74260 73230
L74240 73120
L74240 73030
L74260 72920
L74290 72870
L74350 72810
L74430 72780
L74490 72780
L74570 72810
L74600 72840
" />
<path d="M74850 73370
L74850 72780
L74990 72780
L75080 72810
L75130 72870
L75160 72920
L75190 73030
L75190 73120
L75160 73230
L75130 73290
L75080 73340
L74990 73370
L74850 73370
" />
<path d="M75780 73320
L75750 73340
L75670 73370
L75610 73370
L75530 73340
L75470 73290
L75440 73230
L75420 73120
L75420 73030
L75440 72920
L75470 72870
L75530 72810
L75610 72780
L75670 72780
L75750 72810
L75780 72840
" />
<path d="M75890 73430
L76340 73430
" />
<path d="M76480 73370
L76480 72780
" />
<path d="M76760 72980
L76760 73370
" />
<path d="M76760 73030
L76790 73010
L76850 72980
L76930 72980
L76990 73010
L77020 73060
L77020 73370
" />
<path d="M77210 72980
L77440 72980
" />
<path d="M77300 72780
L77300 73290
L77330 73340
L77380 73370
L77440 73370
" />
<path d="M77860 73340
L77800 73370
L77690 73370
L77630 73340
L77610 73290
L77610 73060
L77630 73010
L77690 72980
L77800 72980
L77860 73010
L77890 73060
L77890 73120
L77610 73180
" />
<path d="M78140 73370
L78140 72980
" />
<path d="M78140 73090
L78170 73030
L78200 73010
L78250 72980
L78310 72980
" />
<path d="M78420 72980
L78650 72980
" />
<path d="M78510 73370
L78510 72870
L78530 72810
L78590 72780
L78650 72780
" />
<path d="M79100 73370
L79100 73060
L79070 73010
L79010 72980
L78900 72980
L78840 73010
" />
<path d="M79100 73340
L79040 73370
L78900 73370
L78840 73340
L78810 73290
L78810 73230
L78840 73180
L78900 73150
L79040 73150
L79100 73120
" />
<path d="M79630 73340
L79570 73370
L79460 73370
L79400 73340
L79380 73320
L79350 73260
L79350 73090
L79380 73030
L79400 73010
L79460 72980
L79570 72980
L79630 73010
" />
<path d="M80110 73340
L80050 73370
L79940 73370
L79880 73340
L79850 73290
L79850 73060
L79880 73010
L79940 72980
L80050 72980
L80110 73010
L80140 73060
L80140 73120
L79850 73180
" />
<path d="M80360 73200
L80640 73200
" />
<path d="M80300 73370
L80500 72780
L80700 73370
" />
<path d="M81150 73370
L81150 72780
" />
<path d="M81150 73340
L81090 73370
L80980 73370
L80920 73340
L80890 73320
L80870 73260
L80870 73090
L80890 73030
L80920 73010
L80980 72980
L81090 72980
L81150 73010
" />
<path d="M81680 73370
L81680 73060
L81650 73010
L81600 72980
L81480 72980
L81430 73010
" />
<path d="M81680 73340
L81620 73370
L81480 73370
L81430 73340
L81400 73290
L81400 73230
L81430 73180
L81480 73150
L81620 73150
L81680 73120
" />
<path d="M81960 72980
L81960 73570
" />
<path d="M81960 73010
L82020 72980
L82130 72980
L82190 73010
L82210 73030
L82240 73090
L82240 73260
L82210 73320
L82190 73340
L82130 73370
L82020 73370
L81960 73340
" />
<path d="M82410 72980
L82640 72980
" />
<path d="M82500 72780
L82500 73290
L82520 73340
L82580 73370
L82640 73370
" />
<path d="M83060 73340
L83000 73370
L82890 73370
L82830 73340
L82800 73290
L82800 73060
L82830 73010
L82890 72980
L83000 72980
L83060 73010
L83090 73060
L83090 73120
L82800 73180
" />
<path d="M83340 73370
L83340 72980
" />
<path d="M83340 73090
L83370 73030
L83390 73010
L83450 72980
L83510 72980
" />
<path d="M83700 73320
L83730 73340
L83700 73370
L83680 73340
L83700 73320
L83700 73370
" />
<path d="M83960 73340
L84010 73370
L84120 73370
L84180 73340
L84210 73290
L84210 73260
L84180 73200
L84120 73180
L84040 73180
L83980 73150
L83960 73090
L83960 73060
L83980 73010
L84040 72980
L84120 72980
L84180 73010
" />
<path d="M84710 73340
L84660 73370
L84550 73370
L84490 73340
L84460 73320
L84430 73260
L84430 73090
L84460 73030
L84490 73010
L84550 72980
L84660 72980
L84710 73010
" />
<path d="M84970 73370
L84970 72780
" />
<path d="M85220 73370
L85220 73060
L85190 73010
L85140 72980
L85050 72980
L85000 73010
L84970 73030
" />
</g>
<g style="fill:#840000; fill-opacity:0.0; 
stroke:#840000; stroke-width:100; stroke-opacity:1; 
stroke-linecap:round; stroke-linejoin:round;">
</g>
<g style="fill:#840000; fill-opacity:0.0; 
stroke:#840000; stroke-width:60; stroke-opacity:1; 
stroke-linecap:round; stroke-linejoin:round;">
<path d="M69690 71460
L112210 71460
" />
</g>
<g style="fill:#840000; fill-opacity:0.0; 
stroke:#840000; stroke-width:100; stroke-opacity:1; 
stroke-linecap:round; stroke-linejoin:round;">
</g>
<g style="fill:#840000; fill-opacity:0.0; 
stroke:#840000; stroke-width:60; stroke-opacity:1; 
stroke-linecap:round; stroke-linejoin:round;">
<path d="M70220 72280
L70300 72310
L70440 72310
L70500 72280
L70530 72260
L70550 72200
L70550 72140
L70530 72090
L70500 72060
L70440 72030
L70330 72000
L70270 71970
L70250 71950
L70220 71890
L70220 71830
L70250 71780
L70270 71750
L70330 71720
L70470 71720
L70550 71750
" />
<path d="M70810 72310
L70810 71720
" />
<path d="M71060 72310
L71060 72000
L71030 71950
L70980 71920
L70890 71920
L70840 71950
L70810 71970
" />
<path d="M71570 72280
L71510 72310
L71400 72310
L71340 72280
L71310 72230
L71310 72000
L71340 71950
L71400 71920
L71510 71920
L71570 71950
L71590 72000
L71590 72060
L71310 72120
" />
<path d="M72070 72280
L72020 72310
L71900 72310
L71850 72280
L71820 72230
L71820 72000
L71850 71950
L71900 71920
L72020 71920
L72070 71950
L72100 72000
L72100 72060
L71820 72120
" />
<path d="M72270 71920
L72490 71920
" />
<path d="M72350 71720
L72350 72230
L72380 72280
L72440 72310
L72490 72310
" />
<path d="M72690 72260
L72720 72280
L72690 72310
L72660 72280
L72690 72260
L72690 72310
" />
<path d="M72690 71950
L72720 71970
L72690 72000
L72660 71970
L72690 71950
L72690 72000
" />
<path d="M73840 71690
L73340 72450
" />
<path d="M74040 72310
L74040 71720
" />
<path d="M74040 72000
L74380 72000
" />
<path d="M74380 72310
L74380 71720
" />
<path d="M74660 71720
L74660 72200
L74680 72260
L74710 72280
L74770 72310
L74880 72310
L74940 72280
L74970 72260
L74990 72200
L74990 71720
" />
<path d="M75130 72370
L75580 72370
" />
<path d="M76060 72260
L76030 72280
L75950 72310
L75890 72310
L75810 72280
L75750 72230
L75720 72170
L75700 72060
L75700 71970
L75720 71860
L75750 71810
L75810 71750
L75890 71720
L75950 71720
L76030 71750
L76060 71780
" />
<path d="M76310 72310
L76310 71720
L76450 71720
L76540 71750
L76600 71810
L76620 71860
L76650 71970
L76650 72060
L76620 72170
L76600 72230
L76540 72280
L76450 72310
L76310 72310
" />
<path d="M77240 72260
L77210 72280
L77130 72310
L77070 72310
L76990 72280
L76930 72230
L76900 72170
L76880 72060
L76880 71970
L76900 71860
L76930 71810
L76990 71750
L77070 71720
L77130 71720
L77210 71750
L77240 71780
" />
<path d="M77350 72370
L77800 72370
" />
<path d="M77940 72310
L77940 71720
" />
<path d="M78220 71920
L78220 72310
" />
<path d="M78220 71970
L78250 71950
L78310 71920
L78390 71920
L78450 71950
L78480 72000
L78480 72310
" />
<path d="M78670 71920
L78900 71920
" />
<path d="M78760 71720
L78760 72230
L78790 72280
L78840 72310
L78900 72310
" />
<path d="M79320 72280
L79260 72310
L79150 72310
L79100 72280
L79070 72230
L79070 72000
L79100 71950
L79150 71920
L79260 71920
L79320 71950
L79350 72000
L79350 72060
L79070 72120
" />
<path d="M79600 72310
L79600 71920
" />
<path d="M79600 72030
L79630 71970
L79660 71950
L79710 71920
L79770 71920
" />
<path d="M79880 71920
L80110 71920
" />
<path d="M79970 72310
L79970 71810
L79990 71750
L80050 71720
L80110 71720
" />
<path d="M80560 72310
L80560 72000
L80530 71950
L80470 71920
L80360 71920
L80300 71950
" />
<path d="M80560 72280
L80500 72310
L80360 72310
L80300 72280
L80280 72230
L80280 72170
L80300 72120
L80360 72090
L80500 72090
L80560 72060
" />
<path d="M81090 72280
L81030 72310
L80920 72310
L80870 72280
L80840 72260
L80810 72200
L80810 72030
L80840 71970
L80870 71950
L80920 71920
L81030 71920
L81090 71950
" />
<path d="M81570 72280
L81510 72310
L81400 72310
L81340 72280
L81320 72230
L81320 72000
L81340 71950
L81400 71920
L81510 71920
L81570 71950
L81600 72000
L81600 72060
L81320 72120
" />
<path d="M81820 72140
L82100 72140
" />
<path d="M81760 72310
L81960 71720
L82160 72310
" />
<path d="M82610 72310
L82610 71720
" />
<path d="M82610 72280
L82550 72310
L82440 72310
L82380 72280
L82350 72260
L82330 72200
L82330 72030
L82350 71970
L82380 71950
L82440 71920
L82550 71920
L82610 71950
" />
<path d="M83140 72310
L83140 72000
L83110 71950
L83060 71920
L82940 71920
L82890 71950
" />
<path d="M83140 72280
L83090 72310
L82940 72310
L82890 72280
L82860 72230
L82860 72170
L82890 72120
L82940 72090
L83090 72090
L83140 72060
" />
<path d="M83420 71920
L83420 72510
" />
<path d="M83420 71950
L83480 71920
L83590 71920
L83650 71950
L83680 71970
L83700 72030
L83700 72200
L83680 72260
L83650 72280
L83590 72310
L83480 72310
L83420 72280
" />
<path d="M83870 71920
L84100 71920
" />
<path d="M83960 71720
L83960 72230
L83980 72280
L84040 72310
L84100 72310
" />
<path d="M84520 72280
L84460 72310
L84350 72310
L84290 72280
L84270 72230
L84270 72000
L84290 71950
L84350 71920
L84460 71920
L84520 71950
L84550 72000
L84550 72060
L84270 72120
" />
<path d="M84800 72310
L84800 71920
" />
<path d="M84800 72030
L84830 71970
L84860 71950
L84910 71920
L84970 71920
" />
<path d="M85590 71690
L85080 72450
" />
</g>
<g style="fill:#840000; fill-opacity:0.0; 
stroke:#840000; stroke-width:100; stroke-opacity:1; 
stroke-linecap:round; stroke-linejoin:round;">
</g>
<g style="fill:#840000; fill-opacity:0.0; 
stroke:#840000; stroke-width:60; stroke-opacity:1; 
stroke-linecap:round; stroke-linejoin:round;">
<path d="M77560 75400
L77560 76580
" />
</g>
<g style="fill:#840000; fill-opacity:0.0; 
stroke:#840000; stroke-width:100; stroke-opacity:1; 
stroke-linecap:round; stroke-linejoin:round;">
</g>
<g style="fill:#840000; fill-opacity:0.0; 
stroke:#840000; stroke-width:60; stroke-opacity:1; 
stroke-linecap:round; stroke-linejoin:round;">
<path d="M102760 75400
L102760 77960
" />
</g>
<g style="fill:#840000; fill-opacity:0.0; 
stroke:#840000; stroke-width:0; stroke-opacity:1; 
stroke-linecap:round; stroke-linejoin:round;">
<g >
</g>
<g style="fill:#840000; fill-opacity:0.0; 
stroke:#840000; stroke-width:100; stroke-opacity:1; 
stroke-linecap:round; stroke-linejoin:round;">
<circle cx="59350" cy="38500" r="1110" /> 
</g>
<g style="fill:#840000; fill-opacity:1.0; 
stroke:#840000; stroke-width:60; stroke-opacity:1; 
stroke-linecap:round; stroke-linejoin:round;">
<circle cx="59000" cy="37800" r="110" /> 
<circle cx="59000" cy="39200" r="110" /> 
</g>
<g style="fill:#840000; fill-opacity:0.0; 
stroke:#840000; stroke-width:60; stroke-opacity:1; 
stroke-linecap:round; stroke-linejoin:round;">
<path style="fill:#840000; fill-opacity:0.0; 
stroke:#840000; stroke-width:60; stroke-opacity:1; 
stroke-linecap:round; stroke-linejoin:round;fill:none"
d="M 61000,38500
59900,38500
Z" /> 
<path style="fill:#840000; fill-opacity:0.0; 
stroke:#840000; stroke-width:60; stroke-opacity:1; 
stroke-linecap:round; stroke-linejoin:round;fill:none"
d="M 59700,37800
59000,37800
Z" /> 
</g>
<g style="fill:#840000; fill-opacity:0.0; 
stroke:#840000; stroke-width:100; stroke-opacity:1; 
stroke-linecap:round; stroke-linejoin:round;">
<path style="fill:#840000; fill-opacity:0.0; 
stroke:#840000; stroke-width:100; stroke-opacity:1; 
stroke-linecap:round; stroke-linejoin:round;fill:none"
d="M 59700,38000
59700,37600
Z" /> 
</g>
<g style="fill:#840000; fill-opacity:0.0; 
stroke:#840000; stroke-width:60; stroke-opacity:1; 
stroke-linecap:round; stroke-linejoin:round;">
<path style="fill:#840000; fill-opacity:0.0; 
stroke:#840000; stroke-width:60; stroke-opacity:1; 
stroke-linecap:round; stroke-linejoin:round;fill:none"
d="M 59700,38500
59000,38500
Z" /> 
</g>
<g style="fill:#840000; fill-opacity:0.0; 
stroke:#840000; stroke-width:100; stroke-opacity:1; 
stroke-linecap:round; stroke-linejoin:round;">
<path style="fill:#840000; fill-opacity:0.0; 
stroke:#840000; stroke-width:100; stroke-opacity:1; 
stroke-linecap:round; stroke-linejoin:round;fill:none"
d="M 59700,38700
59700,38300
Z" /> 
</g>
<g style="fill:#840000; fill-opacity:0.0; 
stroke:#840000; stroke-width:60; stroke-opacity:1; 
stroke-linecap:round; stroke-linejoin:round;">
<path style="fill:#840000; fill-opacity:0.0; 
stroke:#840000; stroke-width:60; stroke-opacity:1; 
stroke-linecap:round; stroke-linejoin:round;fill:none"
d="M 59700,39200
59000,39200
Z" /> 
</g>
<g style="fill:#840000; fill-opacity:0.0; 
stroke:#840000; stroke-width:100; stroke-opacity:1; 
stroke-linecap:round; stroke-linejoin:round;">
<path style="fill:#840000; fill-opacity:0.0; 
stroke:#840000; stroke-width:100; stroke-opacity:1; 
stroke-linecap:round; stroke-linejoin:round;fill:none"
d="M 59700,39400
59700,39000
Z" /> 
</g>
<g style="fill:#840000; fill-opacity:0.0; 
stroke:#840000; stroke-width:60; stroke-opacity:1; 
stroke-linecap:round; stroke-linejoin:round;">
<path style="fill:#840000; fill-opacity:0.0; 
stroke:#840000; stroke-width:60; stroke-opacity:1; 
stroke-linecap:round; stroke-linejoin:round;fill:none"
d="M 59000,37800
59000,37500
Z" /> 
<path style="fill:#840000; fill-opacity:0.0; 
stroke:#840000; stroke-width:60; stroke-opacity:1; 
stroke-linecap:round; stroke-linejoin:round;fill:none"
d="M 59000,37800
59000,38500
Z" /> 
<path style="fill:#840000; fill-opacity:0.0; 
stroke:#840000; stroke-width:60; stroke-opacity:1; 
stroke-linecap:round; stroke-linejoin:round;fill:none"
d="M 59000,39500
59000,39200
Z" /> 
</g>
<g style="fill:#840000; fill-opacity:0.0; 
stroke:#840000; stroke-width:100; stroke-opacity:1; 
stroke-linecap:round; stroke-linejoin:round;">
<path style="fill:#840000; fill-opacity:0.0; 
stroke:#840000; stroke-width:100; stroke-opacity:1; 
stroke-linecap:round; stroke-linejoin:round;fill:none"
d="M 59900,39250
59900,37750
59900,37750
Z" /> 
</g>
<g style="fill:#840000; fill-opacity:1.0; 
stroke:#840000; stroke-width:60; stroke-opacity:1; 
stroke-linecap:round; stroke-linejoin:round;">
<path style="fill:#840000; fill-opacity:1.0; 
stroke:#840000; stroke-width:60; stroke-opacity:1; 
stroke-linecap:round; stroke-linejoin:round;fill-rule:evenodd;"
d="M 59600,38500
59200,38650
59200,38350
59600,38500
Z" /> 
</g>
<g style="fill:#840000; fill-opacity:0.0; 
stroke:#840000; stroke-width:60; stroke-opacity:1; 
stroke-linecap:round; stroke-linejoin:round;">
<path style="fill:#840000; fill-opacity:0.0; 
stroke:#840000; stroke-width:60; stroke-opacity:1; 
stroke-linecap:round; stroke-linejoin:round;fill:none"
d="M 59000,37800
58700,37800
58700,39200
59000,39200
Z" /> 
<path style="fill:#840000; fill-opacity:0.0; 
stroke:#840000; stroke-width:60; stroke-opacity:1; 
stroke-linecap:round; stroke-linejoin:round;fill:none"
d="M 58900,38700
58850,38650
58550,38650
58500,38600
Z" /> 
<path style="fill:#840000; fill-opacity:0.0; 
stroke:#840000; stroke-width:60; stroke-opacity:1; 
stroke-linecap:round; stroke-linejoin:round;fill:none"
d="M 58700,38650
58850,38400
58550,38400
58700,38650
Z" /> 
<path d="M59000 37500
L59000 36500
" />
<path d="M59570 36850
L59570 37140
" />
<path d="M59570 37000
L59070 37000
L59140 37040
L59190 37090
L59210 37140
" />
<path d="M61000 38500
L62000 38500
" />
<path d="M61350 38620
L61380 38600
L61420 38570
L61540 38570
L61590 38600
L61610 38620
L61640 38670
L61640 38710
L61610 38790
L61330 39070
L61640 39070
" />
<path d="M59000 39500
L59000 40500
" />
<path d="M59070 40160
L59070 39850
L59260 40020
L59260 39950
L59290 39900
L59310 39880
L59360 39850
L59480 39850
L59520 39880
L59550 39900
L59570 39950
L59570 40090
L59550 40140
L59520 40160
" />
</g>
<g style="fill:#008484; fill-opacity:0.0; 
stroke:#008484; stroke-width:60; stroke-opacity:1; 
stroke-linecap:round; stroke-linejoin:round;">
<path d="M57360 38280
L57310 38260
L57260 38210
L57190 38140
L57140 38110
L57100 38110
" />
<path d="M57120 38230
L57070 38210
L57020 38160
L57000 38060
L57000 37900
L57020 37800
L57070 37760
L57120 37730
L57210 37730
L57260 37760
L57310 37800
L57330 37900
L57330 38060
L57310 38160
L57260 38210
L57210 38230
L57120 38230
" />
<path d="M57760 37900
L57760 38230
" />
<path d="M57640 37710
L57520 38060
L57830 38060
" />
<path d="M55100 38690
L55120 38670
L55170 38640
L55290 38640
L55340 38670
L55360 38690
L55380 38740
L55380 38780
L55360 38860
L55070 39140
L55380 39140
" />
<path d="M55600 39140
L55600 38640
L55880 39140
L55880 38640
" />
<path d="M56070 38640
L56410 38640
L56190 39140
" />
<path d="M56690 38640
L56740 38640
L56790 38670
L56810 38690
L56840 38740
L56860 38830
L56860 38950
L56840 39050
L56810 39090
L56790 39120
L56740 39140
L56690 39140
L56650 39120
L56620 39090
L56600 39050
L56570 38950
L56570 38830
L56600 38740
L56620 38690
L56650 38670
L56690 38640
" />
<path d="M57170 38640
L57220 38640
L57260 38670
L57290 38690
L57310 38740
L57340 38830
L57340 38950
L57310 39050
L57290 39090
L57260 39120
L57220 39140
L57170 39140
L57120 39120
L57100 39090
L57070 39050
L57050 38950
L57050 38830
L57070 38740
L57100 38690
L57120 38670
L57170 38640
" />
<path d="M57650 38640
L57690 38640
L57740 38670
L57760 38690
L57790 38740
L57810 38830
L57810 38950
L57790 39050
L57760 39090
L57740 39120
L57690 39140
L57650 39140
L57600 39120
L57570 39090
L57550 39050
L57530 38950
L57530 38830
L57550 38740
L57570 38690
L57600 38670
L57650 38640
" />
</g>
</g>
<g style="fill:#008484; fill-opacity:0.0; 
stroke:#008484; stroke-width:0; stroke-opacity:1; 
stroke-linecap:round; stroke-linejoin:round;">
<g >
</g>
<g style="fill:#840000; fill-opacity:0.0; 
stroke:#840000; stroke-width:0; stroke-opacity:1; 
stroke-linecap:round; stroke-linejoin:round;">
</g>
<g style="fill:#840000; fill-opacity:0.0; 
stroke:#840000; stroke-width:100; stroke-opacity:1; 
stroke-linecap:round; stroke-linejoin:round;">
<rect x="55100" y="32000" width="800" height="2000" rx="0" />
</g>
<g style="fill:#840000; fill-opacity:0.0; 
stroke:#840000; stroke-width:60; stroke-opacity:1; 
stroke-linecap:round; stroke-linejoin:round;">
<path d="M55500 32000
L55500 31500
" />
<path d="M55500 34000
L55500 34500
" />
</g>
<g style="fill:#008484; fill-opacity:0.0; 
stroke:#008484; stroke-width:60; stroke-opacity:1; 
stroke-linecap:round; stroke-linejoin:round;">
<path d="M53670 33310
L53430 33470
" />
<path d="M53670 33590
L53170 33590
L53170 33400
L53200 33350
L53220 33330
L53270 33310
L53340 33310
L53390 33330
L53410 33350
L53430 33400
L53430 33590
" />
<path d="M53220 33120
L53200 33090
L53170 33040
L53170 32930
L53200 32880
L53220 32850
L53270 32830
L53310 32830
L53390 32850
L53670 33140
L53670 32830
" />
<path d="M53340 32400
L53670 32400
" />
<path d="M53150 32520
L53500 32640
L53500 32330
" />
<path d="M54580 33330
L54580 33620
" />
<path d="M54580 33470
L54080 33470
L54150 33520
L54200 33570
L54220 33620
" />
<path d="M54080 33020
L54080 32970
L54110 32930
L54130 32900
L54180 32880
L54270 32850
L54390 32850
L54490 32880
L54530 32900
L54560 32930
L54580 32970
L54580 33020
L54560 33070
L54530 33090
L54490 33120
L54390 33140
L54270 33140
L54180 33120
L54130 33090
L54110 33070
L54080 33020
" />
<path d="M54580 32640
L54080 32640
" />
<path d="M54580 32350
L54300 32570
" />
<path d="M54080 32350
L54370 32640
" />
</g>
</g>
<g style="fill:#008484; fill-opacity:0.0; 
stroke:#008484; stroke-width:0; stroke-opacity:1; 
stroke-linecap:round; stroke-linejoin:round;">
<g >
</g>
<g style="fill:#840000; fill-opacity:0.0; 
stroke:#840000; stroke-width:0; stroke-opacity:1; 
stroke-linecap:round; stroke-linejoin:round;">
</g>
<g style="fill:#840000; fill-opacity:0.0; 
stroke:#840000; stroke-width:100; stroke-opacity:1; 
stroke-linecap:round; stroke-linejoin:round;">
<rect x="51500" y="42100" width="2000" height="800" rx="0" />
</g>
<g style="fill:#840000; fill-opacity:0.0; 
stroke:#840000; stroke-width:60; stroke-opacity:1; 
stroke-linecap:round; stroke-linejoin:round;">
<path d="M53500 42500
L54000 42500
" />
<path d="M51500 42500
L51000 42500
" />
</g>
<g style="fill:#008484; fill-opacity:0.0; 
stroke:#008484; stroke-width:60; stroke-opacity:1; 
stroke-linecap:round; stroke-linejoin:round;">
<path d="M52170 40670
L52010 40430
" />
<path d="M51890 40670
L51890 40170
L52080 40170
L52130 40200
L52150 40220
L52170 40270
L52170 40340
L52150 40390
L52130 40410
L52080 40430
L51890 40430
" />
<path d="M52360 40220
L52390 40200
L52440 40170
L52550 40170
L52600 40200
L52630 40220
L52650 40270
L52650 40310
L52630 40390
L52340 40670
L52650 40670
" />
<path d="M53100 40170
L52860 40170
L52840 40410
L52860 40390
L52910 40360
L53030 40360
L53080 40390
L53100 40410
L53130 40460
L53130 40580
L53100 40620
L53080 40650
L53030 40670
L52910 40670
L52860 40650
L52840 40620
" />
<path d="M52390 41580
L52100 41580
" />
<path d="M52250 41580
L52250 41080
L52200 41150
L52150 41200
L52100 41220
" />
<path d="M52600 41580
L52600 41080
" />
<path d="M52890 41580
L52670 41300
" />
<path d="M52890 41080
L52600 41370
" />
</g>
</g>
<g style="fill:#008484; fill-opacity:0.0; 
stroke:#008484; stroke-width:0; stroke-opacity:1; 
stroke-linecap:round; stroke-linejoin:round;">
<g >
</g>
<g style="fill:#840000; fill-opacity:0.0; 
stroke:#840000; stroke-width:0; stroke-opacity:1; 
stroke-linecap:round; stroke-linejoin:round;">
</g>
<g style="fill:#840000; fill-opacity:0.0; 
stroke:#840000; stroke-width:100; stroke-opacity:1; 
stroke-linecap:round; stroke-linejoin:round;">
<rect x="58600" y="45000" width="800" height="2000" rx="0" />
</g>
<g style="fill:#840000; fill-opacity:0.0; 
stroke:#840000; stroke-width:60; stroke-opacity:1; 
stroke-linecap:round; stroke-linejoin:round;">
<path d="M59000 45000
L59000 44500
" />
<path d="M59000 47000
L59000 47500
" />
</g>
<g style="fill:#008484; fill-opacity:0.0; 
stroke:#008484; stroke-width:60; stroke-opacity:1; 
stroke-linecap:round; stroke-linejoin:round;">
<path d="M60120 45780
L59960 45540
" />
<path d="M59840 45780
L59840 45280
L60030 45280
L60080 45310
L60100 45330
L60120 45380
L60120 45450
L60100 45500
L60080 45520
L60030 45540
L59840 45540
" />
<path d="M60310 45330
L60340 45310
L60390 45280
L60500 45280
L60550 45310
L60580 45330
L60600 45380
L60600 45420
L60580 45500
L60290 45780
L60600 45780
" />
<path d="M61030 45280
L60930 45280
L60890 45310
L60860 45330
L60810 45400
L60790 45500
L60790 45690
L60810 45730
L60840 45760
L60890 45780
L60980 45780
L61030 45760
L61050 45730
L61080 45690
L61080 45570
L61050 45520
L61030 45500
L60980 45470
L60890 45470
L60840 45500
L60810 45520
L60790 45570
" />
<path d="M60050 46360
L60050 46690
" />
<path d="M59930 46170
L59810 46520
L60120 46520
" />
<path d="M60270 46190
L60600 46190
L60390 46690
" />
<path d="M60790 46690
L60790 46190
" />
<path d="M61080 46690
L60860 46410
" />
<path d="M61080 46190
L60790 46480
" />
</g>
</g>
<g style="fill:#008484; fill-opacity:0.0; 
stroke:#008484; stroke-width:0; stroke-opacity:1; 
stroke-linecap:round; stroke-linejoin:round;">
<g >
</g>
<g style="fill:#840000; fill-opacity:0.0; 
stroke:#840000; stroke-width:0; stroke-opacity:1; 
stroke-linecap:round; stroke-linejoin:round;">
</g>
<g style="fill:#840000; fill-opacity:0.0; 
stroke:#840000; stroke-width:100; stroke-opacity:1; 
stroke-linecap:round; stroke-linejoin:round;">
<circle cx="58650" cy="31000" r="1110" /> 
</g>
<g style="fill:#840000; fill-opacity:1.0; 
stroke:#840000; stroke-width:60; stroke-opacity:1; 
stroke-linecap:round; stroke-linejoin:round;">
<circle cx="59000" cy="31700" r="110" /> 
<circle cx="59000" cy="30300" r="110" /> 
</g>
<g style="fill:#840000; fill-opacity:0.0; 
stroke:#840000; stroke-width:60; stroke-opacity:1; 
stroke-linecap:round; stroke-linejoin:round;">
<path style="fill:#840000; fill-opacity:0.0; 
stroke:#840000; stroke-width:60; stroke-opacity:1; 
stroke-linecap:round; stroke-linejoin:round;fill:none"
d="M 57000,31000
58100,31000
Z" /> 
<path style="fill:#840000; fill-opacity:0.0; 
stroke:#840000; stroke-width:60; stroke-opacity:1; 
stroke-linecap:round; stroke-linejoin:round;fill:none"
d="M 58300,31700
59000,31700
Z" /> 
</g>
<g style="fill:#840000; fill-opacity:0.0; 
stroke:#840000; stroke-width:100; stroke-opacity:1; 
stroke-linecap:round; stroke-linejoin:round;">
<path style="fill:#840000; fill-opacity:0.0; 
stroke:#840000; stroke-width:100; stroke-opacity:1; 
stroke-linecap:round; stroke-linejoin:round;fill:none"
d="M 58300,31500
58300,31900
Z" /> 
</g>
<g style="fill:#840000; fill-opacity:0.0; 
stroke:#840000; stroke-width:60; stroke-opacity:1; 
stroke-linecap:round; stroke-linejoin:round;">
<path style="fill:#840000; fill-opacity:0.0; 
stroke:#840000; stroke-width:60; stroke-opacity:1; 
stroke-linecap:round; stroke-linejoin:round;fill:none"
d="M 58300,31000
59000,31000
Z" /> 
</g>
<g style="fill:#840000; fill-opacity:0.0; 
stroke:#840000; stroke-width:100; stroke-opacity:1; 
stroke-linecap:round; stroke-linejoin:round;">
<path style="fill:#840000; fill-opacity:0.0; 
stroke:#840000; stroke-width:100; stroke-opacity:1; 
stroke-linecap:round; stroke-linejoin:round;fill:none"
d="M 58300,30800
58300,31200
Z" /> 
</g>
<g style="fill:#840000; fill-opacity:0.0; 
stroke:#840000; stroke-width:60; stroke-opacity:1; 
stroke-linecap:round; stroke-linejoin:round;">
<path style="fill:#840000; fill-opacity:0.0; 
stroke:#840000; stroke-width:60; stroke-opacity:1; 
stroke-linecap:round; stroke-linejoin:round;fill:none"
d="M 58300,30300
59000,30300
Z" /> 
</g>
<g style="fill:#840000; fill-opacity:0.0; 
stroke:#840000; stroke-width:100; stroke-opacity:1; 
stroke-linecap:round; stroke-linejoin:round;">
<path style="fill:#840000; fill-opacity:0.0; 
stroke:#840000; stroke-width:100; stroke-opacity:1; 
stroke-linecap:round; stroke-linejoin:round;fill:none"
d="M 58300,30100
58300,30500
Z" /> 
</g>
<g style="fill:#840000; fill-opacity:0.0; 
stroke:#840000; stroke-width:60; stroke-opacity:1; 
stroke-linecap:round; stroke-linejoin:round;">
<path style="fill:#840000; fill-opacity:0.0; 
stroke:#840000; stroke-width:60; stroke-opacity:1; 
stroke-linecap:round; stroke-linejoin:round;fill:none"
d="M 59000,31700
59000,32000
Z" /> 
<path style="fill:#840000; fill-opacity:0.0; 
stroke:#840000; stroke-width:60; stroke-opacity:1; 
stroke-linecap:round; stroke-linejoin:round;fill:none"
d="M 59000,31700
59000,31000
Z" /> 
<path style="fill:#840000; fill-opacity:0.0; 
stroke:#840000; stroke-width:60; stroke-opacity:1; 
stroke-linecap:round; stroke-linejoin:round;fill:none"
d="M 59000,30000
59000,30300
Z" /> 
</g>
<g style="fill:#840000; fill-opacity:0.0; 
stroke:#840000; stroke-width:100; stroke-opacity:1; 
stroke-linecap:round; stroke-linejoin:round;">
<path style="fill:#840000; fill-opacity:0.0; 
stroke:#840000; stroke-width:100; stroke-opacity:1; 
stroke-linecap:round; stroke-linejoin:round;fill:none"
d="M 58100,30250
58100,31750
58100,31750
Z" /> 
</g>
<g style="fill:#840000; fill-opacity:1.0; 
stroke:#840000; stroke-width:60; stroke-opacity:1; 
stroke-linecap:round; stroke-linejoin:round;">
<path style="fill:#840000; fill-opacity:1.0; 
stroke:#840000; stroke-width:60; stroke-opacity:1; 
stroke-linecap:round; stroke-linejoin:round;fill-rule:evenodd;"
d="M 58400,31000
58800,30850
58800,31150
58400,31000
Z" /> 
</g>
<g style="fill:#840000; fill-opacity:0.0; 
stroke:#840000; stroke-width:60; stroke-opacity:1; 
stroke-linecap:round; stroke-linejoin:round;">
<path style="fill:#840000; fill-opacity:0.0; 
stroke:#840000; stroke-width:60; stroke-opacity:1; 
stroke-linecap:round; stroke-linejoin:round;fill:none"
d="M 59000,31700
59300,31700
59300,30300
59000,30300
Z" /> 
<path style="fill:#840000; fill-opacity:0.0; 
stroke:#840000; stroke-width:60; stroke-opacity:1; 
stroke-linecap:round; stroke-linejoin:round;fill:none"
d="M 59100,30800
59150,30850
59450,30850
59500,30900
Z" /> 
<path style="fill:#840000; fill-opacity:0.0; 
stroke:#840000; stroke-width:60; stroke-opacity:1; 
stroke-linecap:round; stroke-linejoin:round;fill:none"
d="M 59300,30850
59150,31100
59450,31100
59300,30850
Z" /> 
<path d="M59000 32000
L59000 33000
" />
<path d="M59570 32350
L59570 32640
" />
<path d="M59570 32500
L59070 32500
L59140 32540
L59190 32590
L59210 32640
" />
<path d="M57000 31000
L56000 31000
" />
<path d="M56350 31120
L56380 31100
L56420 31070
L56540 31070
L56590 31100
L56610 31120
L56640 31170
L56640 31210
L56610 31290
L56330 31570
L56640 31570
" />
<path d="M59000 30000
L59000 29000
" />
<path d="M59070 29660
L59070 29350
L59260 29520
L59260 29450
L59290 29400
L59310 29380
L59360 29350
L59480 29350
L59520 29380
L59550 29400
L59570 29450
L59570 29590
L59550 29640
L59520 29660
" />
</g>
<g style="fill:#008484; fill-opacity:0.0; 
stroke:#008484; stroke-width:60; stroke-opacity:1; 
stroke-linecap:round; stroke-linejoin:round;">
<path d="M60530 30830
L60480 30810
L60430 30760
L60360 30690
L60310 30660
L60270 30660
" />
<path d="M60290 30780
L60240 30760
L60190 30710
L60170 30610
L60170 30450
L60190 30350
L60240 30310
L60290 30280
L60380 30280
L60430 30310
L60480 30350
L60500 30450
L60500 30610
L60480 30710
L60430 30760
L60380 30780
L60290 30780
" />
<path d="M60690 30330
L60720 30310
L60770 30280
L60880 30280
L60930 30310
L60960 30330
L60980 30380
L60980 30420
L60960 30500
L60670 30780
L60980 30780
" />
<path d="M60170 31240
L60190 31220
L60240 31190
L60360 31190
L60410 31220
L60430 31240
L60450 31290
L60450 31330
L60430 31410
L60140 31690
L60450 31690
" />
<path d="M60670 31690
L60670 31190
L60950 31690
L60950 31190
" />
<path d="M61140 31190
L61480 31190
L61260 31690
" />
<path d="M61760 31190
L61810 31190
L61860 31220
L61880 31240
L61910 31290
L61930 31380
L61930 31500
L61910 31600
L61880 31640
L61860 31670
L61810 31690
L61760 31690
L61720 31670
L61690 31640
L61670 31600
L61640 31500
L61640 31380
L61670 31290
L61690 31240
L61720 31220
L61760 31190
" />
<path d="M62240 31190
L62290 31190
L62330 31220
L62360 31240
L62380 31290
L62410 31380
L62410 31500
L62380 31600
L62360 31640
L62330 31670
L62290 31690
L62240 31690
L62190 31670
L62170 31640
L62140 31600
L62120 31500
L62120 31380
L62140 31290
L62170 31240
L62190 31220
L62240 31190
" />
<path d="M62720 31190
L62760 31190
L62810 31220
L62830 31240
L62860 31290
L62880 31380
L62880 31500
L62860 31600
L62830 31640
L62810 31670
L62760 31690
L62720 31690
L62670 31670
L62640 31640
L62620 31600
L62600 31500
L62600 31380
L62620 31290
L62640 31240
L62670 31220
L62720 31190
" />
</g>
</g>
<g style="fill:#008484; fill-opacity:0.0; 
stroke:#008484; stroke-width:0; stroke-opacity:1; 
stroke-linecap:round; stroke-linejoin:round;">
<g >
</g>
<g style="fill:#840000; fill-opacity:0.0; 
stroke:#840000; stroke-width:0; stroke-opacity:1; 
stroke-linecap:round; stroke-linejoin:round;">
</g>
<g style="fill:#840000; fill-opacity:0.0; 
stroke:#840000; stroke-width:100; stroke-opacity:1; 
stroke-linecap:round; stroke-linejoin:round;">
<rect x="60500" y="26600" width="2000" height="800" rx="0" />
</g>
<g style="fill:#840000; fill-opacity:0.0; 
stroke:#840000; stroke-width:60; stroke-opacity:1; 
stroke-linecap:round; stroke-linejoin:round;">
<path d="M62500 27000
L63000 27000
" />
<path d="M60500 27000
L60000 27000
" />
</g>
<g style="fill:#008484; fill-opacity:0.0; 
stroke:#008484; stroke-width:60; stroke-opacity:1; 
stroke-linecap:round; stroke-linejoin:round;">
<path d="M61170 25170
L61010 24930
" />
<path d="M60890 25170
L60890 24670
L61080 24670
L61130 24700
L61150 24720
L61170 24770
L61170 24840
L61150 24890
L61130 24910
L61080 24930
L60890 24930
" />
<path d="M61650 25170
L61360 25170
" />
<path d="M61510 25170
L61510 24670
L61460 24740
L61410 24790
L61360 24810
" />
<path d="M61960 24670
L62010 24670
L62050 24700
L62080 24720
L62100 24770
L62130 24860
L62130 24980
L62100 25080
L62080 25120
L62050 25150
L62010 25170
L61960 25170
L61910 25150
L61890 25120
L61860 25080
L61840 24980
L61840 24860
L61860 24770
L61890 24720
L61910 24700
L61960 24670
" />
<path d="M61110 25750
L61110 26080
" />
<path d="M61000 25560
L60880 25910
L61190 25910
" />
<path d="M61330 25580
L61660 25580
L61450 26080
" />
<path d="M61950 25580
L62000 25580
L62040 25610
L62070 25630
L62090 25680
L62110 25770
L62110 25890
L62090 25990
L62070 26030
L62040 26060
L62000 26080
L61950 26080
L61900 26060
L61880 26030
L61850 25990
L61830 25890
L61830 25770
L61850 25680
L61880 25630
L61900 25610
L61950 25580
" />
</g>
</g>
<g style="fill:#008484; fill-opacity:0.0; 
stroke:#008484; stroke-width:60; stroke-opacity:1; 
stroke-linecap:round; stroke-linejoin:round;">
</g>
<g style="fill:#008400; fill-opacity:0.0; 
stroke:#008400; stroke-width:60; stroke-opacity:1; 
stroke-linecap:round; stroke-linejoin:round;">
<path d="M54000 42500
L59000 42500
" />
<path d="M63000 27000
L64500 27000
" />
<path d="M59000 42500
L59000 40500
" />
<path d="M55500 31000
L56000 31000
" />
<path d="M47000 31000
L55500 31000
" />
<path d="M53500 35000
L55500 35000
" />
<path d="M55500 31500
L55500 31000
" />
<path d="M55500 34500
L55500 35000
" />
<path d="M55500 35000
L59000 35000
" />
<path d="M59000 33000
L59000 35000
" />
<path d="M60000 27000
L59000 27000
" />
<path d="M59000 47500
L59000 48500
" />
<path d="M59000 44500
L59000 42500
" />
<path d="M64500 38500
L62000 38500
" />
<path d="M59000 36500
L59000 35000
" />
<path d="M46500 42500
L51000 42500
" />
<path d="M59000 29000
L59000 27000
" />
</g>
<g style="fill:#848400; fill-opacity:0.0; 
stroke:#848400; stroke-width:60; stroke-opacity:1; 
stroke-linecap:round; stroke-linejoin:round;">
<path d="M58720 50430
L58720 50130
L58910 50290
L58910 50220
L58940 50170
L58960 50150
L59010 50130
L59130 50130
L59170 50150
L59200 50170
L59220 50220
L59220 50360
L59200 50410
L59170 50430
" />
<path d="M58720 49980
L59220 49820
L58720 49650
" />
<path d="M58720 49530
L58720 49220
L58910 49390
L58910 49320
L58940 49270
L58960 49240
L59010 49220
L59130 49220
L59170 49240
L59200 49270
L59220 49320
L59220 49460
L59200 49510
L59170 49530
" />
</g>
<g style="fill:#848400; fill-opacity:0.0; 
stroke:#848400; stroke-width:100; stroke-opacity:1; 
stroke-linecap:round; stroke-linejoin:round;">
<path style="fill:#848400; fill-opacity:0.0; 
stroke:#848400; stroke-width:100; stroke-opacity:1; 
stroke-linecap:round; stroke-linejoin:round;fill:none"
d="M 59000,48500
59250,48750
59250,49000
58750,49000
58750,48750
59000,48500
Z" /> 
</g>
<g style="fill:#848400; fill-opacity:0.0; 
stroke:#848400; stroke-width:60; stroke-opacity:1; 
stroke-linecap:round; stroke-linejoin:round;">
<path d="M43410 42670
L43390 42700
L43320 42720
L43270 42720
L43200 42700
L43150 42650
L43130 42600
L43100 42510
L43100 42440
L43130 42340
L43150 42290
L43200 42250
L43270 42220
L43320 42220
L43390 42250
L43410 42270
" />
<path d="M43630 42720
L43630 42220
L43750 42220
L43820 42250
L43870 42290
L43890 42340
L43910 42440
L43910 42510
L43890 42600
L43870 42650
L43820 42700
L43750 42720
L43630 42720
" />
<path d="M44410 42670
L44390 42700
L44320 42720
L44270 42720
L44200 42700
L44150 42650
L44130 42600
L44100 42510
L44100 42440
L44130 42340
L44150 42290
L44200 42250
L44270 42220
L44320 42220
L44390 42250
L44410 42270
" />
<path d="M44510 42770
L44890 42770
" />
<path d="M45290 42720
L45130 42480
" />
<path d="M45010 42720
L45010 42220
L45200 42220
L45250 42250
L45270 42270
L45290 42320
L45290 42390
L45270 42440
L45250 42460
L45200 42480
L45010 42480
" />
<path d="M45460 42220
L45790 42720
" />
<path d="M45790 42220
L45460 42720
" />
</g>
<g style="fill:#848400; fill-opacity:0.0; 
stroke:#848400; stroke-width:100; stroke-opacity:1; 
stroke-linecap:round; stroke-linejoin:round;">
<path style="fill:#848400; fill-opacity:0.0; 
stroke:#848400; stroke-width:100; stroke-opacity:1; 
stroke-linecap:round; stroke-linejoin:round;fill:none"
d="M 46000,42500
46250,42750
46500,42750
46500,42250
46250,42250
46000,42500
Z" /> 
</g>
<g style="fill:#848400; fill-opacity:0.0; 
stroke:#848400; stroke-width:60; stroke-opacity:1; 
stroke-linecap:round; stroke-linejoin:round;">
<path d="M65240 38720
L65240 38220
" />
<path d="M65240 38460
L65530 38460
" />
<path d="M65530 38720
L65530 38220
" />
<path d="M65770 38220
L65770 38630
L65790 38670
L65820 38700
L65860 38720
L65960 38720
L66010 38700
L66030 38670
L66050 38630
L66050 38220
" />
<path d="M66170 38770
L66550 38770
" />
<path d="M66600 38220
L66890 38220
" />
<path d="M66740 38720
L66740 38220
" />
<path d="M67010 38220
L67340 38720
" />
<path d="M67340 38220
L67010 38720
" />
</g>
<g style="fill:#848400; fill-opacity:0.0; 
stroke:#848400; stroke-width:100; stroke-opacity:1; 
stroke-linecap:round; stroke-linejoin:round;">
<path style="fill:#848400; fill-opacity:0.0; 
stroke:#848400; stroke-width:100; stroke-opacity:1; 
stroke-linecap:round; stroke-linejoin:round;fill:none"
d="M 64500,38500
64750,38750
65000,38750
65000,38250
64750,38250
64500,38500
Z" /> 
</g>
<g style="fill:#848400; fill-opacity:0.0; 
stroke:#848400; stroke-width:60; stroke-opacity:1; 
stroke-linecap:round; stroke-linejoin:round;">
<path d="M65240 27220
L65240 26720
" />
<path d="M65240 26960
L65530 26960
" />
<path d="M65530 27220
L65530 26720
" />
<path d="M65770 26720
L65770 27130
L65790 27170
L65820 27200
L65860 27220
L65960 27220
L66010 27200
L66030 27170
L66050 27130
L66050 26720
" />
<path d="M66170 27270
L66550 27270
" />
<path d="M66960 27220
L66790 26980
" />
<path d="M66670 27220
L66670 26720
L66860 26720
L66910 26750
L66930 26770
L66960 26820
L66960 26890
L66930 26940
L66910 26960
L66860 26980
L66670 26980
" />
<path d="M67130 26720
L67460 27220
" />
<path d="M67460 26720
L67130 27220
" />
</g>
<g style="fill:#848400; fill-opacity:0.0; 
stroke:#848400; stroke-width:100; stroke-opacity:1; 
stroke-linecap:round; stroke-linejoin:round;">
<path style="fill:#848400; fill-opacity:0.0; 
stroke:#848400; stroke-width:100; stroke-opacity:1; 
stroke-linecap:round; stroke-linejoin:round;fill:none"
d="M 65000,27000
64750,26750
64500,26750
64500,27250
64750,27250
65000,27000
Z" /> 
</g>
<g style="fill:#848400; fill-opacity:0.0; 
stroke:#848400; stroke-width:60; stroke-opacity:1; 
stroke-linecap:round; stroke-linejoin:round;">
<path d="M44030 31170
L44010 31200
L43940 31220
L43890 31220
L43820 31200
L43770 31150
L43750 31100
L43720 31010
L43720 30940
L43750 30840
L43770 30790
L43820 30750
L43890 30720
L43940 30720
L44010 30750
L44030 30770
" />
<path d="M44250 31220
L44250 30720
L44370 30720
L44440 30750
L44480 30790
L44510 30840
L44530 30940
L44530 31010
L44510 31100
L44480 31150
L44440 31200
L44370 31220
L44250 31220
" />
<path d="M45030 31170
L45010 31200
L44940 31220
L44890 31220
L44820 31200
L44770 31150
L44750 31100
L44720 31010
L44720 30940
L44750 30840
L44770 30790
L44820 30750
L44890 30720
L44940 30720
L45010 30750
L45030 30770
" />
<path d="M45130 31270
L45510 31270
" />
<path d="M45560 30720
L45840 30720
" />
<path d="M45700 31220
L45700 30720
" />
<path d="M45960 30720
L46290 31220
" />
<path d="M46290 30720
L45960 31220
" />
</g>
<g style="fill:#848400; fill-opacity:0.0; 
stroke:#848400; stroke-width:100; stroke-opacity:1; 
stroke-linecap:round; stroke-linejoin:round;">
<path style="fill:#848400; fill-opacity:0.0; 
stroke:#848400; stroke-width:100; stroke-opacity:1; 
stroke-linecap:round; stroke-linejoin:round;fill:none"
d="M 47000,31000
46750,30750
46500,30750
46500,31250
46750,31250
47000,31000
Z" /> 
</g>
<g style="fill:#848400; fill-opacity:0.0; 
stroke:#848400; stroke-width:60; stroke-opacity:1; 
stroke-linecap:round; stroke-linejoin:round;">
<path d="M51720 34750
L51670 34720
L51600 34720
L51530 34750
L51480 34790
L51460 34840
L51440 34940
L51440 35010
L51460 35100
L51480 35150
L51530 35200
L51600 35220
L51650 35220
L51720 35200
L51750 35170
L51750 35010
L51650 35010
" />
<path d="M51960 35220
L51960 34720
L52250 35220
L52250 34720
" />
<path d="M52480 35220
L52480 34720
L52600 34720
L52670 34750
L52720 34790
L52750 34840
L52770 34940
L52770 35010
L52750 35100
L52720 35150
L52670 35200
L52600 35220
L52480 35220
" />
</g>
<g style="fill:#848400; fill-opacity:0.0; 
stroke:#848400; stroke-width:100; stroke-opacity:1; 
stroke-linecap:round; stroke-linejoin:round;">
<path style="fill:#848400; fill-opacity:0.0; 
stroke:#848400; stroke-width:100; stroke-opacity:1; 
stroke-linecap:round; stroke-linejoin:round;fill:none"
d="M 53500,35000
53250,34750
53000,34750
53000,35250
53250,35250
53500,35000
Z" /> 
</g>
<g style="fill:#848400; fill-opacity:0.0; 
stroke:#848400; stroke-width:0; stroke-opacity:1; 
stroke-linecap:round; stroke-linejoin:round;">
</g>
<g style="fill:#008400; fill-opacity:0.0; 
stroke:#008400; stroke-width:0; stroke-opacity:1; 
stroke-linecap:round; stroke-linejoin:round;">
</g>
<g style="fill:#008400; fill-opacity:1.0; 
stroke:#008400; stroke-width:100; stroke-opacity:1; 
stroke-linecap:round; stroke-linejoin:round;">
<circle cx="59000" cy="42500" r="200" /> 
</g>
<g style="fill:#008400; fill-opacity:1.0; 
stroke:#008400; stroke-width:0; stroke-opacity:1; 
stroke-linecap:round; stroke-linejoin:round;">
</g>
<g style="fill:#008400; fill-opacity:1.0; 
stroke:#008400; stroke-width:100; stroke-opacity:1; 
stroke-linecap:round; stroke-linejoin:round;">
<circle cx="55500" cy="31000" r="200" /> 
</g>
<g style="fill:#008400; fill-opacity:1.0; 
stroke:#008400; stroke-width:0; stroke-opacity:1; 
stroke-linecap:round; stroke-linejoin:round;">
</g>
<g style="fill:#008400; fill-opacity:1.0; 
stroke:#008400; stroke-width:100; stroke-opacity:1; 
stroke-linecap:round; stroke-linejoin:round;">
<circle cx="55500" cy="35000" r="200" /> 
</g>
<g style="fill:#008400; fill-opacity:1.0; 
stroke:#008400; stroke-width:0; stroke-opacity:1; 
stroke-linecap:round; stroke-linejoin:round;">
</g>
<g style="fill:#008400; fill-opacity:1.0; 
stroke:#008400; stroke-width:100; stroke-opacity:1; 
stroke-linecap:round; stroke-linejoin:round;">
<circle cx="59000" cy="35000" r="200" /> 
</g> 
</svg>
