<?xml version="1.0" standalone="no"?>
 <!DOCTYPE svg PUBLIC "-//W3C//DTD SVG 1.1//EN" 
 "http://www.w3.org/Graphics/SVG/1.1/DTD/svg11.dtd"> 
<svg xmlns="http://www.w3.org/2000/svg" version="1.1" 
    width="29.7002cm" height="21.0007cm" viewBox="0 0 116930 82680 ">
<title>SVG Picture created as PowerSupply-PowerSupply.svg date 2020/08/25 10:30:52 </title>
  <desc>Picture generated by Eeschema-SVG </desc>
<g style="fill:#000000; fill-opacity:1;stroke:#000000; stroke-opacity:1;
stroke-linecap:round; stroke-linejoin:round; "
 transform="translate(0 0) scale(1 1)">
</g>
<g style="fill:#000000; fill-opacity:0.0; 
stroke:#000000; stroke-width:-10; stroke-opacity:1; 
stroke-linecap:round; stroke-linejoin:round;">
</g>
<g style="fill:#840000; fill-opacity:0.0; 
stroke:#840000; stroke-width:-10; stroke-opacity:1; 
stroke-linecap:round; stroke-linejoin:round;">
</g>
<g style="fill:#840000; fill-opacity:0.0; 
stroke:#840000; stroke-width:100; stroke-opacity:1; 
stroke-linecap:round; stroke-linejoin:round;">
</g>
<g style="fill:#840000; fill-opacity:0.0; 
stroke:#840000; stroke-width:60; stroke-opacity:1; 
stroke-linecap:round; stroke-linejoin:round;">
<rect x="69690" y="65360" width="42520" height="12600" rx="0" />
</g>
<g style="fill:#840000; fill-opacity:0.0; 
stroke:#840000; stroke-width:100; stroke-opacity:1; 
stroke-linecap:round; stroke-linejoin:round;">
</g>
<g style="fill:#840000; fill-opacity:0.0; 
stroke:#840000; stroke-width:60; stroke-opacity:1; 
stroke-linecap:round; stroke-linejoin:round;">
<rect x="3940" y="3940" width="109050" height="74800" rx="0" />
</g>
<g style="fill:#840000; fill-opacity:0.0; 
stroke:#840000; stroke-width:100; stroke-opacity:1; 
stroke-linecap:round; stroke-linejoin:round;">
</g>
<g style="fill:#840000; fill-opacity:0.0; 
stroke:#840000; stroke-width:60; stroke-opacity:1; 
stroke-linecap:round; stroke-linejoin:round;">
<rect x="4720" y="4720" width="107490" height="73240" rx="0" />
</g>
<g style="fill:#840000; fill-opacity:0.0; 
stroke:#840000; stroke-width:100; stroke-opacity:1; 
stroke-linecap:round; stroke-linejoin:round;">
</g>
<g style="fill:#840000; fill-opacity:0.0; 
stroke:#840000; stroke-width:60; stroke-opacity:1; 
stroke-linecap:round; stroke-linejoin:round;">
<path d="M23620 4720
L23620 3940
" />
</g>
<g style="fill:#840000; fill-opacity:0.0; 
stroke:#840000; stroke-width:100; stroke-opacity:1; 
stroke-linecap:round; stroke-linejoin:round;">
</g>
<g style="fill:#840000; fill-opacity:0.0; 
stroke:#840000; stroke-width:60; stroke-opacity:1; 
stroke-linecap:round; stroke-linejoin:round;">
<path d="M43310 4720
L43310 3940
" />
</g>
<g style="fill:#840000; fill-opacity:0.0; 
stroke:#840000; stroke-width:100; stroke-opacity:1; 
stroke-linecap:round; stroke-linejoin:round;">
</g>
<g style="fill:#840000; fill-opacity:0.0; 
stroke:#840000; stroke-width:60; stroke-opacity:1; 
stroke-linecap:round; stroke-linejoin:round;">
<path d="M62990 4720
L62990 3940
" />
</g>
<g style="fill:#840000; fill-opacity:0.0; 
stroke:#840000; stroke-width:100; stroke-opacity:1; 
stroke-linecap:round; stroke-linejoin:round;">
</g>
<g style="fill:#840000; fill-opacity:0.0; 
stroke:#840000; stroke-width:60; stroke-opacity:1; 
stroke-linecap:round; stroke-linejoin:round;">
<path d="M82680 4720
L82680 3940
" />
</g>
<g style="fill:#840000; fill-opacity:0.0; 
stroke:#840000; stroke-width:100; stroke-opacity:1; 
stroke-linecap:round; stroke-linejoin:round;">
</g>
<g style="fill:#840000; fill-opacity:0.0; 
stroke:#840000; stroke-width:60; stroke-opacity:1; 
stroke-linecap:round; stroke-linejoin:round;">
<path d="M102360 4720
L102360 3940
" />
</g>
<g style="fill:#840000; fill-opacity:0.0; 
stroke:#840000; stroke-width:100; stroke-opacity:1; 
stroke-linecap:round; stroke-linejoin:round;">
</g>
<g style="fill:#840000; fill-opacity:0.0; 
stroke:#840000; stroke-width:60; stroke-opacity:1; 
stroke-linecap:round; stroke-linejoin:round;">
<path d="M14190 4560
L13900 4560
" />
<path d="M14050 4560
L14050 4050
L14000 4120
L13950 4170
L13900 4190
" />
</g>
<g style="fill:#840000; fill-opacity:0.0; 
stroke:#840000; stroke-width:100; stroke-opacity:1; 
stroke-linecap:round; stroke-linejoin:round;">
</g>
<g style="fill:#840000; fill-opacity:0.0; 
stroke:#840000; stroke-width:60; stroke-opacity:1; 
stroke-linecap:round; stroke-linejoin:round;">
<path d="M33580 4090
L33610 4070
L33660 4050
L33780 4050
L33830 4070
L33850 4090
L33870 4140
L33870 4190
L33850 4260
L33560 4560
L33870 4560
" />
</g>
<g style="fill:#840000; fill-opacity:0.0; 
stroke:#840000; stroke-width:100; stroke-opacity:1; 
stroke-linecap:round; stroke-linejoin:round;">
</g>
<g style="fill:#840000; fill-opacity:0.0; 
stroke:#840000; stroke-width:60; stroke-opacity:1; 
stroke-linecap:round; stroke-linejoin:round;">
<path d="M53250 4050
L53560 4050
L53390 4240
L53470 4240
L53520 4260
L53540 4290
L53560 4340
L53560 4460
L53540 4510
L53520 4530
L53470 4560
L53320 4560
L53270 4530
L53250 4510
" />
</g>
<g style="fill:#840000; fill-opacity:0.0; 
stroke:#840000; stroke-width:100; stroke-opacity:1; 
stroke-linecap:round; stroke-linejoin:round;">
</g>
<g style="fill:#840000; fill-opacity:0.0; 
stroke:#840000; stroke-width:60; stroke-opacity:1; 
stroke-linecap:round; stroke-linejoin:round;">
<path d="M73200 4220
L73200 4560
" />
<path d="M73070 4020
L72950 4390
L73270 4390
" />
</g>
<g style="fill:#840000; fill-opacity:0.0; 
stroke:#840000; stroke-width:100; stroke-opacity:1; 
stroke-linecap:round; stroke-linejoin:round;">
</g>
<g style="fill:#840000; fill-opacity:0.0; 
stroke:#840000; stroke-width:60; stroke-opacity:1; 
stroke-linecap:round; stroke-linejoin:round;">
<path d="M92910 4050
L92670 4050
L92640 4290
L92670 4260
L92720 4240
L92840 4240
L92890 4260
L92910 4290
L92930 4340
L92930 4460
L92910 4510
L92890 4530
L92840 4560
L92720 4560
L92670 4530
L92640 4510
" />
</g>
<g style="fill:#840000; fill-opacity:0.0; 
stroke:#840000; stroke-width:100; stroke-opacity:1; 
stroke-linecap:round; stroke-linejoin:round;">
</g>
<g style="fill:#840000; fill-opacity:0.0; 
stroke:#840000; stroke-width:60; stroke-opacity:1; 
stroke-linecap:round; stroke-linejoin:round;">
<path d="M112570 4050
L112470 4050
L112420 4070
L112400 4090
L112350 4170
L112320 4260
L112320 4460
L112350 4510
L112370 4530
L112420 4560
L112520 4560
L112570 4530
L112590 4510
L112610 4460
L112610 4340
L112590 4290
L112570 4260
L112520 4240
L112420 4240
L112370 4260
L112350 4290
L112320 4340
" />
</g>
<g style="fill:#840000; fill-opacity:0.0; 
stroke:#840000; stroke-width:100; stroke-opacity:1; 
stroke-linecap:round; stroke-linejoin:round;">
</g>
<g style="fill:#840000; fill-opacity:0.0; 
stroke:#840000; stroke-width:60; stroke-opacity:1; 
stroke-linecap:round; stroke-linejoin:round;">
<path d="M23620 77960
L23620 78740
" />
</g>
<g style="fill:#840000; fill-opacity:0.0; 
stroke:#840000; stroke-width:100; stroke-opacity:1; 
stroke-linecap:round; stroke-linejoin:round;">
</g>
<g style="fill:#840000; fill-opacity:0.0; 
stroke:#840000; stroke-width:60; stroke-opacity:1; 
stroke-linecap:round; stroke-linejoin:round;">
<path d="M43310 77960
L43310 78740
" />
</g>
<g style="fill:#840000; fill-opacity:0.0; 
stroke:#840000; stroke-width:100; stroke-opacity:1; 
stroke-linecap:round; stroke-linejoin:round;">
</g>
<g style="fill:#840000; fill-opacity:0.0; 
stroke:#840000; stroke-width:60; stroke-opacity:1; 
stroke-linecap:round; stroke-linejoin:round;">
<path d="M62990 77960
L62990 78740
" />
</g>
<g style="fill:#840000; fill-opacity:0.0; 
stroke:#840000; stroke-width:100; stroke-opacity:1; 
stroke-linecap:round; stroke-linejoin:round;">
</g>
<g style="fill:#840000; fill-opacity:0.0; 
stroke:#840000; stroke-width:60; stroke-opacity:1; 
stroke-linecap:round; stroke-linejoin:round;">
<path d="M82680 77960
L82680 78740
" />
</g>
<g style="fill:#840000; fill-opacity:0.0; 
stroke:#840000; stroke-width:100; stroke-opacity:1; 
stroke-linecap:round; stroke-linejoin:round;">
</g>
<g style="fill:#840000; fill-opacity:0.0; 
stroke:#840000; stroke-width:60; stroke-opacity:1; 
stroke-linecap:round; stroke-linejoin:round;">
<path d="M102360 77960
L102360 78740
" />
</g>
<g style="fill:#840000; fill-opacity:0.0; 
stroke:#840000; stroke-width:100; stroke-opacity:1; 
stroke-linecap:round; stroke-linejoin:round;">
</g>
<g style="fill:#840000; fill-opacity:0.0; 
stroke:#840000; stroke-width:60; stroke-opacity:1; 
stroke-linecap:round; stroke-linejoin:round;">
<path d="M14190 78580
L13900 78580
" />
<path d="M14050 78580
L14050 78070
L14000 78140
L13950 78190
L13900 78210
" />
</g>
<g style="fill:#840000; fill-opacity:0.0; 
stroke:#840000; stroke-width:100; stroke-opacity:1; 
stroke-linecap:round; stroke-linejoin:round;">
</g>
<g style="fill:#840000; fill-opacity:0.0; 
stroke:#840000; stroke-width:60; stroke-opacity:1; 
stroke-linecap:round; stroke-linejoin:round;">
<path d="M33580 78110
L33610 78090
L33660 78070
L33780 78070
L33830 78090
L33850 78110
L33870 78160
L33870 78210
L33850 78280
L33560 78580
L33870 78580
" />
</g>
<g style="fill:#840000; fill-opacity:0.0; 
stroke:#840000; stroke-width:100; stroke-opacity:1; 
stroke-linecap:round; stroke-linejoin:round;">
</g>
<g style="fill:#840000; fill-opacity:0.0; 
stroke:#840000; stroke-width:60; stroke-opacity:1; 
stroke-linecap:round; stroke-linejoin:round;">
<path d="M53250 78070
L53560 78070
L53390 78260
L53470 78260
L53520 78280
L53540 78310
L53560 78360
L53560 78480
L53540 78530
L53520 78550
L53470 78580
L53320 78580
L53270 78550
L53250 78530
" />
</g>
<g style="fill:#840000; fill-opacity:0.0; 
stroke:#840000; stroke-width:100; stroke-opacity:1; 
stroke-linecap:round; stroke-linejoin:round;">
</g>
<g style="fill:#840000; fill-opacity:0.0; 
stroke:#840000; stroke-width:60; stroke-opacity:1; 
stroke-linecap:round; stroke-linejoin:round;">
<path d="M73200 78240
L73200 78580
" />
<path d="M73070 78040
L72950 78410
L73270 78410
" />
</g>
<g style="fill:#840000; fill-opacity:0.0; 
stroke:#840000; stroke-width:100; stroke-opacity:1; 
stroke-linecap:round; stroke-linejoin:round;">
</g>
<g style="fill:#840000; fill-opacity:0.0; 
stroke:#840000; stroke-width:60; stroke-opacity:1; 
stroke-linecap:round; stroke-linejoin:round;">
<path d="M92910 78070
L92670 78070
L92640 78310
L92670 78280
L92720 78260
L92840 78260
L92890 78280
L92910 78310
L92930 78360
L92930 78480
L92910 78530
L92890 78550
L92840 78580
L92720 78580
L92670 78550
L92640 78530
" />
</g>
<g style="fill:#840000; fill-opacity:0.0; 
stroke:#840000; stroke-width:100; stroke-opacity:1; 
stroke-linecap:round; stroke-linejoin:round;">
</g>
<g style="fill:#840000; fill-opacity:0.0; 
stroke:#840000; stroke-width:60; stroke-opacity:1; 
stroke-linecap:round; stroke-linejoin:round;">
<path d="M112570 78070
L112470 78070
L112420 78090
L112400 78110
L112350 78190
L112320 78280
L112320 78480
L112350 78530
L112370 78550
L112420 78580
L112520 78580
L112570 78550
L112590 78530
L112610 78480
L112610 78360
L112590 78310
L112570 78280
L112520 78260
L112420 78260
L112370 78280
L112350 78310
L112320 78360
" />
</g>
<g style="fill:#840000; fill-opacity:0.0; 
stroke:#840000; stroke-width:100; stroke-opacity:1; 
stroke-linecap:round; stroke-linejoin:round;">
</g>
<g style="fill:#840000; fill-opacity:0.0; 
stroke:#840000; stroke-width:60; stroke-opacity:1; 
stroke-linecap:round; stroke-linejoin:round;">
<path d="M3940 23620
L4720 23620
" />
</g>
<g style="fill:#840000; fill-opacity:0.0; 
stroke:#840000; stroke-width:100; stroke-opacity:1; 
stroke-linecap:round; stroke-linejoin:round;">
</g>
<g style="fill:#840000; fill-opacity:0.0; 
stroke:#840000; stroke-width:60; stroke-opacity:1; 
stroke-linecap:round; stroke-linejoin:round;">
<path d="M3940 43310
L4720 43310
" />
</g>
<g style="fill:#840000; fill-opacity:0.0; 
stroke:#840000; stroke-width:100; stroke-opacity:1; 
stroke-linecap:round; stroke-linejoin:round;">
</g>
<g style="fill:#840000; fill-opacity:0.0; 
stroke:#840000; stroke-width:60; stroke-opacity:1; 
stroke-linecap:round; stroke-linejoin:round;">
<path d="M3940 62990
L4720 62990
" />
</g>
<g style="fill:#840000; fill-opacity:0.0; 
stroke:#840000; stroke-width:100; stroke-opacity:1; 
stroke-linecap:round; stroke-linejoin:round;">
</g>
<g style="fill:#840000; fill-opacity:0.0; 
stroke:#840000; stroke-width:60; stroke-opacity:1; 
stroke-linecap:round; stroke-linejoin:round;">
<path d="M4200 13860
L4450 13860
" />
<path d="M4160 14010
L4330 13500
L4500 14010
" />
</g>
<g style="fill:#840000; fill-opacity:0.0; 
stroke:#840000; stroke-width:100; stroke-opacity:1; 
stroke-linecap:round; stroke-linejoin:round;">
</g>
<g style="fill:#840000; fill-opacity:0.0; 
stroke:#840000; stroke-width:60; stroke-opacity:1; 
stroke-linecap:round; stroke-linejoin:round;">
<path d="M4360 33420
L4430 33440
L4460 33470
L4480 33520
L4480 33590
L4460 33640
L4430 33660
L4390 33690
L4190 33690
L4190 33180
L4360 33180
L4410 33200
L4430 33220
L4460 33270
L4460 33320
L4430 33370
L4410 33390
L4360 33420
L4190 33420
" />
</g>
<g style="fill:#840000; fill-opacity:0.0; 
stroke:#840000; stroke-width:100; stroke-opacity:1; 
stroke-linecap:round; stroke-linejoin:round;">
</g>
<g style="fill:#840000; fill-opacity:0.0; 
stroke:#840000; stroke-width:60; stroke-opacity:1; 
stroke-linecap:round; stroke-linejoin:round;">
<path d="M4480 53330
L4460 53350
L4390 53380
L4340 53380
L4260 53350
L4220 53300
L4190 53250
L4170 53160
L4170 53080
L4190 52990
L4220 52940
L4260 52890
L4340 52870
L4390 52870
L4460 52890
L4480 52910
" />
</g>
<g style="fill:#840000; fill-opacity:0.0; 
stroke:#840000; stroke-width:100; stroke-opacity:1; 
stroke-linecap:round; stroke-linejoin:round;">
</g>
<g style="fill:#840000; fill-opacity:0.0; 
stroke:#840000; stroke-width:60; stroke-opacity:1; 
stroke-linecap:round; stroke-linejoin:round;">
<path d="M4190 73060
L4190 72550
L4310 72550
L4390 72570
L4430 72620
L4460 72670
L4480 72760
L4480 72840
L4460 72930
L4430 72980
L4390 73030
L4310 73060
L4190 73060
" />
</g>
<g style="fill:#840000; fill-opacity:0.0; 
stroke:#840000; stroke-width:100; stroke-opacity:1; 
stroke-linecap:round; stroke-linejoin:round;">
</g>
<g style="fill:#840000; fill-opacity:0.0; 
stroke:#840000; stroke-width:60; stroke-opacity:1; 
stroke-linecap:round; stroke-linejoin:round;">
<path d="M112990 23620
L112210 23620
" />
</g>
<g style="fill:#840000; fill-opacity:0.0; 
stroke:#840000; stroke-width:100; stroke-opacity:1; 
stroke-linecap:round; stroke-linejoin:round;">
</g>
<g style="fill:#840000; fill-opacity:0.0; 
stroke:#840000; stroke-width:60; stroke-opacity:1; 
stroke-linecap:round; stroke-linejoin:round;">
<path d="M112990 43310
L112210 43310
" />
</g>
<g style="fill:#840000; fill-opacity:0.0; 
stroke:#840000; stroke-width:100; stroke-opacity:1; 
stroke-linecap:round; stroke-linejoin:round;">
</g>
<g style="fill:#840000; fill-opacity:0.0; 
stroke:#840000; stroke-width:60; stroke-opacity:1; 
stroke-linecap:round; stroke-linejoin:round;">
<path d="M112990 62990
L112210 62990
" />
</g>
<g style="fill:#840000; fill-opacity:0.0; 
stroke:#840000; stroke-width:100; stroke-opacity:1; 
stroke-linecap:round; stroke-linejoin:round;">
</g>
<g style="fill:#840000; fill-opacity:0.0; 
stroke:#840000; stroke-width:60; stroke-opacity:1; 
stroke-linecap:round; stroke-linejoin:round;">
<path d="M112470 13860
L112720 13860
" />
<path d="M112430 14010
L112600 13500
L112770 14010
" />
</g>
<g style="fill:#840000; fill-opacity:0.0; 
stroke:#840000; stroke-width:100; stroke-opacity:1; 
stroke-linecap:round; stroke-linejoin:round;">
</g>
<g style="fill:#840000; fill-opacity:0.0; 
stroke:#840000; stroke-width:60; stroke-opacity:1; 
stroke-linecap:round; stroke-linejoin:round;">
<path d="M112630 33420
L112700 33440
L112730 33470
L112750 33520
L112750 33590
L112730 33640
L112700 33660
L112660 33690
L112460 33690
L112460 33180
L112630 33180
L112680 33200
L112700 33220
L112730 33270
L112730 33320
L112700 33370
L112680 33390
L112630 33420
L112460 33420
" />
</g>
<g style="fill:#840000; fill-opacity:0.0; 
stroke:#840000; stroke-width:100; stroke-opacity:1; 
stroke-linecap:round; stroke-linejoin:round;">
</g>
<g style="fill:#840000; fill-opacity:0.0; 
stroke:#840000; stroke-width:60; stroke-opacity:1; 
stroke-linecap:round; stroke-linejoin:round;">
<path d="M112750 53330
L112730 53350
L112660 53380
L112610 53380
L112530 53350
L112490 53300
L112460 53250
L112440 53160
L112440 53080
L112460 52990
L112490 52940
L112530 52890
L112610 52870
L112660 52870
L112730 52890
L112750 52910
" />
</g>
<g style="fill:#840000; fill-opacity:0.0; 
stroke:#840000; stroke-width:100; stroke-opacity:1; 
stroke-linecap:round; stroke-linejoin:round;">
</g>
<g style="fill:#840000; fill-opacity:0.0; 
stroke:#840000; stroke-width:60; stroke-opacity:1; 
stroke-linecap:round; stroke-linejoin:round;">
<path d="M112460 73060
L112460 72550
L112580 72550
L112660 72570
L112700 72620
L112730 72670
L112750 72760
L112750 72840
L112730 72930
L112700 72980
L112660 73030
L112580 73060
L112460 73060
" />
</g>
<g style="fill:#840000; fill-opacity:0.0; 
stroke:#840000; stroke-width:100; stroke-opacity:1; 
stroke-linecap:round; stroke-linejoin:round;">
</g>
<g style="fill:#840000; fill-opacity:0.0; 
stroke:#840000; stroke-width:60; stroke-opacity:1; 
stroke-linecap:round; stroke-linejoin:round;">
<path d="M78910 76290
L78910 75700
L79050 75700
L79130 75730
L79190 75790
L79210 75840
L79240 75950
L79240 76040
L79210 76150
L79190 76210
L79130 76260
L79050 76290
L78910 76290
" />
<path d="M79750 76290
L79750 75980
L79720 75930
L79660 75900
L79550 75900
L79500 75930
" />
<path d="M79750 76260
L79690 76290
L79550 76290
L79500 76260
L79470 76210
L79470 76150
L79500 76100
L79550 76070
L79690 76070
L79750 76040
" />
<path d="M79950 75900
L80170 75900
" />
<path d="M80030 75700
L80030 76210
L80060 76260
L80110 76290
L80170 76290
" />
<path d="M80590 76260
L80540 76290
L80420 76290
L80370 76260
L80340 76210
L80340 75980
L80370 75930
L80420 75900
L80540 75900
L80590 75930
L80620 75980
L80620 76040
L80340 76100
" />
<path d="M80870 76240
L80900 76260
L80870 76290
L80840 76260
L80870 76240
L80870 76290
" />
<path d="M80870 75930
L80900 75950
L80870 75980
L80840 75950
L80870 75930
L80870 75980
" />
</g>
<g style="fill:#840000; fill-opacity:0.0; 
stroke:#840000; stroke-width:100; stroke-opacity:1; 
stroke-linecap:round; stroke-linejoin:round;">
</g>
<g style="fill:#840000; fill-opacity:0.0; 
stroke:#840000; stroke-width:60; stroke-opacity:1; 
stroke-linecap:round; stroke-linejoin:round;">
<path d="M69690 76580
L112210 76580
" />
</g>
<g style="fill:#840000; fill-opacity:0.0; 
stroke:#840000; stroke-width:100; stroke-opacity:1; 
stroke-linecap:round; stroke-linejoin:round;">
</g>
<g style="fill:#840000; fill-opacity:0.0; 
stroke:#840000; stroke-width:60; stroke-opacity:1; 
stroke-linecap:round; stroke-linejoin:round;">
<path d="M70250 77390
L70250 76800
" />
<path d="M70580 77390
L70330 77050
" />
<path d="M70580 76800
L70250 77140
" />
<path d="M70840 77390
L70840 77000
" />
<path d="M70840 76800
L70810 76830
L70840 76860
L70860 76830
L70840 76800
L70840 76860
" />
<path d="M71450 77340
L71430 77360
L71340 77390
L71290 77390
L71200 77360
L71140 77310
L71120 77250
L71090 77140
L71090 77050
L71120 76940
L71140 76890
L71200 76830
L71290 76800
L71340 76800
L71430 76830
L71450 76860
" />
<path d="M71960 77390
L71960 77080
L71930 77030
L71880 77000
L71760 77000
L71710 77030
" />
<path d="M71960 77360
L71900 77390
L71760 77390
L71710 77360
L71680 77310
L71680 77250
L71710 77200
L71760 77170
L71900 77170
L71960 77140
" />
<path d="M72490 77390
L72490 76800
" />
<path d="M72490 77360
L72440 77390
L72320 77390
L72270 77360
L72240 77340
L72210 77280
L72210 77110
L72240 77050
L72270 77030
L72320 77000
L72440 77000
L72490 77030
" />
<path d="M73220 77080
L73420 77080
" />
<path d="M73500 77390
L73220 77390
L73220 76800
L73500 76800
" />
<path d="M73760 77340
L73790 77360
L73760 77390
L73730 77360
L73760 77340
L73760 77390
" />
<path d="M74040 77390
L74040 76800
L74180 76800
L74260 76830
L74320 76890
L74350 76940
L74380 77050
L74380 77140
L74350 77250
L74320 77310
L74260 77360
L74180 77390
L74040 77390
" />
<path d="M74630 77340
L74660 77360
L74630 77390
L74600 77360
L74630 77340
L74630 77390
" />
<path d="M74880 77220
L75160 77220
" />
<path d="M74830 77390
L75020 76800
L75220 77390
" />
<path d="M75420 77340
L75440 77360
L75420 77390
L75390 77360
L75420 77340
L75420 77390
" />
<path d="M76600 77390
L76600 76800
" />
<path d="M76650 77170
L76820 77390
" />
<path d="M76820 77000
L76600 77220
" />
<path d="M77070 77390
L77070 77000
" />
<path d="M77070 76800
L77040 76830
L77070 76860
L77100 76830
L77070 76800
L77070 76860
" />
<path d="M77610 77360
L77550 77390
L77440 77390
L77380 77360
L77350 77340
L77330 77280
L77330 77110
L77350 77050
L77380 77030
L77440 77000
L77550 77000
L77610 77030
" />
<path d="M78110 77390
L78110 77080
L78080 77030
L78030 77000
L77920 77000
L77860 77030
" />
<path d="M78110 77360
L78060 77390
L77920 77390
L77860 77360
L77830 77310
L77830 77250
L77860 77200
L77920 77170
L78060 77170
L78110 77140
" />
<path d="M78650 77390
L78650 76800
" />
<path d="M78650 77360
L78590 77390
L78480 77390
L78420 77360
L78390 77340
L78370 77280
L78370 77110
L78390 77050
L78420 77030
L78480 77000
L78590 77000
L78650 77030
" />
<path d="M79550 77620
L79520 77590
L79460 77500
L79430 77450
L79400 77360
L79380 77220
L79380 77110
L79400 76970
L79430 76890
L79460 76830
L79520 76750
L79550 76720
" />
<path d="M80050 76800
L79770 76800
L79740 77080
L79770 77050
L79830 77030
L79970 77030
L80020 77050
L80050 77080
L80080 77140
L80080 77280
L80050 77340
L80020 77360
L79970 77390
L79830 77390
L79770 77360
L79740 77340
" />
<path d="M80330 77340
L80360 77360
L80330 77390
L80300 77360
L80330 77340
L80330 77390
" />
<path d="M80920 77390
L80580 77390
" />
<path d="M80750 77390
L80750 76800
L80700 76890
L80640 76940
L80580 76970
" />
<path d="M81170 77340
L81200 77360
L81170 77390
L81150 77360
L81170 77340
L81170 77390
" />
<path d="M81710 77000
L81710 77390
" />
<path d="M81570 76770
L81430 77200
L81790 77200
" />
<path d="M81960 77620
L81990 77590
L82050 77500
L82070 77450
L82100 77360
L82130 77220
L82130 77110
L82100 76970
L82070 76890
L82050 76830
L81990 76750
L81960 76720
" />
<path d="M82410 77170
L82860 77170
" />
<path d="M83450 77390
L83110 77390
" />
<path d="M83280 77390
L83280 76800
L83230 76890
L83170 76940
L83110 76970
" />
</g>
<g style="fill:#840000; fill-opacity:0.0; 
stroke:#840000; stroke-width:100; stroke-opacity:1; 
stroke-linecap:round; stroke-linejoin:round;">
</g>
<g style="fill:#840000; fill-opacity:0.0; 
stroke:#840000; stroke-width:60; stroke-opacity:1; 
stroke-linecap:round; stroke-linejoin:round;">
<path d="M69690 75400
L112210 75400
" />
</g>
<g style="fill:#840000; fill-opacity:0.0; 
stroke:#840000; stroke-width:100; stroke-opacity:1; 
stroke-linecap:round; stroke-linejoin:round;">
</g>
<g style="fill:#840000; fill-opacity:0.0; 
stroke:#840000; stroke-width:120; stroke-opacity:1; 
stroke-linecap:round; stroke-linejoin:round;">
<path d="M104090 76290
L103890 76010
" />
<path d="M103750 76290
L103750 75700
L103980 75700
L104030 75730
L104060 75760
L104090 75810
L104090 75900
L104060 75950
L104030 75980
L103980 76010
L103750 76010
" />
<path d="M104570 76260
L104510 76290
L104400 76290
L104340 76260
L104320 76210
L104320 75980
L104340 75930
L104400 75900
L104510 75900
L104570 75930
L104600 75980
L104600 76040
L104320 76100
" />
<path d="M104790 75900
L104930 76290
L105070 75900
" />
<path d="M105300 76240
L105330 76260
L105300 76290
L105270 76260
L105300 76240
L105300 76290
" />
<path d="M105300 75930
L105330 75950
L105300 75980
L105270 75950
L105300 75930
L105300 75980
" />
</g>
<g style="fill:#840000; fill-opacity:0.0; 
stroke:#840000; stroke-width:100; stroke-opacity:1; 
stroke-linecap:round; stroke-linejoin:round;">
</g>
<g style="fill:#840000; fill-opacity:0.0; 
stroke:#840000; stroke-width:60; stroke-opacity:1; 
stroke-linecap:round; stroke-linejoin:round;">
<path d="M70220 76260
L70300 76290
L70440 76290
L70500 76260
L70530 76240
L70550 76180
L70550 76120
L70530 76070
L70500 76040
L70440 76010
L70330 75980
L70270 75950
L70250 75930
L70220 75870
L70220 75810
L70250 75760
L70270 75730
L70330 75700
L70470 75700
L70550 75730
" />
<path d="M70810 76290
L70810 75900
" />
<path d="M70810 75700
L70780 75730
L70810 75760
L70840 75730
L70810 75700
L70810 75760
" />
<path d="M71030 75900
L71340 75900
L71030 76290
L71340 76290
" />
<path d="M71790 76260
L71730 76290
L71620 76290
L71570 76260
L71540 76210
L71540 75980
L71570 75930
L71620 75900
L71730 75900
L71790 75930
L71820 75980
L71820 76040
L71540 76100
" />
<path d="M72070 76240
L72100 76260
L72070 76290
L72040 76260
L72070 76240
L72070 76290
" />
<path d="M72070 75930
L72100 75950
L72070 75980
L72040 75950
L72070 75930
L72070 75980
" />
<path d="M72770 76120
L73060 76120
" />
<path d="M72720 76290
L72910 75700
L73110 76290
" />
<path d="M73560 75900
L73560 76290
" />
<path d="M73420 75670
L73280 76100
L73650 76100
" />
</g>
<g style="fill:#840000; fill-opacity:0.0; 
stroke:#840000; stroke-width:100; stroke-opacity:1; 
stroke-linecap:round; stroke-linejoin:round;">
</g>
<g style="fill:#840000; fill-opacity:0.0; 
stroke:#840000; stroke-width:60; stroke-opacity:1; 
stroke-linecap:round; stroke-linejoin:round;">
<path d="M103710 77390
L103710 76800
" />
<path d="M104240 77390
L104240 76800
" />
<path d="M104240 77360
L104180 77390
L104070 77390
L104010 77360
L103990 77340
L103960 77280
L103960 77110
L103990 77050
L104010 77030
L104070 77000
L104180 77000
L104240 77030
" />
<path d="M104520 77340
L104550 77360
L104520 77390
L104490 77360
L104520 77340
L104520 77390
" />
<path d="M104520 77030
L104550 77050
L104520 77080
L104490 77050
L104520 77030
L104520 77080
" />
<path d="M105220 76860
L105250 76830
L105310 76800
L105450 76800
L105500 76830
L105530 76860
L105560 76910
L105560 76970
L105530 77050
L105190 77390
L105560 77390
" />
<path d="M106230 76770
L105730 77530
" />
<path d="M106370 76800
L106770 76800
L106520 77390
" />
</g>
<g style="fill:#840000; fill-opacity:0.0; 
stroke:#840000; stroke-width:100; stroke-opacity:1; 
stroke-linecap:round; stroke-linejoin:round;">
</g>
<g style="fill:#840000; fill-opacity:0.0; 
stroke:#840000; stroke-width:60; stroke-opacity:1; 
stroke-linecap:round; stroke-linejoin:round;">
<path d="M69690 73820
L112210 73820
" />
</g>
<g style="fill:#840000; fill-opacity:0.0; 
stroke:#840000; stroke-width:100; stroke-opacity:1; 
stroke-linecap:round; stroke-linejoin:round;">
</g>
<g style="fill:#840000; fill-opacity:0.0; 
stroke:#840000; stroke-width:160; stroke-opacity:1; 
stroke-linecap:round; stroke-linejoin:round;">
<path d="M70360 74090
L70810 74090
" />
<path d="M70480 74880
L70580 74090
" />
<path d="M70970 74880
L71040 74360
" />
<path d="M71070 74090
L71030 74130
L71060 74170
L71110 74130
L71070 74090
L71060 74170
" />
<path d="M71300 74360
L71600 74360
" />
<path d="M71450 74090
L71360 74770
L71390 74840
L71460 74880
L71540 74880
" />
<path d="M71910 74880
L71840 74840
L71820 74770
L71900 74090
" />
<path d="M72520 74840
L72440 74880
L72290 74880
L72220 74840
L72190 74770
L72230 74470
L72280 74390
L72360 74360
L72510 74360
L72580 74390
L72610 74470
L72600 74540
L72210 74620
" />
<path d="M72900 74810
L72930 74840
L72890 74880
L72860 74840
L72900 74810
L72890 74880
" />
<path d="M72950 74390
L72990 74430
L72940 74470
L72910 74430
L72950 74390
L72940 74470
" />
</g>
<g style="fill:#840000; fill-opacity:0.0; 
stroke:#840000; stroke-width:100; stroke-opacity:1; 
stroke-linecap:round; stroke-linejoin:round;">
</g>
<g style="fill:#840000; fill-opacity:0.0; 
stroke:#840000; stroke-width:60; stroke-opacity:1; 
stroke-linecap:round; stroke-linejoin:round;">
<path d="M70440 73060
L70250 73060
" />
<path d="M70250 73370
L70250 72780
L70530 72780
" />
<path d="M70750 73370
L70750 72980
" />
<path d="M70750 72780
L70720 72810
L70750 72840
L70780 72810
L70750 72780
L70750 72840
" />
<path d="M71120 73370
L71060 73340
L71030 73290
L71030 72780
" />
<path d="M71570 73340
L71510 73370
L71400 73370
L71340 73340
L71310 73290
L71310 73060
L71340 73010
L71400 72980
L71510 72980
L71570 73010
L71590 73060
L71590 73120
L71310 73180
" />
<path d="M71850 73320
L71880 73340
L71850 73370
L71820 73340
L71850 73320
L71850 73370
" />
<path d="M71850 73010
L71880 73030
L71850 73060
L71820 73030
L71850 73010
L71850 73060
" />
<path d="M72580 73370
L72580 72780
L72800 72780
L72860 72810
L72890 72840
L72910 72890
L72910 72980
L72890 73030
L72860 73060
L72800 73090
L72580 73090
" />
<path d="M73250 73370
L73200 73340
L73170 73320
L73140 73260
L73140 73090
L73170 73030
L73200 73010
L73250 72980
L73340 72980
L73390 73010
L73420 73030
L73450 73090
L73450 73260
L73420 73320
L73390 73340
L73340 73370
L73250 73370
" />
<path d="M73650 72980
L73760 73370
L73870 73090
L73980 73370
L74090 72980
" />
<path d="M74540 73340
L74490 73370
L74380 73370
L74320 73340
L74290 73290
L74290 73060
L74320 73010
L74380 72980
L74490 72980
L74540 73010
L74570 73060
L74570 73120
L74290 73180
" />
<path d="M74830 73370
L74830 72980
" />
<path d="M74830 73090
L74850 73030
L74880 73010
L74940 72980
L74990 72980
" />
<path d="M75160 73340
L75250 73370
L75390 73370
L75440 73340
L75470 73320
L75500 73260
L75500 73200
L75470 73150
L75440 73120
L75390 73090
L75270 73060
L75220 73030
L75190 73010
L75160 72950
L75160 72890
L75190 72840
L75220 72810
L75270 72780
L75420 72780
L75500 72810
" />
<path d="M76010 72980
L76010 73370
" />
<path d="M75750 72980
L75750 73290
L75780 73340
L75840 73370
L75920 73370
L75980 73340
L76010 73320
" />
<path d="M76290 72980
L76290 73570
" />
<path d="M76290 73010
L76340 72980
L76450 72980
L76510 73010
L76540 73030
L76570 73090
L76570 73260
L76540 73320
L76510 73340
L76450 73370
L76340 73370
L76290 73340
" />
<path d="M76820 72980
L76820 73570
" />
<path d="M76820 73010
L76880 72980
L76990 72980
L77040 73010
L77070 73030
L77100 73090
L77100 73260
L77070 73320
L77040 73340
L76990 73370
L76880 73370
L76820 73340
" />
<path d="M77440 73370
L77380 73340
L77350 73290
L77350 72780
" />
<path d="M77610 72980
L77750 73370
" />
<path d="M77890 72980
L77750 73370
L77690 73510
L77660 73540
L77610 73570
" />
<path d="M78110 73320
L78140 73340
L78110 73370
L78080 73340
L78110 73320
L78110 73370
" />
<path d="M78370 73340
L78420 73370
L78530 73370
L78590 73340
L78620 73290
L78620 73260
L78590 73200
L78530 73180
L78450 73180
L78390 73150
L78370 73090
L78370 73060
L78390 73010
L78450 72980
L78530 72980
L78590 73010
" />
<path d="M79120 73340
L79070 73370
L78960 73370
L78900 73340
L78870 73320
L78840 73260
L78840 73090
L78870 73030
L78900 73010
L78960 72980
L79070 72980
L79120 73010
" />
<path d="M79380 73370
L79380 72780
" />
<path d="M79630 73370
L79630 73060
L79600 73010
L79550 72980
L79460 72980
L79400 73010
L79380 73030
" />
</g>
<g style="fill:#840000; fill-opacity:0.0; 
stroke:#840000; stroke-width:100; stroke-opacity:1; 
stroke-linecap:round; stroke-linejoin:round;">
</g>
<g style="fill:#840000; fill-opacity:0.0; 
stroke:#840000; stroke-width:60; stroke-opacity:1; 
stroke-linecap:round; stroke-linejoin:round;">
<path d="M69690 71460
L112210 71460
" />
</g>
<g style="fill:#840000; fill-opacity:0.0; 
stroke:#840000; stroke-width:100; stroke-opacity:1; 
stroke-linecap:round; stroke-linejoin:round;">
</g>
<g style="fill:#840000; fill-opacity:0.0; 
stroke:#840000; stroke-width:60; stroke-opacity:1; 
stroke-linecap:round; stroke-linejoin:round;">
<path d="M70220 72280
L70300 72310
L70440 72310
L70500 72280
L70530 72260
L70550 72200
L70550 72140
L70530 72090
L70500 72060
L70440 72030
L70330 72000
L70270 71970
L70250 71950
L70220 71890
L70220 71830
L70250 71780
L70270 71750
L70330 71720
L70470 71720
L70550 71750
" />
<path d="M70810 72310
L70810 71720
" />
<path d="M71060 72310
L71060 72000
L71030 71950
L70980 71920
L70890 71920
L70840 71950
L70810 71970
" />
<path d="M71570 72280
L71510 72310
L71400 72310
L71340 72280
L71310 72230
L71310 72000
L71340 71950
L71400 71920
L71510 71920
L71570 71950
L71590 72000
L71590 72060
L71310 72120
" />
<path d="M72070 72280
L72020 72310
L71900 72310
L71850 72280
L71820 72230
L71820 72000
L71850 71950
L71900 71920
L72020 71920
L72070 71950
L72100 72000
L72100 72060
L71820 72120
" />
<path d="M72270 71920
L72490 71920
" />
<path d="M72350 71720
L72350 72230
L72380 72280
L72440 72310
L72490 72310
" />
<path d="M72690 72260
L72720 72280
L72690 72310
L72660 72280
L72690 72260
L72690 72310
" />
<path d="M72690 71950
L72720 71970
L72690 72000
L72660 71970
L72690 71950
L72690 72000
" />
<path d="M73840 71690
L73340 72450
" />
<path d="M74040 72310
L74040 71720
L74260 71720
L74320 71750
L74350 71780
L74380 71830
L74380 71920
L74350 71970
L74320 72000
L74260 72030
L74040 72030
" />
<path d="M74710 72310
L74660 72280
L74630 72260
L74600 72200
L74600 72030
L74630 71970
L74660 71950
L74710 71920
L74800 71920
L74850 71950
L74880 71970
L74910 72030
L74910 72200
L74880 72260
L74850 72280
L74800 72310
L74710 72310
" />
<path d="M75110 71920
L75220 72310
L75330 72030
L75440 72310
L75560 71920
" />
<path d="M76010 72280
L75950 72310
L75840 72310
L75780 72280
L75750 72230
L75750 72000
L75780 71950
L75840 71920
L75950 71920
L76010 71950
L76030 72000
L76030 72060
L75750 72120
" />
<path d="M76290 72310
L76290 71920
" />
<path d="M76290 72030
L76310 71970
L76340 71950
L76400 71920
L76450 71920
" />
<path d="M76620 72280
L76710 72310
L76850 72310
L76900 72280
L76930 72260
L76960 72200
L76960 72140
L76930 72090
L76900 72060
L76850 72030
L76740 72000
L76680 71970
L76650 71950
L76620 71890
L76620 71830
L76650 71780
L76680 71750
L76740 71720
L76880 71720
L76960 71750
" />
<path d="M77470 71920
L77470 72310
" />
<path d="M77210 71920
L77210 72230
L77240 72280
L77300 72310
L77380 72310
L77440 72280
L77470 72260
" />
<path d="M77750 71920
L77750 72510
" />
<path d="M77750 71950
L77800 71920
L77920 71920
L77970 71950
L78000 71970
L78030 72030
L78030 72200
L78000 72260
L77970 72280
L77920 72310
L77800 72310
L77750 72280
" />
<path d="M78280 71920
L78280 72510
" />
<path d="M78280 71950
L78340 71920
L78450 71920
L78510 71950
L78530 71970
L78560 72030
L78560 72200
L78530 72260
L78510 72280
L78450 72310
L78340 72310
L78280 72280
" />
<path d="M78900 72310
L78840 72280
L78810 72230
L78810 71720
" />
<path d="M79070 71920
L79210 72310
" />
<path d="M79350 71920
L79210 72310
L79150 72450
L79120 72480
L79070 72510
" />
<path d="M79990 71690
L79490 72450
" />
</g>
<g style="fill:#840000; fill-opacity:0.0; 
stroke:#840000; stroke-width:100; stroke-opacity:1; 
stroke-linecap:round; stroke-linejoin:round;">
</g>
<g style="fill:#840000; fill-opacity:0.0; 
stroke:#840000; stroke-width:60; stroke-opacity:1; 
stroke-linecap:round; stroke-linejoin:round;">
<path d="M77560 75400
L77560 76580
" />
</g>
<g style="fill:#840000; fill-opacity:0.0; 
stroke:#840000; stroke-width:100; stroke-opacity:1; 
stroke-linecap:round; stroke-linejoin:round;">
</g>
<g style="fill:#840000; fill-opacity:0.0; 
stroke:#840000; stroke-width:60; stroke-opacity:1; 
stroke-linecap:round; stroke-linejoin:round;">
<path d="M102760 75400
L102760 77960
" />
</g>
<g style="fill:#840000; fill-opacity:0.0; 
stroke:#840000; stroke-width:0; stroke-opacity:1; 
stroke-linecap:round; stroke-linejoin:round;">
<g >
</g>
<g style="fill:#840000; fill-opacity:0.0; 
stroke:#840000; stroke-width:60; stroke-opacity:1; 
stroke-linecap:round; stroke-linejoin:round;">
<path style="fill:#840000; fill-opacity:0.0; 
stroke:#840000; stroke-width:60; stroke-opacity:1; 
stroke-linecap:round; stroke-linejoin:round;fill:none"
d="M 60000,36500
60000,35500
Z" /> 
</g>
<g style="fill:#840000; fill-opacity:0.0; 
stroke:#840000; stroke-width:80; stroke-opacity:1; 
stroke-linecap:round; stroke-linejoin:round;">
<path style="fill:#840000; fill-opacity:0.0; 
stroke:#840000; stroke-width:80; stroke-opacity:1; 
stroke-linecap:round; stroke-linejoin:round;fill:none"
d="M 60500,36500
59500,36500
60000,35500
60500,36500
Z" /> 
<path style="fill:#840000; fill-opacity:0.0; 
stroke:#840000; stroke-width:80; stroke-opacity:1; 
stroke-linecap:round; stroke-linejoin:round;fill:none"
d="M 60250,35250
60500,35250
60500,35500
59500,35500
59500,35750
59750,35750
Z" /> 
</g>
<g style="fill:#840000; fill-opacity:0.0; 
stroke:#840000; stroke-width:60; stroke-opacity:1; 
stroke-linecap:round; stroke-linejoin:round;">
<path d="M60000 35500
L60000 34500
" />
<path d="M60000 36500
L60000 37500
" />
</g>
<g style="fill:#008484; fill-opacity:0.0; 
stroke:#008484; stroke-width:60; stroke-opacity:1; 
stroke-linecap:round; stroke-linejoin:round;">
<path d="M60940 35780
L60940 35280
L61060 35280
L61130 35310
L61170 35350
L61200 35400
L61220 35500
L61220 35570
L61200 35660
L61170 35710
L61130 35760
L61060 35780
L60940 35780
" />
<path d="M61700 35780
L61410 35780
" />
<path d="M61560 35780
L61560 35280
L61510 35350
L61460 35400
L61410 35420
" />
<path d="M61190 36690
L60910 36690
" />
<path d="M61050 36690
L61050 36190
L61000 36260
L60960 36310
L60910 36330
" />
<path d="M61410 36690
L61410 36190
L61690 36690
L61690 36190
" />
<path d="M62170 36190
L61930 36190
L61910 36430
L61930 36410
L61980 36380
L62100 36380
L62150 36410
L62170 36430
L62190 36480
L62190 36600
L62170 36640
L62150 36670
L62100 36690
L61980 36690
L61930 36670
L61910 36640
" />
<path d="M62480 36410
L62430 36380
L62410 36360
L62380 36310
L62380 36290
L62410 36240
L62430 36220
L62480 36190
L62570 36190
L62620 36220
L62650 36240
L62670 36290
L62670 36310
L62650 36360
L62620 36380
L62570 36410
L62480 36410
L62430 36430
L62410 36450
L62380 36500
L62380 36600
L62410 36640
L62430 36670
L62480 36690
L62570 36690
L62620 36670
L62650 36640
L62670 36600
L62670 36500
L62650 36450
L62620 36430
L62570 36410
" />
<path d="M63150 36690
L62860 36690
" />
<path d="M63000 36690
L63000 36190
L62960 36260
L62910 36310
L62860 36330
" />
<path d="M63380 36690
L63480 36690
L63530 36670
L63550 36640
L63600 36570
L63620 36480
L63620 36290
L63600 36240
L63570 36220
L63530 36190
L63430 36190
L63380 36220
L63360 36240
L63340 36290
L63340 36410
L63360 36450
L63380 36480
L63430 36500
L63530 36500
L63570 36480
L63600 36450
L63620 36410
" />
</g>
</g>
<g style="fill:#008484; fill-opacity:0.0; 
stroke:#008484; stroke-width:0; stroke-opacity:1; 
stroke-linecap:round; stroke-linejoin:round;">
<g >
</g>
<g style="fill:#840000; fill-opacity:0.0; 
stroke:#840000; stroke-width:0; stroke-opacity:1; 
stroke-linecap:round; stroke-linejoin:round;">
</g>
<g style="fill:#840000; fill-opacity:0.0; 
stroke:#840000; stroke-width:100; stroke-opacity:1; 
stroke-linecap:round; stroke-linejoin:round;">
<rect x="44100" y="33500" width="800" height="2000" rx="0" />
</g>
<g style="fill:#840000; fill-opacity:0.0; 
stroke:#840000; stroke-width:60; stroke-opacity:1; 
stroke-linecap:round; stroke-linejoin:round;">
<path d="M44500 33500
L44500 33000
" />
<path d="M44500 35500
L44500 36000
" />
</g>
<g style="fill:#008484; fill-opacity:0.0; 
stroke:#008484; stroke-width:60; stroke-opacity:1; 
stroke-linecap:round; stroke-linejoin:round;">
<path d="M42670 34580
L42430 34750
" />
<path d="M42670 34860
L42170 34860
L42170 34670
L42200 34630
L42220 34600
L42270 34580
L42340 34580
L42390 34600
L42410 34630
L42430 34670
L42430 34860
" />
<path d="M42220 34390
L42200 34360
L42170 34320
L42170 34200
L42200 34150
L42220 34130
L42270 34100
L42310 34100
L42390 34130
L42670 34410
L42670 34100
" />
<path d="M43080 34850
L43080 35090
L43320 35120
L43300 35090
L43270 35040
L43270 34930
L43300 34880
L43320 34850
L43370 34830
L43490 34830
L43530 34850
L43560 34880
L43580 34930
L43580 35040
L43560 35090
L43530 35120
" />
<path d="M43580 34350
L43580 34640
" />
<path d="M43580 34500
L43080 34500
L43150 34540
L43200 34590
L43220 34640
" />
<path d="M43580 34140
L43080 34140
" />
<path d="M43580 33850
L43300 34070
" />
<path d="M43080 33850
L43370 34140
" />
</g>
</g>
<g style="fill:#008484; fill-opacity:0.0; 
stroke:#008484; stroke-width:0; stroke-opacity:1; 
stroke-linecap:round; stroke-linejoin:round;">
<g >
</g>
<g style="fill:#840000; fill-opacity:0.0; 
stroke:#840000; stroke-width:0; stroke-opacity:1; 
stroke-linecap:round; stroke-linejoin:round;">
</g>
<g style="fill:#840000; fill-opacity:0.0; 
stroke:#840000; stroke-width:100; stroke-opacity:1; 
stroke-linecap:round; stroke-linejoin:round;">
<circle cx="44150" cy="40000" r="1110" /> 
</g>
<g style="fill:#840000; fill-opacity:1.0; 
stroke:#840000; stroke-width:60; stroke-opacity:1; 
stroke-linecap:round; stroke-linejoin:round;">
<circle cx="44500" cy="40700" r="110" /> 
<circle cx="44500" cy="39300" r="110" /> 
</g>
<g style="fill:#840000; fill-opacity:0.0; 
stroke:#840000; stroke-width:60; stroke-opacity:1; 
stroke-linecap:round; stroke-linejoin:round;">
<path style="fill:#840000; fill-opacity:0.0; 
stroke:#840000; stroke-width:60; stroke-opacity:1; 
stroke-linecap:round; stroke-linejoin:round;fill:none"
d="M 42500,40000
43600,40000
Z" /> 
<path style="fill:#840000; fill-opacity:0.0; 
stroke:#840000; stroke-width:60; stroke-opacity:1; 
stroke-linecap:round; stroke-linejoin:round;fill:none"
d="M 43800,40700
44500,40700
Z" /> 
</g>
<g style="fill:#840000; fill-opacity:0.0; 
stroke:#840000; stroke-width:100; stroke-opacity:1; 
stroke-linecap:round; stroke-linejoin:round;">
<path style="fill:#840000; fill-opacity:0.0; 
stroke:#840000; stroke-width:100; stroke-opacity:1; 
stroke-linecap:round; stroke-linejoin:round;fill:none"
d="M 43800,40500
43800,40900
Z" /> 
</g>
<g style="fill:#840000; fill-opacity:0.0; 
stroke:#840000; stroke-width:60; stroke-opacity:1; 
stroke-linecap:round; stroke-linejoin:round;">
<path style="fill:#840000; fill-opacity:0.0; 
stroke:#840000; stroke-width:60; stroke-opacity:1; 
stroke-linecap:round; stroke-linejoin:round;fill:none"
d="M 43800,40000
44500,40000
Z" /> 
</g>
<g style="fill:#840000; fill-opacity:0.0; 
stroke:#840000; stroke-width:100; stroke-opacity:1; 
stroke-linecap:round; stroke-linejoin:round;">
<path style="fill:#840000; fill-opacity:0.0; 
stroke:#840000; stroke-width:100; stroke-opacity:1; 
stroke-linecap:round; stroke-linejoin:round;fill:none"
d="M 43800,39800
43800,40200
Z" /> 
</g>
<g style="fill:#840000; fill-opacity:0.0; 
stroke:#840000; stroke-width:60; stroke-opacity:1; 
stroke-linecap:round; stroke-linejoin:round;">
<path style="fill:#840000; fill-opacity:0.0; 
stroke:#840000; stroke-width:60; stroke-opacity:1; 
stroke-linecap:round; stroke-linejoin:round;fill:none"
d="M 43800,39300
44500,39300
Z" /> 
</g>
<g style="fill:#840000; fill-opacity:0.0; 
stroke:#840000; stroke-width:100; stroke-opacity:1; 
stroke-linecap:round; stroke-linejoin:round;">
<path style="fill:#840000; fill-opacity:0.0; 
stroke:#840000; stroke-width:100; stroke-opacity:1; 
stroke-linecap:round; stroke-linejoin:round;fill:none"
d="M 43800,39100
43800,39500
Z" /> 
</g>
<g style="fill:#840000; fill-opacity:0.0; 
stroke:#840000; stroke-width:60; stroke-opacity:1; 
stroke-linecap:round; stroke-linejoin:round;">
<path style="fill:#840000; fill-opacity:0.0; 
stroke:#840000; stroke-width:60; stroke-opacity:1; 
stroke-linecap:round; stroke-linejoin:round;fill:none"
d="M 44500,40700
44500,41000
Z" /> 
<path style="fill:#840000; fill-opacity:0.0; 
stroke:#840000; stroke-width:60; stroke-opacity:1; 
stroke-linecap:round; stroke-linejoin:round;fill:none"
d="M 44500,40700
44500,40000
Z" /> 
<path style="fill:#840000; fill-opacity:0.0; 
stroke:#840000; stroke-width:60; stroke-opacity:1; 
stroke-linecap:round; stroke-linejoin:round;fill:none"
d="M 44500,39000
44500,39300
Z" /> 
</g>
<g style="fill:#840000; fill-opacity:0.0; 
stroke:#840000; stroke-width:100; stroke-opacity:1; 
stroke-linecap:round; stroke-linejoin:round;">
<path style="fill:#840000; fill-opacity:0.0; 
stroke:#840000; stroke-width:100; stroke-opacity:1; 
stroke-linecap:round; stroke-linejoin:round;fill:none"
d="M 43600,39250
43600,40750
43600,40750
Z" /> 
</g>
<g style="fill:#840000; fill-opacity:1.0; 
stroke:#840000; stroke-width:60; stroke-opacity:1; 
stroke-linecap:round; stroke-linejoin:round;">
<path style="fill:#840000; fill-opacity:1.0; 
stroke:#840000; stroke-width:60; stroke-opacity:1; 
stroke-linecap:round; stroke-linejoin:round;fill-rule:evenodd;"
d="M 43900,40000
44300,39850
44300,40150
43900,40000
Z" /> 
</g>
<g style="fill:#840000; fill-opacity:0.0; 
stroke:#840000; stroke-width:60; stroke-opacity:1; 
stroke-linecap:round; stroke-linejoin:round;">
<path style="fill:#840000; fill-opacity:0.0; 
stroke:#840000; stroke-width:60; stroke-opacity:1; 
stroke-linecap:round; stroke-linejoin:round;fill:none"
d="M 44500,40700
44800,40700
44800,39300
44500,39300
Z" /> 
<path style="fill:#840000; fill-opacity:0.0; 
stroke:#840000; stroke-width:60; stroke-opacity:1; 
stroke-linecap:round; stroke-linejoin:round;fill:none"
d="M 44600,39800
44650,39850
44950,39850
45000,39900
Z" /> 
<path style="fill:#840000; fill-opacity:0.0; 
stroke:#840000; stroke-width:60; stroke-opacity:1; 
stroke-linecap:round; stroke-linejoin:round;fill:none"
d="M 44800,39850
44650,40100
44950,40100
44800,39850
Z" /> 
<path d="M44500 41000
L44500 42000
" />
<path d="M45070 41350
L45070 41640
" />
<path d="M45070 41500
L44570 41500
L44640 41540
L44690 41590
L44710 41640
" />
<path d="M42500 40000
L41500 40000
" />
<path d="M41850 40120
L41880 40100
L41920 40070
L42040 40070
L42090 40100
L42110 40120
L42140 40170
L42140 40210
L42110 40290
L41830 40570
L42140 40570
" />
<path d="M44500 39000
L44500 38000
" />
<path d="M44570 38660
L44570 38350
L44760 38520
L44760 38450
L44790 38400
L44810 38380
L44860 38350
L44980 38350
L45020 38380
L45050 38400
L45070 38450
L45070 38590
L45050 38640
L45020 38660
" />
</g>
<g style="fill:#008484; fill-opacity:0.0; 
stroke:#008484; stroke-width:60; stroke-opacity:1; 
stroke-linecap:round; stroke-linejoin:round;">
<path d="M46030 39830
L45980 39810
L45930 39760
L45860 39690
L45810 39660
L45770 39660
" />
<path d="M45790 39780
L45740 39760
L45690 39710
L45670 39610
L45670 39450
L45690 39350
L45740 39310
L45790 39280
L45880 39280
L45930 39310
L45980 39350
L46000 39450
L46000 39610
L45980 39710
L45930 39760
L45880 39780
L45790 39780
" />
<path d="M46480 39780
L46190 39780
" />
<path d="M46340 39780
L46340 39280
L46290 39350
L46240 39400
L46190 39420
" />
<path d="M45670 40240
L45690 40220
L45740 40190
L45860 40190
L45910 40220
L45930 40240
L45950 40290
L45950 40330
L45930 40410
L45640 40690
L45950 40690
" />
<path d="M46170 40690
L46170 40190
L46450 40690
L46450 40190
" />
<path d="M46640 40190
L46980 40190
L46760 40690
" />
<path d="M47260 40190
L47310 40190
L47360 40220
L47380 40240
L47410 40290
L47430 40380
L47430 40500
L47410 40600
L47380 40640
L47360 40670
L47310 40690
L47260 40690
L47220 40670
L47190 40640
L47170 40600
L47140 40500
L47140 40380
L47170 40290
L47190 40240
L47220 40220
L47260 40190
" />
<path d="M47740 40190
L47790 40190
L47830 40220
L47860 40240
L47880 40290
L47910 40380
L47910 40500
L47880 40600
L47860 40640
L47830 40670
L47790 40690
L47740 40690
L47690 40670
L47670 40640
L47640 40600
L47620 40500
L47620 40380
L47640 40290
L47670 40240
L47690 40220
L47740 40190
" />
<path d="M48220 40190
L48260 40190
L48310 40220
L48330 40240
L48360 40290
L48380 40380
L48380 40500
L48360 40600
L48330 40640
L48310 40670
L48260 40690
L48220 40690
L48170 40670
L48140 40640
L48120 40600
L48100 40500
L48100 40380
L48120 40290
L48140 40240
L48170 40220
L48220 40190
" />
</g>
</g>
<g style="fill:#008484; fill-opacity:0.0; 
stroke:#008484; stroke-width:0; stroke-opacity:1; 
stroke-linecap:round; stroke-linejoin:round;">
<g >
</g>
<g style="fill:#840000; fill-opacity:0.0; 
stroke:#840000; stroke-width:0; stroke-opacity:1; 
stroke-linecap:round; stroke-linejoin:round;">
</g>
<g style="fill:#840000; fill-opacity:0.0; 
stroke:#840000; stroke-width:60; stroke-opacity:1; 
stroke-linecap:round; stroke-linejoin:round;">
<rect x="82100" y="35100" width="1800" height="200" rx="0" />
</g>
<g style="fill:#840000; fill-opacity:1.0; 
stroke:#840000; stroke-width:60; stroke-opacity:1; 
stroke-linecap:round; stroke-linejoin:round;">
<rect x="82100" y="35700" width="1800" height="200" rx="0" />
</g>
<g style="fill:#840000; fill-opacity:0.0; 
stroke:#840000; stroke-width:60; stroke-opacity:1; 
stroke-linecap:round; stroke-linejoin:round;">
<path style="fill:#840000; fill-opacity:0.0; 
stroke:#840000; stroke-width:60; stroke-opacity:1; 
stroke-linecap:round; stroke-linejoin:round;fill:none"
d="M 82300,34600
82700,34600
Z" /> 
<path style="fill:#840000; fill-opacity:0.0; 
stroke:#840000; stroke-width:60; stroke-opacity:1; 
stroke-linecap:round; stroke-linejoin:round;fill:none"
d="M 82500,34400
82500,34800
Z" /> 
<path d="M83000 35100
L83000 34000
" />
<path d="M83000 35900
L83000 37000
" />
</g>
<g style="fill:#008484; fill-opacity:0.0; 
stroke:#008484; stroke-width:60; stroke-opacity:1; 
stroke-linecap:round; stroke-linejoin:round;">
<path d="M84610 35230
L84590 35260
L84520 35280
L84470 35280
L84400 35260
L84350 35210
L84330 35160
L84300 35070
L84300 35000
L84330 34900
L84350 34850
L84400 34810
L84470 34780
L84520 34780
L84590 34810
L84610 34830
" />
<path d="M85040 34950
L85040 35280
" />
<path d="M84920 34760
L84800 35110
L85110 35110
" />
<path d="M84530 35860
L84530 36190
" />
<path d="M84410 35670
L84300 36020
L84610 36020
" />
<path d="M84750 35690
L85080 35690
L84870 36190
" />
<path d="M85370 35690
L85410 35690
L85460 35720
L85490 35740
L85510 35790
L85530 35880
L85530 36000
L85510 36100
L85490 36140
L85460 36170
L85410 36190
L85370 36190
L85320 36170
L85300 36140
L85270 36100
L85250 36000
L85250 35880
L85270 35790
L85300 35740
L85320 35720
L85370 35690
" />
<path d="M85960 35860
L85960 36190
" />
<path d="M85750 35860
L85750 36120
L85770 36170
L85820 36190
L85890 36190
L85940 36170
L85960 36140
" />
<path d="M86370 35930
L86200 35930
" />
<path d="M86200 36190
L86200 35690
L86440 35690
" />
</g>
</g>
<g style="fill:#008484; fill-opacity:0.0; 
stroke:#008484; stroke-width:0; stroke-opacity:1; 
stroke-linecap:round; stroke-linejoin:round;">
<g >
</g>
<g style="fill:#840000; fill-opacity:0.0; 
stroke:#840000; stroke-width:0; stroke-opacity:1; 
stroke-linecap:round; stroke-linejoin:round;">
</g>
<g style="fill:#840000; fill-opacity:0.0; 
stroke:#840000; stroke-width:100; stroke-opacity:1; 
stroke-linecap:round; stroke-linejoin:round;">
<rect x="40100" y="42000" width="800" height="2000" rx="0" />
</g>
<g style="fill:#840000; fill-opacity:0.0; 
stroke:#840000; stroke-width:60; stroke-opacity:1; 
stroke-linecap:round; stroke-linejoin:round;">
<path d="M40500 42000
L40500 41500
" />
<path d="M40500 44000
L40500 44500
" />
</g>
<g style="fill:#008484; fill-opacity:0.0; 
stroke:#008484; stroke-width:60; stroke-opacity:1; 
stroke-linecap:round; stroke-linejoin:round;">
<path d="M41630 42780
L41470 42540
" />
<path d="M41350 42780
L41350 42280
L41540 42280
L41580 42310
L41610 42330
L41630 42380
L41630 42450
L41610 42500
L41580 42520
L41540 42540
L41350 42540
" />
<path d="M42110 42780
L41820 42780
" />
<path d="M41970 42780
L41970 42280
L41920 42350
L41870 42400
L41820 42420
" />
<path d="M41600 43690
L41310 43690
" />
<path d="M41460 43690
L41460 43190
L41410 43260
L41360 43310
L41310 43330
" />
<path d="M41910 43190
L41960 43190
L42000 43220
L42030 43240
L42050 43290
L42080 43380
L42080 43500
L42050 43600
L42030 43640
L42000 43670
L41960 43690
L41910 43690
L41860 43670
L41840 43640
L41810 43600
L41790 43500
L41790 43380
L41810 43290
L41840 43240
L41860 43220
L41910 43190
" />
<path d="M42290 43690
L42290 43190
" />
<path d="M42580 43690
L42360 43410
" />
<path d="M42580 43190
L42290 43480
" />
</g>
</g>
<g style="fill:#008484; fill-opacity:0.0; 
stroke:#008484; stroke-width:0; stroke-opacity:1; 
stroke-linecap:round; stroke-linejoin:round;">
<g >
</g>
<g style="fill:#840000; fill-opacity:0.0; 
stroke:#840000; stroke-width:0; stroke-opacity:1; 
stroke-linecap:round; stroke-linejoin:round;">
</g>
<g style="fill:#FFFFC2; fill-opacity:0.0; 
stroke:#FFFFC2; stroke-width:0; stroke-opacity:1; 
stroke-linecap:round; stroke-linejoin:round;">
</g>
<g style="fill:#FFFFC2; fill-opacity:0.6; 
stroke:#FFFFC2; stroke-width:0; stroke-opacity:1; 
stroke-linecap:round; stroke-linejoin:round;">
<rect x="49500" y="30000" width="8000" height="4000" rx="0" />
</g>
<g style="fill:#840000; fill-opacity:0.6; 
stroke:#840000; stroke-width:0; stroke-opacity:1; 
stroke-linecap:round; stroke-linejoin:round;">
</g>
<g style="fill:#840000; fill-opacity:0.0; 
stroke:#840000; stroke-width:100; stroke-opacity:1; 
stroke-linecap:round; stroke-linejoin:round;">
<rect x="49500" y="30000" width="8000" height="4000" rx="0" />
</g>
<g style="fill:#840000; fill-opacity:0.0; 
stroke:#840000; stroke-width:60; stroke-opacity:1; 
stroke-linecap:round; stroke-linejoin:round;">
<path d="M49500 31000
L48500 31000
" />
</g>
<g style="fill:#008484; fill-opacity:0.0; 
stroke:#008484; stroke-width:60; stroke-opacity:1; 
stroke-linecap:round; stroke-linejoin:round;">
<path d="M49670 30720
L49840 31220
L50010 30720
" />
<path d="M50170 31220
L50170 30720
" />
<path d="M50410 31220
L50410 30720
L50700 31220
L50700 30720
" />
</g>
<g style="fill:#840000; fill-opacity:0.0; 
stroke:#840000; stroke-width:60; stroke-opacity:1; 
stroke-linecap:round; stroke-linejoin:round;">
<path d="M49140 30870
L48850 30870
" />
<path d="M49000 30870
L49000 30370
L48950 30440
L48900 30490
L48850 30510
" />
<path d="M57500 33000
L58500 33000
" />
</g>
<g style="fill:#008484; fill-opacity:0.0; 
stroke:#008484; stroke-width:60; stroke-opacity:1; 
stroke-linecap:round; stroke-linejoin:round;">
<path d="M56150 32720
L56250 32720
L56290 32750
L56340 32790
L56370 32890
L56370 33050
L56340 33150
L56290 33200
L56250 33220
L56150 33220
L56100 33200
L56060 33150
L56030 33050
L56030 32890
L56060 32790
L56100 32750
L56150 32720
" />
<path d="M56580 32720
L56580 33130
L56600 33170
L56630 33200
L56670 33220
L56770 33220
L56820 33200
L56840 33170
L56870 33130
L56870 32720
" />
<path d="M57030 32720
L57320 32720
" />
<path d="M57170 33220
L57170 32720
" />
</g>
<g style="fill:#840000; fill-opacity:0.0; 
stroke:#840000; stroke-width:60; stroke-opacity:1; 
stroke-linecap:round; stroke-linejoin:round;">
<path d="M57850 32420
L57880 32400
L57920 32370
L58040 32370
L58090 32400
L58110 32420
L58140 32470
L58140 32510
L58110 32590
L57830 32870
L58140 32870
" />
<path d="M53500 34000
L53500 35000
" />
</g>
<g style="fill:#008484; fill-opacity:0.0; 
stroke:#008484; stroke-width:60; stroke-opacity:1; 
stroke-linecap:round; stroke-linejoin:round;">
<path d="M53250 33480
L53220 33530
L53220 33600
L53250 33670
L53290 33720
L53340 33750
L53440 33770
L53510 33770
L53600 33750
L53650 33720
L53700 33670
L53720 33600
L53720 33560
L53700 33480
L53670 33460
L53510 33460
L53510 33560
" />
<path d="M53720 33250
L53220 33250
L53720 32960
L53220 32960
" />
<path d="M53720 32720
L53220 32720
L53220 32600
L53250 32530
L53290 32480
L53340 32460
L53440 32440
L53510 32440
L53600 32460
L53650 32480
L53700 32530
L53720 32600
L53720 32720
" />
</g>
<g style="fill:#840000; fill-opacity:0.0; 
stroke:#840000; stroke-width:60; stroke-opacity:1; 
stroke-linecap:round; stroke-linejoin:round;">
<path d="M52870 34660
L52870 34350
L53060 34520
L53060 34450
L53090 34400
L53110 34380
L53160 34350
L53280 34350
L53320 34380
L53350 34400
L53370 34450
L53370 34590
L53350 34640
L53320 34660
" />
<path d="M57500 31000
L58500 31000
" />
</g>
<g style="fill:#008484; fill-opacity:0.0; 
stroke:#008484; stroke-width:60; stroke-opacity:1; 
stroke-linecap:round; stroke-linejoin:round;">
<path d="M56720 30960
L56560 30960
" />
<path d="M56560 31220
L56560 30720
L56790 30720
" />
<path d="M57150 30960
L57220 30980
L57250 31010
L57270 31050
L57270 31130
L57250 31170
L57220 31200
L57170 31220
L56980 31220
L56980 30720
L57150 30720
L57200 30750
L57220 30770
L57250 30820
L57250 30860
L57220 30910
L57200 30940
L57150 30960
L56980 30960
" />
</g>
<g style="fill:#840000; fill-opacity:0.0; 
stroke:#840000; stroke-width:60; stroke-opacity:1; 
stroke-linecap:round; stroke-linejoin:round;">
<path d="M58090 30540
L58090 30870
" />
<path d="M57970 30350
L57850 30700
L58160 30700
" />
<path d="M49500 33000
L48500 33000
" />
</g>
<g style="fill:#008484; fill-opacity:0.0; 
stroke:#008484; stroke-width:60; stroke-opacity:1; 
stroke-linecap:round; stroke-linejoin:round;">
<path d="M49630 32580
L50150 32580
" />
<path d="M49840 32720
L49930 32720
L49980 32750
L50030 32790
L50050 32890
L50050 33050
L50030 33150
L49980 33200
L49930 33220
L49840 33220
L49790 33200
L49740 33150
L49720 33050
L49720 32890
L49740 32790
L49790 32750
L49840 32720
" />
<path d="M50150 32580
L50670 32580
" />
<path d="M50270 33220
L50270 32720
L50550 33220
L50550 32720
" />
<path d="M51150 32700
L50720 33340
" />
<path d="M51410 32720
L51510 32720
L51550 32750
L51600 32790
L51630 32890
L51630 33050
L51600 33150
L51550 33200
L51510 33220
L51410 33220
L51360 33200
L51320 33150
L51290 33050
L51290 32890
L51320 32790
L51360 32750
L51410 32720
" />
<path d="M52010 32960
L51840 32960
" />
<path d="M51840 33220
L51840 32720
L52080 32720
" />
<path d="M52430 32960
L52270 32960
" />
<path d="M52270 33220
L52270 32720
L52510 32720
" />
</g>
<g style="fill:#840000; fill-opacity:0.0; 
stroke:#840000; stroke-width:60; stroke-opacity:1; 
stroke-linecap:round; stroke-linejoin:round;">
<path d="M49110 32370
L48880 32370
L48850 32610
L48880 32590
L48920 32560
L49040 32560
L49090 32590
L49110 32610
L49140 32660
L49140 32780
L49110 32820
L49090 32850
L49040 32870
L48920 32870
L48880 32850
L48850 32820
" />
</g>
<g style="fill:#008484; fill-opacity:0.0; 
stroke:#008484; stroke-width:60; stroke-opacity:1; 
stroke-linecap:round; stroke-linejoin:round;">
<path d="M53110 28070
L53110 28480
L53140 28520
L53160 28550
L53210 28570
L53300 28570
L53350 28550
L53380 28520
L53400 28480
L53400 28070
" />
<path d="M53900 28570
L53610 28570
" />
<path d="M53760 28570
L53760 28070
L53710 28140
L53660 28190
L53610 28210
" />
<path d="M51070 29480
L50830 29480
L50830 28980
" />
<path d="M51230 29480
L51230 28980
L51400 29340
L51570 28980
L51570 29480
" />
<path d="M51780 29030
L51800 29010
L51850 28980
L51970 28980
L52020 29010
L52040 29030
L52070 29080
L52070 29120
L52040 29200
L51760 29480
L52070 29480
" />
<path d="M52520 28980
L52280 28980
L52260 29220
L52280 29200
L52330 29170
L52450 29170
L52500 29200
L52520 29220
L52540 29270
L52540 29390
L52520 29430
L52500 29460
L52450 29480
L52330 29480
L52280 29460
L52260 29430
" />
<path d="M52710 28980
L53040 28980
L52830 29480
" />
<path d="M53470 28980
L53230 28980
L53210 29220
L53230 29200
L53280 29170
L53400 29170
L53450 29200
L53470 29220
L53500 29270
L53500 29390
L53470 29430
L53450 29460
L53400 29480
L53280 29480
L53230 29460
L53210 29430
" />
<path d="M53710 29290
L54090 29290
" />
<path d="M54570 28980
L54330 28980
L54300 29220
L54330 29200
L54380 29170
L54500 29170
L54540 29200
L54570 29220
L54590 29270
L54590 29390
L54570 29430
L54540 29460
L54500 29480
L54380 29480
L54330 29460
L54300 29430
" />
<path d="M54800 29430
L54830 29460
L54800 29480
L54780 29460
L54800 29430
L54800 29480
" />
<path d="M55140 28980
L55190 28980
L55230 29010
L55260 29030
L55280 29080
L55300 29170
L55300 29290
L55280 29390
L55260 29430
L55230 29460
L55190 29480
L55140 29480
L55090 29460
L55070 29430
L55040 29390
L55020 29290
L55020 29170
L55040 29080
L55070 29030
L55090 29010
L55140 28980
" />
<path d="M55690 29220
L55760 29240
L55780 29270
L55800 29310
L55800 29390
L55780 29430
L55760 29460
L55710 29480
L55520 29480
L55520 28980
L55690 28980
L55730 29010
L55760 29030
L55780 29080
L55780 29120
L55760 29170
L55730 29200
L55690 29220
L55520 29220
" />
<path d="M55950 28980
L56230 28980
" />
<path d="M56090 29480
L56090 28980
" />
</g>
</g>
<g style="fill:#008484; fill-opacity:0.0; 
stroke:#008484; stroke-width:0; stroke-opacity:1; 
stroke-linecap:round; stroke-linejoin:round;">
<g >
</g>
<g style="fill:#840000; fill-opacity:0.0; 
stroke:#840000; stroke-width:0; stroke-opacity:1; 
stroke-linecap:round; stroke-linejoin:round;">
</g>
<g style="fill:#840000; fill-opacity:0.0; 
stroke:#840000; stroke-width:60; stroke-opacity:1; 
stroke-linecap:round; stroke-linejoin:round;">
<rect x="75500" y="29500" width="5000" height="3500" rx="0" />
<path d="M75500 31000
L73500 31000
" />
</g>
<g style="fill:#008484; fill-opacity:0.0; 
stroke:#008484; stroke-width:60; stroke-opacity:1; 
stroke-linecap:round; stroke-linejoin:round;">
<path d="M76040 31220
L76040 30720
" />
<path d="M76280 31220
L76280 30720
L76570 31220
L76570 30720
" />
</g>
<g style="fill:#840000; fill-opacity:0.0; 
stroke:#840000; stroke-width:60; stroke-opacity:1; 
stroke-linecap:round; stroke-linejoin:round;">
<path d="M74640 30870
L74350 30870
" />
<path d="M74500 30870
L74500 30370
L74450 30440
L74400 30490
L74350 30510
" />
<path d="M78000 33000
L78000 35000
" />
</g>
<g style="fill:#008484; fill-opacity:0.0; 
stroke:#008484; stroke-width:60; stroke-opacity:1; 
stroke-linecap:round; stroke-linejoin:round;">
<path d="M77750 32180
L77720 32230
L77720 32300
L77750 32370
L77790 32420
L77840 32450
L77940 32470
L78010 32470
L78100 32450
L78150 32420
L78200 32370
L78220 32300
L78220 32260
L78200 32180
L78170 32160
L78010 32160
L78010 32260
" />
<path d="M78220 31950
L77720 31950
L78220 31660
L77720 31660
" />
<path d="M78220 31420
L77720 31420
L77720 31300
L77750 31230
L77790 31180
L77840 31160
L77940 31140
L78010 31140
L78100 31160
L78150 31180
L78200 31230
L78220 31300
L78220 31420
" />
</g>
<g style="fill:#840000; fill-opacity:0.0; 
stroke:#840000; stroke-width:60; stroke-opacity:1; 
stroke-linecap:round; stroke-linejoin:round;">
<path d="M77420 34140
L77400 34110
L77370 34070
L77370 33950
L77400 33900
L77420 33880
L77470 33850
L77510 33850
L77590 33880
L77870 34160
L77870 33850
" />
<path d="M80500 31000
L82500 31000
" />
</g>
<g style="fill:#008484; fill-opacity:0.0; 
stroke:#008484; stroke-width:60; stroke-opacity:1; 
stroke-linecap:round; stroke-linejoin:round;">
<path d="M78850 30720
L78950 30720
L78990 30750
L79040 30790
L79070 30890
L79070 31050
L79040 31150
L78990 31200
L78950 31220
L78850 31220
L78800 31200
L78760 31150
L78730 31050
L78730 30890
L78760 30790
L78800 30750
L78850 30720
" />
<path d="M79280 30720
L79280 31130
L79300 31170
L79330 31200
L79370 31220
L79470 31220
L79520 31200
L79540 31170
L79570 31130
L79570 30720
" />
<path d="M79730 30720
L80020 30720
" />
<path d="M79870 31220
L79870 30720
" />
</g>
<g style="fill:#840000; fill-opacity:0.0; 
stroke:#840000; stroke-width:60; stroke-opacity:1; 
stroke-linecap:round; stroke-linejoin:round;">
<path d="M81330 30370
L81640 30370
L81470 30560
L81540 30560
L81590 30590
L81610 30610
L81640 30660
L81640 30780
L81610 30820
L81590 30850
L81540 30870
L81400 30870
L81350 30850
L81330 30820
" />
</g>
<g style="fill:#008484; fill-opacity:0.0; 
stroke:#008484; stroke-width:60; stroke-opacity:1; 
stroke-linecap:round; stroke-linejoin:round;">
<path d="M77610 27590
L77610 28000
L77640 28040
L77660 28070
L77710 28090
L77800 28090
L77850 28070
L77880 28040
L77900 28000
L77900 27590
" />
<path d="M78110 27640
L78140 27620
L78190 27590
L78300 27590
L78350 27620
L78380 27640
L78400 27690
L78400 27730
L78380 27810
L78090 28090
L78400 28090
" />
<path d="M76910 29000
L76670 29000
L76670 28500
" />
<path d="M77080 29000
L77080 28500
L77250 28860
L77410 28500
L77410 29000
" />
<path d="M77600 28500
L77910 28500
L77750 28690
L77820 28690
L77860 28720
L77890 28740
L77910 28790
L77910 28910
L77890 28950
L77860 28980
L77820 29000
L77670 29000
L77630 28980
L77600 28950
" />
<path d="M78150 29000
L78250 29000
L78290 28980
L78320 28950
L78360 28880
L78390 28790
L78390 28600
L78360 28550
L78340 28530
L78290 28500
L78200 28500
L78150 28530
L78130 28550
L78100 28600
L78100 28720
L78130 28760
L78150 28790
L78200 28810
L78290 28810
L78340 28790
L78360 28760
L78390 28720
" />
<path d="M78820 28670
L78820 29000
" />
<path d="M78700 28480
L78580 28830
L78890 28830
" />
<path d="M79170 28500
L79220 28500
L79270 28530
L79290 28550
L79320 28600
L79340 28690
L79340 28810
L79320 28910
L79290 28950
L79270 28980
L79220 29000
L79170 29000
L79130 28980
L79100 28950
L79080 28910
L79050 28810
L79050 28690
L79080 28600
L79100 28550
L79130 28530
L79170 28500
" />
</g>
</g>
<g style="fill:#008484; fill-opacity:0.0; 
stroke:#008484; stroke-width:0; stroke-opacity:1; 
stroke-linecap:round; stroke-linejoin:round;">
<g >
</g>
<g style="fill:#840000; fill-opacity:0.0; 
stroke:#840000; stroke-width:0; stroke-opacity:1; 
stroke-linecap:round; stroke-linejoin:round;">
</g>
<g style="fill:#840000; fill-opacity:0.0; 
stroke:#840000; stroke-width:100; stroke-opacity:1; 
stroke-linecap:round; stroke-linejoin:round;">
<rect x="47600" y="42000" width="800" height="2000" rx="0" />
</g>
<g style="fill:#840000; fill-opacity:0.0; 
stroke:#840000; stroke-width:60; stroke-opacity:1; 
stroke-linecap:round; stroke-linejoin:round;">
<path d="M48000 42000
L48000 41500
" />
<path d="M48000 44000
L48000 44500
" />
</g>
<g style="fill:#008484; fill-opacity:0.0; 
stroke:#008484; stroke-width:60; stroke-opacity:1; 
stroke-linecap:round; stroke-linejoin:round;">
<path d="M49120 42780
L48960 42540
" />
<path d="M48840 42780
L48840 42280
L49030 42280
L49080 42310
L49100 42330
L49120 42380
L49120 42450
L49100 42500
L49080 42520
L49030 42540
L48840 42540
" />
<path d="M49310 42330
L49340 42310
L49390 42280
L49500 42280
L49550 42310
L49580 42330
L49600 42380
L49600 42420
L49580 42500
L49290 42780
L49600 42780
" />
<path d="M49770 42280
L50100 42280
L49890 42780
" />
<path d="M49080 43190
L48840 43190
L48810 43430
L48840 43410
L48890 43380
L49000 43380
L49050 43410
L49080 43430
L49100 43480
L49100 43600
L49080 43640
L49050 43670
L49000 43690
L48890 43690
L48840 43670
L48810 43640
" />
<path d="M49580 43690
L49290 43690
" />
<path d="M49430 43690
L49430 43190
L49390 43260
L49340 43310
L49290 43330
" />
<path d="M49790 43690
L49790 43190
" />
<path d="M50080 43690
L49860 43410
" />
<path d="M50080 43190
L49790 43480
" />
</g>
</g>
<g style="fill:#008484; fill-opacity:0.0; 
stroke:#008484; stroke-width:0; stroke-opacity:1; 
stroke-linecap:round; stroke-linejoin:round;">
<g >
</g>
<g style="fill:#840000; fill-opacity:0.0; 
stroke:#840000; stroke-width:0; stroke-opacity:1; 
stroke-linecap:round; stroke-linejoin:round;">
</g>
<g style="fill:#840000; fill-opacity:0.0; 
stroke:#840000; stroke-width:60; stroke-opacity:1; 
stroke-linecap:round; stroke-linejoin:round;">
<rect x="37600" y="34100" width="1800" height="200" rx="0" />
</g>
<g style="fill:#840000; fill-opacity:1.0; 
stroke:#840000; stroke-width:60; stroke-opacity:1; 
stroke-linecap:round; stroke-linejoin:round;">
<rect x="37600" y="34700" width="1800" height="200" rx="0" />
</g>
<g style="fill:#840000; fill-opacity:0.0; 
stroke:#840000; stroke-width:60; stroke-opacity:1; 
stroke-linecap:round; stroke-linejoin:round;">
<path style="fill:#840000; fill-opacity:0.0; 
stroke:#840000; stroke-width:60; stroke-opacity:1; 
stroke-linecap:round; stroke-linejoin:round;fill:none"
d="M 37800,33600
38200,33600
Z" /> 
<path style="fill:#840000; fill-opacity:0.0; 
stroke:#840000; stroke-width:60; stroke-opacity:1; 
stroke-linecap:round; stroke-linejoin:round;fill:none"
d="M 38000,33400
38000,33800
Z" /> 
<path d="M38500 34100
L38500 33000
" />
<path d="M38500 34900
L38500 36000
" />
</g>
<g style="fill:#008484; fill-opacity:0.0; 
stroke:#008484; stroke-width:60; stroke-opacity:1; 
stroke-linecap:round; stroke-linejoin:round;">
<path d="M40110 34230
L40090 34260
L40020 34280
L39970 34280
L39900 34260
L39850 34210
L39830 34160
L39800 34070
L39800 34000
L39830 33900
L39850 33850
L39900 33810
L39970 33780
L40020 33780
L40090 33810
L40110 33830
" />
<path d="M40590 34280
L40300 34280
" />
<path d="M40450 34280
L40450 33780
L40400 33850
L40350 33900
L40300 33920
" />
<path d="M40080 35190
L39800 35190
" />
<path d="M39940 35190
L39940 34690
L39890 34760
L39840 34810
L39800 34830
" />
<path d="M40390 34690
L40440 34690
L40490 34720
L40510 34740
L40530 34790
L40560 34880
L40560 35000
L40530 35100
L40510 35140
L40490 35170
L40440 35190
L40390 35190
L40340 35170
L40320 35140
L40300 35100
L40270 35000
L40270 34880
L40300 34790
L40320 34740
L40340 34720
L40390 34690
" />
<path d="M40870 34690
L40910 34690
L40960 34720
L40990 34740
L41010 34790
L41030 34880
L41030 35000
L41010 35100
L40990 35140
L40960 35170
L40910 35190
L40870 35190
L40820 35170
L40800 35140
L40770 35100
L40750 35000
L40750 34880
L40770 34790
L40800 34740
L40820 34720
L40870 34690
" />
<path d="M41460 34860
L41460 35190
" />
<path d="M41250 34860
L41250 35120
L41270 35170
L41320 35190
L41390 35190
L41440 35170
L41460 35140
" />
<path d="M41870 34930
L41700 34930
" />
<path d="M41700 35190
L41700 34690
L41940 34690
" />
</g>
</g>
<g style="fill:#008484; fill-opacity:0.0; 
stroke:#008484; stroke-width:0; stroke-opacity:1; 
stroke-linecap:round; stroke-linejoin:round;">
<g >
</g>
<g style="fill:#840000; fill-opacity:0.0; 
stroke:#840000; stroke-width:0; stroke-opacity:1; 
stroke-linecap:round; stroke-linejoin:round;">
</g>
<g style="fill:#840000; fill-opacity:0.0; 
stroke:#840000; stroke-width:60; stroke-opacity:1; 
stroke-linecap:round; stroke-linejoin:round;">
<path d="M63000 32999.1 A500 500 0.0 0 0 62000 32999.1 " />
<path d="M64000 32999.1 A500 500 0.0 0 0 63000 32999.1 " />
<path d="M65000 32999.1 A500 500 0.0 0 0 64000 32999.1 " />
<path d="M66000 32999.1 A500 500 0.0 0 0 65000 32999.1 " />
<path d="M62000 33000
L61500 33000
" />
</g>
<g style="fill:#008484; fill-opacity:0.0; 
stroke:#008484; stroke-width:60; stroke-opacity:1; 
stroke-linecap:round; stroke-linejoin:round;">
</g>
<g style="fill:#008484; fill-opacity:0.0; 
stroke:#008484; stroke-width:50; stroke-opacity:1; 
stroke-linecap:round; stroke-linejoin:round;">
<path d="M61830 32890
L61660 32890
" />
<path d="M61750 32890
L61750 32590
L61720 32630
L61690 32660
L61660 32680
" />
</g>
<g style="fill:#008484; fill-opacity:0.0; 
stroke:#008484; stroke-width:60; stroke-opacity:1; 
stroke-linecap:round; stroke-linejoin:round;">
</g>
<g style="fill:#840000; fill-opacity:0.0; 
stroke:#840000; stroke-width:60; stroke-opacity:1; 
stroke-linecap:round; stroke-linejoin:round;">
<path d="M66000 33000
L66500 33000
" />
</g>
<g style="fill:#008484; fill-opacity:0.0; 
stroke:#008484; stroke-width:60; stroke-opacity:1; 
stroke-linecap:round; stroke-linejoin:round;">
</g>
<g style="fill:#008484; fill-opacity:0.0; 
stroke:#008484; stroke-width:50; stroke-opacity:1; 
stroke-linecap:round; stroke-linejoin:round;">
<path d="M66160 32620
L66170 32610
L66200 32590
L66270 32590
L66300 32610
L66320 32620
L66330 32650
L66330 32680
L66320 32720
L66150 32890
L66330 32890
" />
</g>
<g style="fill:#008484; fill-opacity:0.0; 
stroke:#008484; stroke-width:60; stroke-opacity:1; 
stroke-linecap:round; stroke-linejoin:round;">
<path d="M63910 31090
L63670 31090
L63670 30590
" />
<path d="M64340 31090
L64050 31090
" />
<path d="M64200 31090
L64200 30590
L64150 30660
L64100 30710
L64050 30730
" />
<path d="M62860 31500
L63170 31500
L63010 31690
L63080 31690
L63130 31720
L63150 31740
L63170 31790
L63170 31910
L63150 31950
L63130 31980
L63080 32000
L62940 32000
L62890 31980
L62860 31950
" />
<path d="M63340 31500
L63650 31500
L63480 31690
L63550 31690
L63600 31720
L63630 31740
L63650 31790
L63650 31910
L63630 31950
L63600 31980
L63550 32000
L63410 32000
L63360 31980
L63340 31950
" />
<path d="M63960 31500
L64010 31500
L64050 31530
L64080 31550
L64100 31600
L64130 31690
L64130 31810
L64100 31910
L64080 31950
L64050 31980
L64010 32000
L63960 32000
L63910 31980
L63890 31950
L63860 31910
L63840 31810
L63840 31690
L63860 31600
L63890 31550
L63910 31530
L63960 31500
" />
<path d="M64550 31670
L64550 32000
" />
<path d="M64340 31670
L64340 31930
L64360 31980
L64410 32000
L64480 32000
L64530 31980
L64550 31950
" />
<path d="M64790 32000
L64790 31500
" />
<path d="M64790 31740
L65080 31740
" />
<path d="M65080 32000
L65080 31500
" />
</g>
</g>
<g style="fill:#008484; fill-opacity:0.0; 
stroke:#008484; stroke-width:0; stroke-opacity:1; 
stroke-linecap:round; stroke-linejoin:round;">
<g >
</g>
<g style="fill:#840000; fill-opacity:0.0; 
stroke:#840000; stroke-width:0; stroke-opacity:1; 
stroke-linecap:round; stroke-linejoin:round;">
</g>
<g style="fill:#840000; fill-opacity:0.0; 
stroke:#840000; stroke-width:60; stroke-opacity:1; 
stroke-linecap:round; stroke-linejoin:round;">
<rect x="67600" y="35100" width="1800" height="200" rx="0" />
</g>
<g style="fill:#840000; fill-opacity:1.0; 
stroke:#840000; stroke-width:60; stroke-opacity:1; 
stroke-linecap:round; stroke-linejoin:round;">
<rect x="67600" y="35700" width="1800" height="200" rx="0" />
</g>
<g style="fill:#840000; fill-opacity:0.0; 
stroke:#840000; stroke-width:60; stroke-opacity:1; 
stroke-linecap:round; stroke-linejoin:round;">
<path style="fill:#840000; fill-opacity:0.0; 
stroke:#840000; stroke-width:60; stroke-opacity:1; 
stroke-linecap:round; stroke-linejoin:round;fill:none"
d="M 67800,34600
68200,34600
Z" /> 
<path style="fill:#840000; fill-opacity:0.0; 
stroke:#840000; stroke-width:60; stroke-opacity:1; 
stroke-linecap:round; stroke-linejoin:round;fill:none"
d="M 68000,34400
68000,34800
Z" /> 
<path d="M68500 35100
L68500 34000
" />
<path d="M68500 35900
L68500 37000
" />
</g>
<g style="fill:#008484; fill-opacity:0.0; 
stroke:#008484; stroke-width:60; stroke-opacity:1; 
stroke-linecap:round; stroke-linejoin:round;">
<path d="M70110 35230
L70090 35260
L70020 35280
L69970 35280
L69900 35260
L69850 35210
L69830 35160
L69800 35070
L69800 35000
L69830 34900
L69850 34850
L69900 34810
L69970 34780
L70020 34780
L70090 34810
L70110 34830
" />
<path d="M70300 34830
L70330 34810
L70370 34780
L70490 34780
L70540 34810
L70560 34830
L70590 34880
L70590 34920
L70560 35000
L70280 35280
L70590 35280
" />
<path d="M70030 35860
L70030 36190
" />
<path d="M69910 35670
L69800 36020
L70110 36020
" />
<path d="M70250 35690
L70580 35690
L70370 36190
" />
<path d="M70870 35690
L70910 35690
L70960 35720
L70990 35740
L71010 35790
L71030 35880
L71030 36000
L71010 36100
L70990 36140
L70960 36170
L70910 36190
L70870 36190
L70820 36170
L70800 36140
L70770 36100
L70750 36000
L70750 35880
L70770 35790
L70800 35740
L70820 35720
L70870 35690
" />
<path d="M71460 35860
L71460 36190
" />
<path d="M71250 35860
L71250 36120
L71270 36170
L71320 36190
L71390 36190
L71440 36170
L71460 36140
" />
<path d="M71870 35930
L71700 35930
" />
<path d="M71700 36190
L71700 35690
L71940 35690
" />
</g>
</g>
<g style="fill:#008484; fill-opacity:0.0; 
stroke:#008484; stroke-width:60; stroke-opacity:1; 
stroke-linecap:round; stroke-linejoin:round;">
</g>
<g style="fill:#008400; fill-opacity:0.0; 
stroke:#008400; stroke-width:60; stroke-opacity:1; 
stroke-linecap:round; stroke-linejoin:round;">
<path d="M44500 37000
L48000 37000
" />
<path d="M44500 37000
L44500 38000
" />
<path d="M44500 42000
L44500 46000
" />
<path d="M38500 36000
L38500 46000
" />
<path d="M44500 36000
L44500 37000
" />
<path d="M48000 46000
L53500 46000
" />
<path d="M44500 46000
L48000 46000
" />
<path d="M53500 46000
L53500 39000
" />
<path d="M60000 39000
L53500 39000
" />
<path d="M53500 39000
L53500 35000
" />
<path d="M53500 46000
L53500 46500
" />
<path d="M83000 27500
L83000 31000
" />
<path d="M71000 27500
L71000 31000
" />
<path d="M71000 31000
L68500 31000
" />
<path d="M34500 40000
L40500 40000
" />
<path d="M34500 31000
L38500 31000
" />
<path d="M34000 37000
L44500 37000
" />
<path d="M48000 33000
L48000 37000
" />
<path d="M68500 39000
L78000 39000
" />
<path d="M71000 31000
L73500 31000
" />
<path d="M78000 35000
L78000 39000
" />
<path d="M48000 41500
L48000 37000
" />
<path d="M48000 44500
L48000 46000
" />
<path d="M40500 46000
L44500 46000
" />
<path d="M58500 33000
L60000 33000
" />
<path d="M60000 34500
L60000 33000
" />
<path d="M60000 33000
L61500 33000
" />
<path d="M66500 33000
L68500 33000
" />
<path d="M68500 33000
L68500 34000
" />
<path d="M60000 37500
L60000 39000
" />
<path d="M68500 37000
L68500 39000
" />
<path d="M68500 39000
L60000 39000
" />
<path d="M58500 31000
L68500 31000
" />
<path d="M68500 31000
L68500 33000
" />
<path d="M83000 34000
L83000 31000
" />
<path d="M83000 31000
L82500 31000
" />
<path d="M83000 37000
L83000 39000
" />
<path d="M83000 39000
L78000 39000
" />
<path d="M38500 33000
L38500 31000
" />
<path d="M38500 46000
L40500 46000
" />
<path d="M44500 31000
L48500 31000
" />
<path d="M48000 33000
L48500 33000
" />
<path d="M40500 41500
L40500 40000
" />
<path d="M40500 40000
L41500 40000
" />
<path d="M40500 44500
L40500 46000
" />
<path d="M44500 33000
L44500 31000
" />
<path d="M38500 31000
L44500 31000
" />
</g>
<g style="fill:#848400; fill-opacity:0.0; 
stroke:#848400; stroke-width:60; stroke-opacity:1; 
stroke-linecap:round; stroke-linejoin:round;">
<path d="M32870 31220
L32580 31220
" />
<path d="M32720 31220
L32720 30720
L32670 30790
L32630 30840
L32580 30860
" />
<path d="M33060 30770
L33080 30750
L33130 30720
L33250 30720
L33290 30750
L33320 30770
L33340 30820
L33340 30860
L33320 30940
L33030 31220
L33340 31220
" />
<path d="M33480 30720
L33650 31220
L33820 30720
" />
</g>
<g style="fill:#848400; fill-opacity:0.0; 
stroke:#848400; stroke-width:100; stroke-opacity:1; 
stroke-linecap:round; stroke-linejoin:round;">
<path style="fill:#848400; fill-opacity:0.0; 
stroke:#848400; stroke-width:100; stroke-opacity:1; 
stroke-linecap:round; stroke-linejoin:round;fill:none"
d="M 34500,31000
34250,30750
34000,30750
34000,31250
34250,31250
34500,31000
Z" /> 
</g>
<g style="fill:#848400; fill-opacity:0.0; 
stroke:#848400; stroke-width:60; stroke-opacity:1; 
stroke-linecap:round; stroke-linejoin:round;">
<path d="M31510 40220
L31510 39720
" />
<path d="M31510 39960
L31790 39960
" />
<path d="M31790 40220
L31790 39720
" />
<path d="M32030 39720
L32030 40130
L32060 40170
L32080 40200
L32130 40220
L32220 40220
L32270 40200
L32290 40170
L32320 40130
L32320 39720
" />
<path d="M32440 40270
L32820 40270
" />
<path d="M33030 39720
L33130 39720
L33170 39750
L33220 39790
L33250 39890
L33250 40050
L33220 40150
L33170 40200
L33130 40220
L33030 40220
L32980 40200
L32940 40150
L32910 40050
L32910 39890
L32940 39790
L32980 39750
L33030 39720
" />
<path d="M33460 40220
L33460 39720
L33750 40220
L33750 39720
" />
</g>
<g style="fill:#848400; fill-opacity:0.0; 
stroke:#848400; stroke-width:100; stroke-opacity:1; 
stroke-linecap:round; stroke-linejoin:round;">
<path style="fill:#848400; fill-opacity:0.0; 
stroke:#848400; stroke-width:100; stroke-opacity:1; 
stroke-linecap:round; stroke-linejoin:round;fill:none"
d="M 34500,40000
34250,39750
34000,39750
34000,40250
34250,40250
34500,40000
Z" /> 
</g>
<g style="fill:#848400; fill-opacity:0.0; 
stroke:#848400; stroke-width:60; stroke-opacity:1; 
stroke-linecap:round; stroke-linejoin:round;">
<path d="M70720 26510
L70720 26750
L70960 26770
L70940 26750
L70910 26700
L70910 26580
L70940 26530
L70960 26510
L71010 26480
L71130 26480
L71170 26510
L71200 26530
L71220 26580
L71220 26700
L71200 26750
L71170 26770
" />
<path d="M70720 26340
L71220 26170
L70720 26010
" />
</g>
<g style="fill:#848400; fill-opacity:0.0; 
stroke:#848400; stroke-width:100; stroke-opacity:1; 
stroke-linecap:round; stroke-linejoin:round;">
<path style="fill:#848400; fill-opacity:0.0; 
stroke:#848400; stroke-width:100; stroke-opacity:1; 
stroke-linecap:round; stroke-linejoin:round;fill:none"
d="M 71000,27000
71250,27250
71250,27500
70750,27500
70750,27250
71000,27000
Z" /> 
</g>
<g style="fill:#848400; fill-opacity:0.0; 
stroke:#848400; stroke-width:60; stroke-opacity:1; 
stroke-linecap:round; stroke-linejoin:round;">
<path d="M82720 26790
L82720 26480
L82910 26650
L82910 26580
L82940 26530
L82960 26510
L83010 26480
L83130 26480
L83170 26510
L83200 26530
L83220 26580
L83220 26720
L83200 26770
L83170 26790
" />
<path d="M82720 26340
L83220 26170
L82720 26010
" />
<path d="M82720 25890
L82720 25580
L82910 25750
L82910 25670
L82940 25630
L82960 25600
L83010 25580
L83130 25580
L83170 25600
L83200 25630
L83220 25670
L83220 25820
L83200 25870
L83170 25890
" />
</g>
<g style="fill:#848400; fill-opacity:0.0; 
stroke:#848400; stroke-width:100; stroke-opacity:1; 
stroke-linecap:round; stroke-linejoin:round;">
<path style="fill:#848400; fill-opacity:0.0; 
stroke:#848400; stroke-width:100; stroke-opacity:1; 
stroke-linecap:round; stroke-linejoin:round;fill:none"
d="M 83000,27000
83250,27250
83250,27500
82750,27500
82750,27250
83000,27000
Z" /> 
</g>
<g style="fill:#848400; fill-opacity:0.0; 
stroke:#848400; stroke-width:60; stroke-opacity:1; 
stroke-linecap:round; stroke-linejoin:round;">
<path d="M53250 48270
L53220 48320
L53220 48390
L53250 48460
L53290 48510
L53340 48530
L53440 48550
L53510 48550
L53600 48530
L53650 48510
L53700 48460
L53720 48390
L53720 48340
L53700 48270
L53670 48240
L53510 48240
L53510 48340
" />
<path d="M53720 48030
L53220 48030
L53720 47740
L53220 47740
" />
<path d="M53720 47510
L53220 47510
L53220 47390
L53250 47320
L53290 47270
L53340 47240
L53440 47220
L53510 47220
L53600 47240
L53650 47270
L53700 47320
L53720 47390
L53720 47510
" />
</g>
<g style="fill:#848400; fill-opacity:0.0; 
stroke:#848400; stroke-width:100; stroke-opacity:1; 
stroke-linecap:round; stroke-linejoin:round;">
<path style="fill:#848400; fill-opacity:0.0; 
stroke:#848400; stroke-width:100; stroke-opacity:1; 
stroke-linecap:round; stroke-linejoin:round;fill:none"
d="M 53500,46500
53750,46750
53750,47000
53250,47000
53250,46750
53500,46500
Z" /> 
</g>
<g style="fill:#848400; fill-opacity:0.0; 
stroke:#848400; stroke-width:60; stroke-opacity:1; 
stroke-linecap:round; stroke-linejoin:round;">
</g>
<g style="fill:#840000; fill-opacity:0.0; 
stroke:#840000; stroke-width:60; stroke-opacity:1; 
stroke-linecap:round; stroke-linejoin:round;">
<path d="M30980 37220
L30980 36720
L31170 36720
L31220 36750
L31250 36770
L31270 36820
L31270 36890
L31250 36940
L31220 36960
L31170 36980
L30980 36980
" />
<path d="M31440 36720
L31560 37220
L31650 36860
L31750 37220
L31870 36720
" />
<path d="M32340 37220
L32170 36980
" />
<path d="M32060 37220
L32060 36720
L32250 36720
L32290 36750
L32320 36770
L32340 36820
L32340 36890
L32320 36940
L32290 36960
L32250 36980
L32060 36980
" />
<path d="M32440 37270
L32820 37270
" />
<path d="M33030 36720
L33130 36720
L33170 36750
L33220 36790
L33250 36890
L33250 37050
L33220 37150
L33170 37200
L33130 37220
L33030 37220
L32980 37200
L32940 37150
L32910 37050
L32910 36890
L32940 36790
L32980 36750
L33030 36720
" />
<path d="M33460 37220
L33460 36720
L33750 37220
L33750 36720
" />
</g>
<g style="fill:#840000; fill-opacity:0.0; 
stroke:#840000; stroke-width:100; stroke-opacity:1; 
stroke-linecap:round; stroke-linejoin:round;">
<path style="fill:#840000; fill-opacity:0.0; 
stroke:#840000; stroke-width:100; stroke-opacity:1; 
stroke-linecap:round; stroke-linejoin:round;fill:none"
d="M 34000,37000
34000,36560
30770,36560
30520,37000
30770,37440
34000,37440
34000,37000
Z" /> 
</g>
<g style="fill:#840000; fill-opacity:0.0; 
stroke:#840000; stroke-width:0; stroke-opacity:1; 
stroke-linecap:round; stroke-linejoin:round;">
</g>
<g style="fill:#008400; fill-opacity:0.0; 
stroke:#008400; stroke-width:0; stroke-opacity:1; 
stroke-linecap:round; stroke-linejoin:round;">
</g>
<g style="fill:#008400; fill-opacity:1.0; 
stroke:#008400; stroke-width:100; stroke-opacity:1; 
stroke-linecap:round; stroke-linejoin:round;">
<circle cx="48000" cy="37000" r="200" /> 
</g>
<g style="fill:#008400; fill-opacity:1.0; 
stroke:#008400; stroke-width:0; stroke-opacity:1; 
stroke-linecap:round; stroke-linejoin:round;">
</g>
<g style="fill:#008400; fill-opacity:1.0; 
stroke:#008400; stroke-width:100; stroke-opacity:1; 
stroke-linecap:round; stroke-linejoin:round;">
<circle cx="60000" cy="33000" r="200" /> 
</g>
<g style="fill:#008400; fill-opacity:1.0; 
stroke:#008400; stroke-width:0; stroke-opacity:1; 
stroke-linecap:round; stroke-linejoin:round;">
</g>
<g style="fill:#008400; fill-opacity:1.0; 
stroke:#008400; stroke-width:100; stroke-opacity:1; 
stroke-linecap:round; stroke-linejoin:round;">
<circle cx="44500" cy="37000" r="200" /> 
</g>
<g style="fill:#008400; fill-opacity:1.0; 
stroke:#008400; stroke-width:0; stroke-opacity:1; 
stroke-linecap:round; stroke-linejoin:round;">
</g>
<g style="fill:#008400; fill-opacity:1.0; 
stroke:#008400; stroke-width:100; stroke-opacity:1; 
stroke-linecap:round; stroke-linejoin:round;">
<circle cx="71000" cy="31000" r="200" /> 
</g>
<g style="fill:#008400; fill-opacity:1.0; 
stroke:#008400; stroke-width:0; stroke-opacity:1; 
stroke-linecap:round; stroke-linejoin:round;">
</g>
<g style="fill:#008400; fill-opacity:1.0; 
stroke:#008400; stroke-width:100; stroke-opacity:1; 
stroke-linecap:round; stroke-linejoin:round;">
<circle cx="40500" cy="46000" r="200" /> 
</g>
<g style="fill:#008400; fill-opacity:1.0; 
stroke:#008400; stroke-width:0; stroke-opacity:1; 
stroke-linecap:round; stroke-linejoin:round;">
</g>
<g style="fill:#008400; fill-opacity:1.0; 
stroke:#008400; stroke-width:100; stroke-opacity:1; 
stroke-linecap:round; stroke-linejoin:round;">
<circle cx="48000" cy="46000" r="200" /> 
</g>
<g style="fill:#008400; fill-opacity:1.0; 
stroke:#008400; stroke-width:0; stroke-opacity:1; 
stroke-linecap:round; stroke-linejoin:round;">
</g>
<g style="fill:#008400; fill-opacity:1.0; 
stroke:#008400; stroke-width:100; stroke-opacity:1; 
stroke-linecap:round; stroke-linejoin:round;">
<circle cx="68500" cy="31000" r="200" /> 
</g>
<g style="fill:#008400; fill-opacity:1.0; 
stroke:#008400; stroke-width:0; stroke-opacity:1; 
stroke-linecap:round; stroke-linejoin:round;">
</g>
<g style="fill:#008400; fill-opacity:1.0; 
stroke:#008400; stroke-width:100; stroke-opacity:1; 
stroke-linecap:round; stroke-linejoin:round;">
<circle cx="44500" cy="46000" r="200" /> 
</g>
<g style="fill:#008400; fill-opacity:1.0; 
stroke:#008400; stroke-width:0; stroke-opacity:1; 
stroke-linecap:round; stroke-linejoin:round;">
</g>
<g style="fill:#008400; fill-opacity:1.0; 
stroke:#008400; stroke-width:100; stroke-opacity:1; 
stroke-linecap:round; stroke-linejoin:round;">
<circle cx="44500" cy="31000" r="200" /> 
</g>
<g style="fill:#008400; fill-opacity:1.0; 
stroke:#008400; stroke-width:0; stroke-opacity:1; 
stroke-linecap:round; stroke-linejoin:round;">
</g>
<g style="fill:#008400; fill-opacity:1.0; 
stroke:#008400; stroke-width:100; stroke-opacity:1; 
stroke-linecap:round; stroke-linejoin:round;">
<circle cx="68500" cy="33000" r="200" /> 
</g>
<g style="fill:#008400; fill-opacity:1.0; 
stroke:#008400; stroke-width:0; stroke-opacity:1; 
stroke-linecap:round; stroke-linejoin:round;">
</g>
<g style="fill:#008400; fill-opacity:1.0; 
stroke:#008400; stroke-width:100; stroke-opacity:1; 
stroke-linecap:round; stroke-linejoin:round;">
<circle cx="53500" cy="46000" r="200" /> 
</g>
<g style="fill:#008400; fill-opacity:1.0; 
stroke:#008400; stroke-width:0; stroke-opacity:1; 
stroke-linecap:round; stroke-linejoin:round;">
</g>
<g style="fill:#008400; fill-opacity:1.0; 
stroke:#008400; stroke-width:100; stroke-opacity:1; 
stroke-linecap:round; stroke-linejoin:round;">
<circle cx="68500" cy="39000" r="200" /> 
</g>
<g style="fill:#008400; fill-opacity:1.0; 
stroke:#008400; stroke-width:0; stroke-opacity:1; 
stroke-linecap:round; stroke-linejoin:round;">
</g>
<g style="fill:#008400; fill-opacity:1.0; 
stroke:#008400; stroke-width:100; stroke-opacity:1; 
stroke-linecap:round; stroke-linejoin:round;">
<circle cx="60000" cy="39000" r="200" /> 
</g>
<g style="fill:#008400; fill-opacity:1.0; 
stroke:#008400; stroke-width:0; stroke-opacity:1; 
stroke-linecap:round; stroke-linejoin:round;">
</g>
<g style="fill:#008400; fill-opacity:1.0; 
stroke:#008400; stroke-width:100; stroke-opacity:1; 
stroke-linecap:round; stroke-linejoin:round;">
<circle cx="38500" cy="31000" r="200" /> 
</g>
<g style="fill:#008400; fill-opacity:1.0; 
stroke:#008400; stroke-width:0; stroke-opacity:1; 
stroke-linecap:round; stroke-linejoin:round;">
</g>
<g style="fill:#008400; fill-opacity:1.0; 
stroke:#008400; stroke-width:100; stroke-opacity:1; 
stroke-linecap:round; stroke-linejoin:round;">
<circle cx="53500" cy="39000" r="200" /> 
</g>
<g style="fill:#008400; fill-opacity:1.0; 
stroke:#008400; stroke-width:0; stroke-opacity:1; 
stroke-linecap:round; stroke-linejoin:round;">
</g>
<g style="fill:#008400; fill-opacity:1.0; 
stroke:#008400; stroke-width:100; stroke-opacity:1; 
stroke-linecap:round; stroke-linejoin:round;">
<circle cx="40500" cy="40000" r="200" /> 
</g>
<g style="fill:#008400; fill-opacity:1.0; 
stroke:#008400; stroke-width:0; stroke-opacity:1; 
stroke-linecap:round; stroke-linejoin:round;">
</g>
<g style="fill:#008400; fill-opacity:1.0; 
stroke:#008400; stroke-width:100; stroke-opacity:1; 
stroke-linecap:round; stroke-linejoin:round;">
<circle cx="78000" cy="39000" r="200" /> 
</g>
<g style="fill:#008400; fill-opacity:1.0; 
stroke:#008400; stroke-width:0; stroke-opacity:1; 
stroke-linecap:round; stroke-linejoin:round;">
</g>
<g style="fill:#008400; fill-opacity:1.0; 
stroke:#008400; stroke-width:100; stroke-opacity:1; 
stroke-linecap:round; stroke-linejoin:round;">
<circle cx="83000" cy="31000" r="200" /> 
</g> 
</svg>
