<?xml version="1.0" standalone="no"?>
 <!DOCTYPE svg PUBLIC "-//W3C//DTD SVG 1.1//EN" 
 "http://www.w3.org/Graphics/SVG/1.1/DTD/svg11.dtd"> 
<svg xmlns="http://www.w3.org/2000/svg" version="1.1" 
    width="29.7002cm" height="21.0007cm" viewBox="0 0 116930 82680 ">
<title>SVG Picture created as SPDIFOutput_buffered-I2SToSPDIF-SPDIFOutput_buffered.svg date 2020/08/25 10:30:52 </title>
  <desc>Picture generated by Eeschema-SVG </desc>
<g style="fill:#000000; fill-opacity:1;stroke:#000000; stroke-opacity:1;
stroke-linecap:round; stroke-linejoin:round; "
 transform="translate(0 0) scale(1 1)">
</g>
<g style="fill:#000000; fill-opacity:0.0; 
stroke:#000000; stroke-width:-10; stroke-opacity:1; 
stroke-linecap:round; stroke-linejoin:round;">
</g>
<g style="fill:#840000; fill-opacity:0.0; 
stroke:#840000; stroke-width:-10; stroke-opacity:1; 
stroke-linecap:round; stroke-linejoin:round;">
</g>
<g style="fill:#840000; fill-opacity:0.0; 
stroke:#840000; stroke-width:100; stroke-opacity:1; 
stroke-linecap:round; stroke-linejoin:round;">
</g>
<g style="fill:#840000; fill-opacity:0.0; 
stroke:#840000; stroke-width:60; stroke-opacity:1; 
stroke-linecap:round; stroke-linejoin:round;">
<rect x="69690" y="65360" width="42520" height="12600" rx="0" />
</g>
<g style="fill:#840000; fill-opacity:0.0; 
stroke:#840000; stroke-width:100; stroke-opacity:1; 
stroke-linecap:round; stroke-linejoin:round;">
</g>
<g style="fill:#840000; fill-opacity:0.0; 
stroke:#840000; stroke-width:60; stroke-opacity:1; 
stroke-linecap:round; stroke-linejoin:round;">
<rect x="3940" y="3940" width="109050" height="74800" rx="0" />
</g>
<g style="fill:#840000; fill-opacity:0.0; 
stroke:#840000; stroke-width:100; stroke-opacity:1; 
stroke-linecap:round; stroke-linejoin:round;">
</g>
<g style="fill:#840000; fill-opacity:0.0; 
stroke:#840000; stroke-width:60; stroke-opacity:1; 
stroke-linecap:round; stroke-linejoin:round;">
<rect x="4720" y="4720" width="107490" height="73240" rx="0" />
</g>
<g style="fill:#840000; fill-opacity:0.0; 
stroke:#840000; stroke-width:100; stroke-opacity:1; 
stroke-linecap:round; stroke-linejoin:round;">
</g>
<g style="fill:#840000; fill-opacity:0.0; 
stroke:#840000; stroke-width:60; stroke-opacity:1; 
stroke-linecap:round; stroke-linejoin:round;">
<path d="M23620 4720
L23620 3940
" />
</g>
<g style="fill:#840000; fill-opacity:0.0; 
stroke:#840000; stroke-width:100; stroke-opacity:1; 
stroke-linecap:round; stroke-linejoin:round;">
</g>
<g style="fill:#840000; fill-opacity:0.0; 
stroke:#840000; stroke-width:60; stroke-opacity:1; 
stroke-linecap:round; stroke-linejoin:round;">
<path d="M43310 4720
L43310 3940
" />
</g>
<g style="fill:#840000; fill-opacity:0.0; 
stroke:#840000; stroke-width:100; stroke-opacity:1; 
stroke-linecap:round; stroke-linejoin:round;">
</g>
<g style="fill:#840000; fill-opacity:0.0; 
stroke:#840000; stroke-width:60; stroke-opacity:1; 
stroke-linecap:round; stroke-linejoin:round;">
<path d="M62990 4720
L62990 3940
" />
</g>
<g style="fill:#840000; fill-opacity:0.0; 
stroke:#840000; stroke-width:100; stroke-opacity:1; 
stroke-linecap:round; stroke-linejoin:round;">
</g>
<g style="fill:#840000; fill-opacity:0.0; 
stroke:#840000; stroke-width:60; stroke-opacity:1; 
stroke-linecap:round; stroke-linejoin:round;">
<path d="M82680 4720
L82680 3940
" />
</g>
<g style="fill:#840000; fill-opacity:0.0; 
stroke:#840000; stroke-width:100; stroke-opacity:1; 
stroke-linecap:round; stroke-linejoin:round;">
</g>
<g style="fill:#840000; fill-opacity:0.0; 
stroke:#840000; stroke-width:60; stroke-opacity:1; 
stroke-linecap:round; stroke-linejoin:round;">
<path d="M102360 4720
L102360 3940
" />
</g>
<g style="fill:#840000; fill-opacity:0.0; 
stroke:#840000; stroke-width:100; stroke-opacity:1; 
stroke-linecap:round; stroke-linejoin:round;">
</g>
<g style="fill:#840000; fill-opacity:0.0; 
stroke:#840000; stroke-width:60; stroke-opacity:1; 
stroke-linecap:round; stroke-linejoin:round;">
<path d="M14190 4560
L13900 4560
" />
<path d="M14050 4560
L14050 4050
L14000 4120
L13950 4170
L13900 4190
" />
</g>
<g style="fill:#840000; fill-opacity:0.0; 
stroke:#840000; stroke-width:100; stroke-opacity:1; 
stroke-linecap:round; stroke-linejoin:round;">
</g>
<g style="fill:#840000; fill-opacity:0.0; 
stroke:#840000; stroke-width:60; stroke-opacity:1; 
stroke-linecap:round; stroke-linejoin:round;">
<path d="M33580 4090
L33610 4070
L33660 4050
L33780 4050
L33830 4070
L33850 4090
L33870 4140
L33870 4190
L33850 4260
L33560 4560
L33870 4560
" />
</g>
<g style="fill:#840000; fill-opacity:0.0; 
stroke:#840000; stroke-width:100; stroke-opacity:1; 
stroke-linecap:round; stroke-linejoin:round;">
</g>
<g style="fill:#840000; fill-opacity:0.0; 
stroke:#840000; stroke-width:60; stroke-opacity:1; 
stroke-linecap:round; stroke-linejoin:round;">
<path d="M53250 4050
L53560 4050
L53390 4240
L53470 4240
L53520 4260
L53540 4290
L53560 4340
L53560 4460
L53540 4510
L53520 4530
L53470 4560
L53320 4560
L53270 4530
L53250 4510
" />
</g>
<g style="fill:#840000; fill-opacity:0.0; 
stroke:#840000; stroke-width:100; stroke-opacity:1; 
stroke-linecap:round; stroke-linejoin:round;">
</g>
<g style="fill:#840000; fill-opacity:0.0; 
stroke:#840000; stroke-width:60; stroke-opacity:1; 
stroke-linecap:round; stroke-linejoin:round;">
<path d="M73200 4220
L73200 4560
" />
<path d="M73070 4020
L72950 4390
L73270 4390
" />
</g>
<g style="fill:#840000; fill-opacity:0.0; 
stroke:#840000; stroke-width:100; stroke-opacity:1; 
stroke-linecap:round; stroke-linejoin:round;">
</g>
<g style="fill:#840000; fill-opacity:0.0; 
stroke:#840000; stroke-width:60; stroke-opacity:1; 
stroke-linecap:round; stroke-linejoin:round;">
<path d="M92910 4050
L92670 4050
L92640 4290
L92670 4260
L92720 4240
L92840 4240
L92890 4260
L92910 4290
L92930 4340
L92930 4460
L92910 4510
L92890 4530
L92840 4560
L92720 4560
L92670 4530
L92640 4510
" />
</g>
<g style="fill:#840000; fill-opacity:0.0; 
stroke:#840000; stroke-width:100; stroke-opacity:1; 
stroke-linecap:round; stroke-linejoin:round;">
</g>
<g style="fill:#840000; fill-opacity:0.0; 
stroke:#840000; stroke-width:60; stroke-opacity:1; 
stroke-linecap:round; stroke-linejoin:round;">
<path d="M112570 4050
L112470 4050
L112420 4070
L112400 4090
L112350 4170
L112320 4260
L112320 4460
L112350 4510
L112370 4530
L112420 4560
L112520 4560
L112570 4530
L112590 4510
L112610 4460
L112610 4340
L112590 4290
L112570 4260
L112520 4240
L112420 4240
L112370 4260
L112350 4290
L112320 4340
" />
</g>
<g style="fill:#840000; fill-opacity:0.0; 
stroke:#840000; stroke-width:100; stroke-opacity:1; 
stroke-linecap:round; stroke-linejoin:round;">
</g>
<g style="fill:#840000; fill-opacity:0.0; 
stroke:#840000; stroke-width:60; stroke-opacity:1; 
stroke-linecap:round; stroke-linejoin:round;">
<path d="M23620 77960
L23620 78740
" />
</g>
<g style="fill:#840000; fill-opacity:0.0; 
stroke:#840000; stroke-width:100; stroke-opacity:1; 
stroke-linecap:round; stroke-linejoin:round;">
</g>
<g style="fill:#840000; fill-opacity:0.0; 
stroke:#840000; stroke-width:60; stroke-opacity:1; 
stroke-linecap:round; stroke-linejoin:round;">
<path d="M43310 77960
L43310 78740
" />
</g>
<g style="fill:#840000; fill-opacity:0.0; 
stroke:#840000; stroke-width:100; stroke-opacity:1; 
stroke-linecap:round; stroke-linejoin:round;">
</g>
<g style="fill:#840000; fill-opacity:0.0; 
stroke:#840000; stroke-width:60; stroke-opacity:1; 
stroke-linecap:round; stroke-linejoin:round;">
<path d="M62990 77960
L62990 78740
" />
</g>
<g style="fill:#840000; fill-opacity:0.0; 
stroke:#840000; stroke-width:100; stroke-opacity:1; 
stroke-linecap:round; stroke-linejoin:round;">
</g>
<g style="fill:#840000; fill-opacity:0.0; 
stroke:#840000; stroke-width:60; stroke-opacity:1; 
stroke-linecap:round; stroke-linejoin:round;">
<path d="M82680 77960
L82680 78740
" />
</g>
<g style="fill:#840000; fill-opacity:0.0; 
stroke:#840000; stroke-width:100; stroke-opacity:1; 
stroke-linecap:round; stroke-linejoin:round;">
</g>
<g style="fill:#840000; fill-opacity:0.0; 
stroke:#840000; stroke-width:60; stroke-opacity:1; 
stroke-linecap:round; stroke-linejoin:round;">
<path d="M102360 77960
L102360 78740
" />
</g>
<g style="fill:#840000; fill-opacity:0.0; 
stroke:#840000; stroke-width:100; stroke-opacity:1; 
stroke-linecap:round; stroke-linejoin:round;">
</g>
<g style="fill:#840000; fill-opacity:0.0; 
stroke:#840000; stroke-width:60; stroke-opacity:1; 
stroke-linecap:round; stroke-linejoin:round;">
<path d="M14190 78580
L13900 78580
" />
<path d="M14050 78580
L14050 78070
L14000 78140
L13950 78190
L13900 78210
" />
</g>
<g style="fill:#840000; fill-opacity:0.0; 
stroke:#840000; stroke-width:100; stroke-opacity:1; 
stroke-linecap:round; stroke-linejoin:round;">
</g>
<g style="fill:#840000; fill-opacity:0.0; 
stroke:#840000; stroke-width:60; stroke-opacity:1; 
stroke-linecap:round; stroke-linejoin:round;">
<path d="M33580 78110
L33610 78090
L33660 78070
L33780 78070
L33830 78090
L33850 78110
L33870 78160
L33870 78210
L33850 78280
L33560 78580
L33870 78580
" />
</g>
<g style="fill:#840000; fill-opacity:0.0; 
stroke:#840000; stroke-width:100; stroke-opacity:1; 
stroke-linecap:round; stroke-linejoin:round;">
</g>
<g style="fill:#840000; fill-opacity:0.0; 
stroke:#840000; stroke-width:60; stroke-opacity:1; 
stroke-linecap:round; stroke-linejoin:round;">
<path d="M53250 78070
L53560 78070
L53390 78260
L53470 78260
L53520 78280
L53540 78310
L53560 78360
L53560 78480
L53540 78530
L53520 78550
L53470 78580
L53320 78580
L53270 78550
L53250 78530
" />
</g>
<g style="fill:#840000; fill-opacity:0.0; 
stroke:#840000; stroke-width:100; stroke-opacity:1; 
stroke-linecap:round; stroke-linejoin:round;">
</g>
<g style="fill:#840000; fill-opacity:0.0; 
stroke:#840000; stroke-width:60; stroke-opacity:1; 
stroke-linecap:round; stroke-linejoin:round;">
<path d="M73200 78240
L73200 78580
" />
<path d="M73070 78040
L72950 78410
L73270 78410
" />
</g>
<g style="fill:#840000; fill-opacity:0.0; 
stroke:#840000; stroke-width:100; stroke-opacity:1; 
stroke-linecap:round; stroke-linejoin:round;">
</g>
<g style="fill:#840000; fill-opacity:0.0; 
stroke:#840000; stroke-width:60; stroke-opacity:1; 
stroke-linecap:round; stroke-linejoin:round;">
<path d="M92910 78070
L92670 78070
L92640 78310
L92670 78280
L92720 78260
L92840 78260
L92890 78280
L92910 78310
L92930 78360
L92930 78480
L92910 78530
L92890 78550
L92840 78580
L92720 78580
L92670 78550
L92640 78530
" />
</g>
<g style="fill:#840000; fill-opacity:0.0; 
stroke:#840000; stroke-width:100; stroke-opacity:1; 
stroke-linecap:round; stroke-linejoin:round;">
</g>
<g style="fill:#840000; fill-opacity:0.0; 
stroke:#840000; stroke-width:60; stroke-opacity:1; 
stroke-linecap:round; stroke-linejoin:round;">
<path d="M112570 78070
L112470 78070
L112420 78090
L112400 78110
L112350 78190
L112320 78280
L112320 78480
L112350 78530
L112370 78550
L112420 78580
L112520 78580
L112570 78550
L112590 78530
L112610 78480
L112610 78360
L112590 78310
L112570 78280
L112520 78260
L112420 78260
L112370 78280
L112350 78310
L112320 78360
" />
</g>
<g style="fill:#840000; fill-opacity:0.0; 
stroke:#840000; stroke-width:100; stroke-opacity:1; 
stroke-linecap:round; stroke-linejoin:round;">
</g>
<g style="fill:#840000; fill-opacity:0.0; 
stroke:#840000; stroke-width:60; stroke-opacity:1; 
stroke-linecap:round; stroke-linejoin:round;">
<path d="M3940 23620
L4720 23620
" />
</g>
<g style="fill:#840000; fill-opacity:0.0; 
stroke:#840000; stroke-width:100; stroke-opacity:1; 
stroke-linecap:round; stroke-linejoin:round;">
</g>
<g style="fill:#840000; fill-opacity:0.0; 
stroke:#840000; stroke-width:60; stroke-opacity:1; 
stroke-linecap:round; stroke-linejoin:round;">
<path d="M3940 43310
L4720 43310
" />
</g>
<g style="fill:#840000; fill-opacity:0.0; 
stroke:#840000; stroke-width:100; stroke-opacity:1; 
stroke-linecap:round; stroke-linejoin:round;">
</g>
<g style="fill:#840000; fill-opacity:0.0; 
stroke:#840000; stroke-width:60; stroke-opacity:1; 
stroke-linecap:round; stroke-linejoin:round;">
<path d="M3940 62990
L4720 62990
" />
</g>
<g style="fill:#840000; fill-opacity:0.0; 
stroke:#840000; stroke-width:100; stroke-opacity:1; 
stroke-linecap:round; stroke-linejoin:round;">
</g>
<g style="fill:#840000; fill-opacity:0.0; 
stroke:#840000; stroke-width:60; stroke-opacity:1; 
stroke-linecap:round; stroke-linejoin:round;">
<path d="M4200 13860
L4450 13860
" />
<path d="M4160 14010
L4330 13500
L4500 14010
" />
</g>
<g style="fill:#840000; fill-opacity:0.0; 
stroke:#840000; stroke-width:100; stroke-opacity:1; 
stroke-linecap:round; stroke-linejoin:round;">
</g>
<g style="fill:#840000; fill-opacity:0.0; 
stroke:#840000; stroke-width:60; stroke-opacity:1; 
stroke-linecap:round; stroke-linejoin:round;">
<path d="M4360 33420
L4430 33440
L4460 33470
L4480 33520
L4480 33590
L4460 33640
L4430 33660
L4390 33690
L4190 33690
L4190 33180
L4360 33180
L4410 33200
L4430 33220
L4460 33270
L4460 33320
L4430 33370
L4410 33390
L4360 33420
L4190 33420
" />
</g>
<g style="fill:#840000; fill-opacity:0.0; 
stroke:#840000; stroke-width:100; stroke-opacity:1; 
stroke-linecap:round; stroke-linejoin:round;">
</g>
<g style="fill:#840000; fill-opacity:0.0; 
stroke:#840000; stroke-width:60; stroke-opacity:1; 
stroke-linecap:round; stroke-linejoin:round;">
<path d="M4480 53330
L4460 53350
L4390 53380
L4340 53380
L4260 53350
L4220 53300
L4190 53250
L4170 53160
L4170 53080
L4190 52990
L4220 52940
L4260 52890
L4340 52870
L4390 52870
L4460 52890
L4480 52910
" />
</g>
<g style="fill:#840000; fill-opacity:0.0; 
stroke:#840000; stroke-width:100; stroke-opacity:1; 
stroke-linecap:round; stroke-linejoin:round;">
</g>
<g style="fill:#840000; fill-opacity:0.0; 
stroke:#840000; stroke-width:60; stroke-opacity:1; 
stroke-linecap:round; stroke-linejoin:round;">
<path d="M4190 73060
L4190 72550
L4310 72550
L4390 72570
L4430 72620
L4460 72670
L4480 72760
L4480 72840
L4460 72930
L4430 72980
L4390 73030
L4310 73060
L4190 73060
" />
</g>
<g style="fill:#840000; fill-opacity:0.0; 
stroke:#840000; stroke-width:100; stroke-opacity:1; 
stroke-linecap:round; stroke-linejoin:round;">
</g>
<g style="fill:#840000; fill-opacity:0.0; 
stroke:#840000; stroke-width:60; stroke-opacity:1; 
stroke-linecap:round; stroke-linejoin:round;">
<path d="M112990 23620
L112210 23620
" />
</g>
<g style="fill:#840000; fill-opacity:0.0; 
stroke:#840000; stroke-width:100; stroke-opacity:1; 
stroke-linecap:round; stroke-linejoin:round;">
</g>
<g style="fill:#840000; fill-opacity:0.0; 
stroke:#840000; stroke-width:60; stroke-opacity:1; 
stroke-linecap:round; stroke-linejoin:round;">
<path d="M112990 43310
L112210 43310
" />
</g>
<g style="fill:#840000; fill-opacity:0.0; 
stroke:#840000; stroke-width:100; stroke-opacity:1; 
stroke-linecap:round; stroke-linejoin:round;">
</g>
<g style="fill:#840000; fill-opacity:0.0; 
stroke:#840000; stroke-width:60; stroke-opacity:1; 
stroke-linecap:round; stroke-linejoin:round;">
<path d="M112990 62990
L112210 62990
" />
</g>
<g style="fill:#840000; fill-opacity:0.0; 
stroke:#840000; stroke-width:100; stroke-opacity:1; 
stroke-linecap:round; stroke-linejoin:round;">
</g>
<g style="fill:#840000; fill-opacity:0.0; 
stroke:#840000; stroke-width:60; stroke-opacity:1; 
stroke-linecap:round; stroke-linejoin:round;">
<path d="M112470 13860
L112720 13860
" />
<path d="M112430 14010
L112600 13500
L112770 14010
" />
</g>
<g style="fill:#840000; fill-opacity:0.0; 
stroke:#840000; stroke-width:100; stroke-opacity:1; 
stroke-linecap:round; stroke-linejoin:round;">
</g>
<g style="fill:#840000; fill-opacity:0.0; 
stroke:#840000; stroke-width:60; stroke-opacity:1; 
stroke-linecap:round; stroke-linejoin:round;">
<path d="M112630 33420
L112700 33440
L112730 33470
L112750 33520
L112750 33590
L112730 33640
L112700 33660
L112660 33690
L112460 33690
L112460 33180
L112630 33180
L112680 33200
L112700 33220
L112730 33270
L112730 33320
L112700 33370
L112680 33390
L112630 33420
L112460 33420
" />
</g>
<g style="fill:#840000; fill-opacity:0.0; 
stroke:#840000; stroke-width:100; stroke-opacity:1; 
stroke-linecap:round; stroke-linejoin:round;">
</g>
<g style="fill:#840000; fill-opacity:0.0; 
stroke:#840000; stroke-width:60; stroke-opacity:1; 
stroke-linecap:round; stroke-linejoin:round;">
<path d="M112750 53330
L112730 53350
L112660 53380
L112610 53380
L112530 53350
L112490 53300
L112460 53250
L112440 53160
L112440 53080
L112460 52990
L112490 52940
L112530 52890
L112610 52870
L112660 52870
L112730 52890
L112750 52910
" />
</g>
<g style="fill:#840000; fill-opacity:0.0; 
stroke:#840000; stroke-width:100; stroke-opacity:1; 
stroke-linecap:round; stroke-linejoin:round;">
</g>
<g style="fill:#840000; fill-opacity:0.0; 
stroke:#840000; stroke-width:60; stroke-opacity:1; 
stroke-linecap:round; stroke-linejoin:round;">
<path d="M112460 73060
L112460 72550
L112580 72550
L112660 72570
L112700 72620
L112730 72670
L112750 72760
L112750 72840
L112730 72930
L112700 72980
L112660 73030
L112580 73060
L112460 73060
" />
</g>
<g style="fill:#840000; fill-opacity:0.0; 
stroke:#840000; stroke-width:100; stroke-opacity:1; 
stroke-linecap:round; stroke-linejoin:round;">
</g>
<g style="fill:#840000; fill-opacity:0.0; 
stroke:#840000; stroke-width:60; stroke-opacity:1; 
stroke-linecap:round; stroke-linejoin:round;">
<path d="M78910 76290
L78910 75700
L79050 75700
L79130 75730
L79190 75790
L79210 75840
L79240 75950
L79240 76040
L79210 76150
L79190 76210
L79130 76260
L79050 76290
L78910 76290
" />
<path d="M79750 76290
L79750 75980
L79720 75930
L79660 75900
L79550 75900
L79500 75930
" />
<path d="M79750 76260
L79690 76290
L79550 76290
L79500 76260
L79470 76210
L79470 76150
L79500 76100
L79550 76070
L79690 76070
L79750 76040
" />
<path d="M79950 75900
L80170 75900
" />
<path d="M80030 75700
L80030 76210
L80060 76260
L80110 76290
L80170 76290
" />
<path d="M80590 76260
L80540 76290
L80420 76290
L80370 76260
L80340 76210
L80340 75980
L80370 75930
L80420 75900
L80540 75900
L80590 75930
L80620 75980
L80620 76040
L80340 76100
" />
<path d="M80870 76240
L80900 76260
L80870 76290
L80840 76260
L80870 76240
L80870 76290
" />
<path d="M80870 75930
L80900 75950
L80870 75980
L80840 75950
L80870 75930
L80870 75980
" />
</g>
<g style="fill:#840000; fill-opacity:0.0; 
stroke:#840000; stroke-width:100; stroke-opacity:1; 
stroke-linecap:round; stroke-linejoin:round;">
</g>
<g style="fill:#840000; fill-opacity:0.0; 
stroke:#840000; stroke-width:60; stroke-opacity:1; 
stroke-linecap:round; stroke-linejoin:round;">
<path d="M69690 76580
L112210 76580
" />
</g>
<g style="fill:#840000; fill-opacity:0.0; 
stroke:#840000; stroke-width:100; stroke-opacity:1; 
stroke-linecap:round; stroke-linejoin:round;">
</g>
<g style="fill:#840000; fill-opacity:0.0; 
stroke:#840000; stroke-width:60; stroke-opacity:1; 
stroke-linecap:round; stroke-linejoin:round;">
<path d="M70250 77390
L70250 76800
" />
<path d="M70580 77390
L70330 77050
" />
<path d="M70580 76800
L70250 77140
" />
<path d="M70840 77390
L70840 77000
" />
<path d="M70840 76800
L70810 76830
L70840 76860
L70860 76830
L70840 76800
L70840 76860
" />
<path d="M71450 77340
L71430 77360
L71340 77390
L71290 77390
L71200 77360
L71140 77310
L71120 77250
L71090 77140
L71090 77050
L71120 76940
L71140 76890
L71200 76830
L71290 76800
L71340 76800
L71430 76830
L71450 76860
" />
<path d="M71960 77390
L71960 77080
L71930 77030
L71880 77000
L71760 77000
L71710 77030
" />
<path d="M71960 77360
L71900 77390
L71760 77390
L71710 77360
L71680 77310
L71680 77250
L71710 77200
L71760 77170
L71900 77170
L71960 77140
" />
<path d="M72490 77390
L72490 76800
" />
<path d="M72490 77360
L72440 77390
L72320 77390
L72270 77360
L72240 77340
L72210 77280
L72210 77110
L72240 77050
L72270 77030
L72320 77000
L72440 77000
L72490 77030
" />
<path d="M73220 77080
L73420 77080
" />
<path d="M73500 77390
L73220 77390
L73220 76800
L73500 76800
" />
<path d="M73760 77340
L73790 77360
L73760 77390
L73730 77360
L73760 77340
L73760 77390
" />
<path d="M74040 77390
L74040 76800
L74180 76800
L74260 76830
L74320 76890
L74350 76940
L74380 77050
L74380 77140
L74350 77250
L74320 77310
L74260 77360
L74180 77390
L74040 77390
" />
<path d="M74630 77340
L74660 77360
L74630 77390
L74600 77360
L74630 77340
L74630 77390
" />
<path d="M74880 77220
L75160 77220
" />
<path d="M74830 77390
L75020 76800
L75220 77390
" />
<path d="M75420 77340
L75440 77360
L75420 77390
L75390 77360
L75420 77340
L75420 77390
" />
<path d="M76600 77390
L76600 76800
" />
<path d="M76650 77170
L76820 77390
" />
<path d="M76820 77000
L76600 77220
" />
<path d="M77070 77390
L77070 77000
" />
<path d="M77070 76800
L77040 76830
L77070 76860
L77100 76830
L77070 76800
L77070 76860
" />
<path d="M77610 77360
L77550 77390
L77440 77390
L77380 77360
L77350 77340
L77330 77280
L77330 77110
L77350 77050
L77380 77030
L77440 77000
L77550 77000
L77610 77030
" />
<path d="M78110 77390
L78110 77080
L78080 77030
L78030 77000
L77920 77000
L77860 77030
" />
<path d="M78110 77360
L78060 77390
L77920 77390
L77860 77360
L77830 77310
L77830 77250
L77860 77200
L77920 77170
L78060 77170
L78110 77140
" />
<path d="M78650 77390
L78650 76800
" />
<path d="M78650 77360
L78590 77390
L78480 77390
L78420 77360
L78390 77340
L78370 77280
L78370 77110
L78390 77050
L78420 77030
L78480 77000
L78590 77000
L78650 77030
" />
<path d="M79550 77620
L79520 77590
L79460 77500
L79430 77450
L79400 77360
L79380 77220
L79380 77110
L79400 76970
L79430 76890
L79460 76830
L79520 76750
L79550 76720
" />
<path d="M80050 76800
L79770 76800
L79740 77080
L79770 77050
L79830 77030
L79970 77030
L80020 77050
L80050 77080
L80080 77140
L80080 77280
L80050 77340
L80020 77360
L79970 77390
L79830 77390
L79770 77360
L79740 77340
" />
<path d="M80330 77340
L80360 77360
L80330 77390
L80300 77360
L80330 77340
L80330 77390
" />
<path d="M80920 77390
L80580 77390
" />
<path d="M80750 77390
L80750 76800
L80700 76890
L80640 76940
L80580 76970
" />
<path d="M81170 77340
L81200 77360
L81170 77390
L81150 77360
L81170 77340
L81170 77390
" />
<path d="M81710 77000
L81710 77390
" />
<path d="M81570 76770
L81430 77200
L81790 77200
" />
<path d="M81960 77620
L81990 77590
L82050 77500
L82070 77450
L82100 77360
L82130 77220
L82130 77110
L82100 76970
L82070 76890
L82050 76830
L81990 76750
L81960 76720
" />
<path d="M82410 77170
L82860 77170
" />
<path d="M83450 77390
L83110 77390
" />
<path d="M83280 77390
L83280 76800
L83230 76890
L83170 76940
L83110 76970
" />
</g>
<g style="fill:#840000; fill-opacity:0.0; 
stroke:#840000; stroke-width:100; stroke-opacity:1; 
stroke-linecap:round; stroke-linejoin:round;">
</g>
<g style="fill:#840000; fill-opacity:0.0; 
stroke:#840000; stroke-width:60; stroke-opacity:1; 
stroke-linecap:round; stroke-linejoin:round;">
<path d="M69690 75400
L112210 75400
" />
</g>
<g style="fill:#840000; fill-opacity:0.0; 
stroke:#840000; stroke-width:100; stroke-opacity:1; 
stroke-linecap:round; stroke-linejoin:round;">
</g>
<g style="fill:#840000; fill-opacity:0.0; 
stroke:#840000; stroke-width:120; stroke-opacity:1; 
stroke-linecap:round; stroke-linejoin:round;">
<path d="M104090 76290
L103890 76010
" />
<path d="M103750 76290
L103750 75700
L103980 75700
L104030 75730
L104060 75760
L104090 75810
L104090 75900
L104060 75950
L104030 75980
L103980 76010
L103750 76010
" />
<path d="M104570 76260
L104510 76290
L104400 76290
L104340 76260
L104320 76210
L104320 75980
L104340 75930
L104400 75900
L104510 75900
L104570 75930
L104600 75980
L104600 76040
L104320 76100
" />
<path d="M104790 75900
L104930 76290
L105070 75900
" />
<path d="M105300 76240
L105330 76260
L105300 76290
L105270 76260
L105300 76240
L105300 76290
" />
<path d="M105300 75930
L105330 75950
L105300 75980
L105270 75950
L105300 75930
L105300 75980
" />
</g>
<g style="fill:#840000; fill-opacity:0.0; 
stroke:#840000; stroke-width:100; stroke-opacity:1; 
stroke-linecap:round; stroke-linejoin:round;">
</g>
<g style="fill:#840000; fill-opacity:0.0; 
stroke:#840000; stroke-width:60; stroke-opacity:1; 
stroke-linecap:round; stroke-linejoin:round;">
<path d="M70220 76260
L70300 76290
L70440 76290
L70500 76260
L70530 76240
L70550 76180
L70550 76120
L70530 76070
L70500 76040
L70440 76010
L70330 75980
L70270 75950
L70250 75930
L70220 75870
L70220 75810
L70250 75760
L70270 75730
L70330 75700
L70470 75700
L70550 75730
" />
<path d="M70810 76290
L70810 75900
" />
<path d="M70810 75700
L70780 75730
L70810 75760
L70840 75730
L70810 75700
L70810 75760
" />
<path d="M71030 75900
L71340 75900
L71030 76290
L71340 76290
" />
<path d="M71790 76260
L71730 76290
L71620 76290
L71570 76260
L71540 76210
L71540 75980
L71570 75930
L71620 75900
L71730 75900
L71790 75930
L71820 75980
L71820 76040
L71540 76100
" />
<path d="M72070 76240
L72100 76260
L72070 76290
L72040 76260
L72070 76240
L72070 76290
" />
<path d="M72070 75930
L72100 75950
L72070 75980
L72040 75950
L72070 75930
L72070 75980
" />
<path d="M72770 76120
L73060 76120
" />
<path d="M72720 76290
L72910 75700
L73110 76290
" />
<path d="M73560 75900
L73560 76290
" />
<path d="M73420 75670
L73280 76100
L73650 76100
" />
</g>
<g style="fill:#840000; fill-opacity:0.0; 
stroke:#840000; stroke-width:100; stroke-opacity:1; 
stroke-linecap:round; stroke-linejoin:round;">
</g>
<g style="fill:#840000; fill-opacity:0.0; 
stroke:#840000; stroke-width:60; stroke-opacity:1; 
stroke-linecap:round; stroke-linejoin:round;">
<path d="M103710 77390
L103710 76800
" />
<path d="M104240 77390
L104240 76800
" />
<path d="M104240 77360
L104180 77390
L104070 77390
L104010 77360
L103990 77340
L103960 77280
L103960 77110
L103990 77050
L104010 77030
L104070 77000
L104180 77000
L104240 77030
" />
<path d="M104520 77340
L104550 77360
L104520 77390
L104490 77360
L104520 77340
L104520 77390
" />
<path d="M104520 77030
L104550 77050
L104520 77080
L104490 77050
L104520 77030
L104520 77080
" />
<path d="M105500 77000
L105500 77390
" />
<path d="M105360 76770
L105220 77200
L105590 77200
" />
<path d="M106230 76770
L105730 77530
" />
<path d="M106370 76800
L106770 76800
L106520 77390
" />
</g>
<g style="fill:#840000; fill-opacity:0.0; 
stroke:#840000; stroke-width:100; stroke-opacity:1; 
stroke-linecap:round; stroke-linejoin:round;">
</g>
<g style="fill:#840000; fill-opacity:0.0; 
stroke:#840000; stroke-width:60; stroke-opacity:1; 
stroke-linecap:round; stroke-linejoin:round;">
<path d="M69690 73820
L112210 73820
" />
</g>
<g style="fill:#840000; fill-opacity:0.0; 
stroke:#840000; stroke-width:100; stroke-opacity:1; 
stroke-linecap:round; stroke-linejoin:round;">
</g>
<g style="fill:#840000; fill-opacity:0.0; 
stroke:#840000; stroke-width:160; stroke-opacity:1; 
stroke-linecap:round; stroke-linejoin:round;">
<path d="M70360 74090
L70810 74090
" />
<path d="M70480 74880
L70580 74090
" />
<path d="M70970 74880
L71040 74360
" />
<path d="M71070 74090
L71030 74130
L71060 74170
L71110 74130
L71070 74090
L71060 74170
" />
<path d="M71300 74360
L71600 74360
" />
<path d="M71450 74090
L71360 74770
L71390 74840
L71460 74880
L71540 74880
" />
<path d="M71910 74880
L71840 74840
L71820 74770
L71900 74090
" />
<path d="M72520 74840
L72440 74880
L72290 74880
L72220 74840
L72190 74770
L72230 74470
L72280 74390
L72360 74360
L72510 74360
L72580 74390
L72610 74470
L72600 74540
L72210 74620
" />
<path d="M72900 74810
L72930 74840
L72890 74880
L72860 74840
L72900 74810
L72890 74880
" />
<path d="M72950 74390
L72990 74430
L72940 74470
L72910 74430
L72950 74390
L72940 74470
" />
</g>
<g style="fill:#840000; fill-opacity:0.0; 
stroke:#840000; stroke-width:100; stroke-opacity:1; 
stroke-linecap:round; stroke-linejoin:round;">
</g>
<g style="fill:#840000; fill-opacity:0.0; 
stroke:#840000; stroke-width:60; stroke-opacity:1; 
stroke-linecap:round; stroke-linejoin:round;">
<path d="M70440 73060
L70250 73060
" />
<path d="M70250 73370
L70250 72780
L70530 72780
" />
<path d="M70750 73370
L70750 72980
" />
<path d="M70750 72780
L70720 72810
L70750 72840
L70780 72810
L70750 72780
L70750 72840
" />
<path d="M71120 73370
L71060 73340
L71030 73290
L71030 72780
" />
<path d="M71570 73340
L71510 73370
L71400 73370
L71340 73340
L71310 73290
L71310 73060
L71340 73010
L71400 72980
L71510 72980
L71570 73010
L71590 73060
L71590 73120
L71310 73180
" />
<path d="M71850 73320
L71880 73340
L71850 73370
L71820 73340
L71850 73320
L71850 73370
" />
<path d="M71850 73010
L71880 73030
L71850 73060
L71820 73030
L71850 73010
L71850 73060
" />
<path d="M72550 73340
L72630 73370
L72770 73370
L72830 73340
L72860 73320
L72890 73260
L72890 73200
L72860 73150
L72830 73120
L72770 73090
L72660 73060
L72610 73030
L72580 73010
L72550 72950
L72550 72890
L72580 72840
L72610 72810
L72660 72780
L72800 72780
L72890 72810
" />
<path d="M73140 73370
L73140 72780
L73360 72780
L73420 72810
L73450 72840
L73480 72890
L73480 72980
L73450 73030
L73420 73060
L73360 73090
L73140 73090
" />
<path d="M73730 73370
L73730 72780
L73870 72780
L73950 72810
L74010 72870
L74040 72920
L74070 73030
L74070 73120
L74040 73230
L74010 73290
L73950 73340
L73870 73370
L73730 73370
" />
<path d="M74320 73370
L74320 72780
" />
<path d="M74800 73060
L74600 73060
" />
<path d="M74600 73370
L74600 72780
L74880 72780
" />
<path d="M75220 72780
L75330 72780
L75390 72810
L75440 72870
L75470 72980
L75470 73180
L75440 73290
L75390 73340
L75330 73370
L75220 73370
L75160 73340
L75110 73290
L75080 73180
L75080 72980
L75110 72870
L75160 72810
L75220 72780
" />
<path d="M75980 72980
L75980 73370
" />
<path d="M75720 72980
L75720 73290
L75750 73340
L75810 73370
L75890 73370
L75950 73340
L75980 73320
" />
<path d="M76170 72980
L76400 72980
" />
<path d="M76260 72780
L76260 73290
L76290 73340
L76340 73370
L76400 73370
" />
<path d="M76600 72980
L76600 73570
" />
<path d="M76600 73010
L76650 72980
L76760 72980
L76820 73010
L76850 73030
L76880 73090
L76880 73260
L76850 73320
L76820 73340
L76760 73370
L76650 73370
L76600 73340
" />
<path d="M77380 72980
L77380 73370
" />
<path d="M77130 72980
L77130 73290
L77160 73340
L77210 73370
L77300 73370
L77350 73340
L77380 73320
" />
<path d="M77580 72980
L77800 72980
" />
<path d="M77660 72780
L77660 73290
L77690 73340
L77750 73370
L77800 73370
" />
<path d="M77860 73430
L78310 73430
" />
<path d="M78450 73370
L78450 72780
" />
<path d="M78450 73010
L78510 72980
L78620 72980
L78670 73010
L78700 73030
L78730 73090
L78730 73260
L78700 73320
L78670 73340
L78620 73370
L78510 73370
L78450 73340
" />
<path d="M79240 72980
L79240 73370
" />
<path d="M78980 72980
L78980 73290
L79010 73340
L79070 73370
L79150 73370
L79210 73340
L79240 73320
" />
<path d="M79430 72980
L79660 72980
" />
<path d="M79520 73370
L79520 72870
L79550 72810
L79600 72780
L79660 72780
" />
<path d="M79770 72980
L79990 72980
" />
<path d="M79850 73370
L79850 72870
L79880 72810
L79940 72780
L79990 72780
" />
<path d="M80420 73340
L80360 73370
L80250 73370
L80190 73340
L80160 73290
L80160 73060
L80190 73010
L80250 72980
L80360 72980
L80420 73010
L80440 73060
L80440 73120
L80160 73180
" />
<path d="M80700 73370
L80700 72980
" />
<path d="M80700 73090
L80730 73030
L80750 73010
L80810 72980
L80870 72980
" />
<path d="M81290 73340
L81230 73370
L81120 73370
L81060 73340
L81030 73290
L81030 73060
L81060 73010
L81120 72980
L81230 72980
L81290 73010
L81320 73060
L81320 73120
L81030 73180
" />
<path d="M81820 73370
L81820 72780
" />
<path d="M81820 73340
L81760 73370
L81650 73370
L81600 73340
L81570 73320
L81540 73260
L81540 73090
L81570 73030
L81600 73010
L81650 72980
L81760 72980
L81820 73010
" />
<path d="M82100 73320
L82130 73340
L82100 73370
L82070 73340
L82100 73320
L82100 73370
" />
<path d="M82350 73340
L82410 73370
L82520 73370
L82580 73340
L82610 73290
L82610 73260
L82580 73200
L82520 73180
L82440 73180
L82380 73150
L82350 73090
L82350 73060
L82380 73010
L82440 72980
L82520 72980
L82580 73010
" />
<path d="M83110 73340
L83060 73370
L82940 73370
L82890 73340
L82860 73320
L82830 73260
L82830 73090
L82860 73030
L82890 73010
L82940 72980
L83060 72980
L83110 73010
" />
<path d="M83370 73370
L83370 72780
" />
<path d="M83620 73370
L83620 73060
L83590 73010
L83530 72980
L83450 72980
L83390 73010
L83370 73030
" />
</g>
<g style="fill:#840000; fill-opacity:0.0; 
stroke:#840000; stroke-width:100; stroke-opacity:1; 
stroke-linecap:round; stroke-linejoin:round;">
</g>
<g style="fill:#840000; fill-opacity:0.0; 
stroke:#840000; stroke-width:60; stroke-opacity:1; 
stroke-linecap:round; stroke-linejoin:round;">
<path d="M69690 71460
L112210 71460
" />
</g>
<g style="fill:#840000; fill-opacity:0.0; 
stroke:#840000; stroke-width:100; stroke-opacity:1; 
stroke-linecap:round; stroke-linejoin:round;">
</g>
<g style="fill:#840000; fill-opacity:0.0; 
stroke:#840000; stroke-width:60; stroke-opacity:1; 
stroke-linecap:round; stroke-linejoin:round;">
<path d="M70220 72280
L70300 72310
L70440 72310
L70500 72280
L70530 72260
L70550 72200
L70550 72140
L70530 72090
L70500 72060
L70440 72030
L70330 72000
L70270 71970
L70250 71950
L70220 71890
L70220 71830
L70250 71780
L70270 71750
L70330 71720
L70470 71720
L70550 71750
" />
<path d="M70810 72310
L70810 71720
" />
<path d="M71060 72310
L71060 72000
L71030 71950
L70980 71920
L70890 71920
L70840 71950
L70810 71970
" />
<path d="M71570 72280
L71510 72310
L71400 72310
L71340 72280
L71310 72230
L71310 72000
L71340 71950
L71400 71920
L71510 71920
L71570 71950
L71590 72000
L71590 72060
L71310 72120
" />
<path d="M72070 72280
L72020 72310
L71900 72310
L71850 72280
L71820 72230
L71820 72000
L71850 71950
L71900 71920
L72020 71920
L72070 71950
L72100 72000
L72100 72060
L71820 72120
" />
<path d="M72270 71920
L72490 71920
" />
<path d="M72350 71720
L72350 72230
L72380 72280
L72440 72310
L72490 72310
" />
<path d="M72690 72260
L72720 72280
L72690 72310
L72660 72280
L72690 72260
L72690 72310
" />
<path d="M72690 71950
L72720 71970
L72690 72000
L72660 71970
L72690 71950
L72690 72000
" />
<path d="M73840 71690
L73340 72450
" />
<path d="M74040 72310
L74040 71720
" />
<path d="M74290 71780
L74320 71750
L74380 71720
L74520 71720
L74570 71750
L74600 71780
L74630 71830
L74630 71890
L74600 71970
L74260 72310
L74630 72310
" />
<path d="M74850 72280
L74940 72310
L75080 72310
L75130 72280
L75160 72260
L75190 72200
L75190 72140
L75160 72090
L75130 72060
L75080 72030
L74970 72000
L74910 71970
L74880 71950
L74850 71890
L74850 71830
L74880 71780
L74910 71750
L74970 71720
L75110 71720
L75190 71750
" />
<path d="M75360 71720
L75700 71720
" />
<path d="M75530 72310
L75530 71720
" />
<path d="M75980 72310
L75920 72280
L75890 72260
L75860 72200
L75860 72030
L75890 71970
L75920 71950
L75980 71920
L76060 71920
L76120 71950
L76150 71970
L76170 72030
L76170 72200
L76150 72260
L76120 72280
L76060 72310
L75980 72310
" />
<path d="M76400 72280
L76480 72310
L76620 72310
L76680 72280
L76710 72260
L76740 72200
L76740 72140
L76710 72090
L76680 72060
L76620 72030
L76510 72000
L76450 71970
L76430 71950
L76400 71890
L76400 71830
L76430 71780
L76450 71750
L76510 71720
L76650 71720
L76740 71750
" />
<path d="M76990 72310
L76990 71720
L77210 71720
L77270 71750
L77300 71780
L77330 71830
L77330 71920
L77300 71970
L77270 72000
L77210 72030
L76990 72030
" />
<path d="M77580 72310
L77580 71720
L77720 71720
L77800 71750
L77860 71810
L77890 71860
L77920 71970
L77920 72060
L77890 72170
L77860 72230
L77800 72280
L77720 72310
L77580 72310
" />
<path d="M78170 72310
L78170 71720
" />
<path d="M78650 72000
L78450 72000
" />
<path d="M78450 72310
L78450 71720
L78730 71720
" />
<path d="M79380 71690
L78870 72450
" />
<path d="M79550 72280
L79630 72310
L79770 72310
L79830 72280
L79850 72260
L79880 72200
L79880 72140
L79850 72090
L79830 72060
L79770 72030
L79660 72000
L79600 71970
L79570 71950
L79550 71890
L79550 71830
L79570 71780
L79600 71750
L79660 71720
L79800 71720
L79880 71750
" />
<path d="M80140 72310
L80140 71720
L80360 71720
L80420 71750
L80440 71780
L80470 71830
L80470 71920
L80440 71970
L80420 72000
L80360 72030
L80140 72030
" />
<path d="M80730 72310
L80730 71720
L80870 71720
L80950 71750
L81010 71810
L81030 71860
L81060 71970
L81060 72060
L81030 72170
L81010 72230
L80950 72280
L80870 72310
L80730 72310
" />
<path d="M81320 72310
L81320 71720
" />
<path d="M81790 72000
L81600 72000
" />
<path d="M81600 72310
L81600 71720
L81880 71720
" />
<path d="M82210 71720
L82330 71720
L82380 71750
L82440 71810
L82470 71920
L82470 72120
L82440 72230
L82380 72280
L82330 72310
L82210 72310
L82160 72280
L82100 72230
L82070 72120
L82070 71920
L82100 71810
L82160 71750
L82210 71720
" />
<path d="M82970 71920
L82970 72310
" />
<path d="M82720 71920
L82720 72230
L82750 72280
L82800 72310
L82890 72310
L82940 72280
L82970 72260
" />
<path d="M83170 71920
L83390 71920
" />
<path d="M83250 71720
L83250 72230
L83280 72280
L83340 72310
L83390 72310
" />
<path d="M83590 71920
L83590 72510
" />
<path d="M83590 71950
L83650 71920
L83760 71920
L83820 71950
L83840 71970
L83870 72030
L83870 72200
L83840 72260
L83820 72280
L83760 72310
L83650 72310
L83590 72280
" />
<path d="M84380 71920
L84380 72310
" />
<path d="M84120 71920
L84120 72230
L84150 72280
L84210 72310
L84290 72310
L84350 72280
L84380 72260
" />
<path d="M84570 71920
L84800 71920
" />
<path d="M84660 71720
L84660 72230
L84690 72280
L84740 72310
L84800 72310
" />
<path d="M84860 72370
L85300 72370
" />
<path d="M85450 72310
L85450 71720
" />
<path d="M85450 71950
L85500 71920
L85610 71920
L85670 71950
L85700 71970
L85730 72030
L85730 72200
L85700 72260
L85670 72280
L85610 72310
L85500 72310
L85450 72280
" />
<path d="M86230 71920
L86230 72310
" />
<path d="M85980 71920
L85980 72230
L86010 72280
L86060 72310
L86150 72310
L86200 72280
L86230 72260
" />
<path d="M86430 71920
L86650 71920
" />
<path d="M86510 72310
L86510 71810
L86540 71750
L86600 71720
L86650 71720
" />
<path d="M86770 71920
L86990 71920
" />
<path d="M86850 72310
L86850 71810
L86880 71750
L86930 71720
L86990 71720
" />
<path d="M87410 72280
L87360 72310
L87240 72310
L87190 72280
L87160 72230
L87160 72000
L87190 71950
L87240 71920
L87360 71920
L87410 71950
L87440 72000
L87440 72060
L87160 72120
" />
<path d="M87690 72310
L87690 71920
" />
<path d="M87690 72030
L87720 71970
L87750 71950
L87810 71920
L87860 71920
" />
<path d="M88280 72280
L88230 72310
L88110 72310
L88060 72280
L88030 72230
L88030 72000
L88060 71950
L88110 71920
L88230 71920
L88280 71950
L88310 72000
L88310 72060
L88030 72120
" />
<path d="M88820 72310
L88820 71720
" />
<path d="M88820 72280
L88760 72310
L88650 72310
L88590 72280
L88560 72260
L88540 72200
L88540 72030
L88560 71970
L88590 71950
L88650 71920
L88760 71920
L88820 71950
" />
<path d="M89520 71690
L89010 72450
" />
</g>
<g style="fill:#840000; fill-opacity:0.0; 
stroke:#840000; stroke-width:100; stroke-opacity:1; 
stroke-linecap:round; stroke-linejoin:round;">
</g>
<g style="fill:#840000; fill-opacity:0.0; 
stroke:#840000; stroke-width:60; stroke-opacity:1; 
stroke-linecap:round; stroke-linejoin:round;">
<path d="M77560 75400
L77560 76580
" />
</g>
<g style="fill:#840000; fill-opacity:0.0; 
stroke:#840000; stroke-width:100; stroke-opacity:1; 
stroke-linecap:round; stroke-linejoin:round;">
</g>
<g style="fill:#840000; fill-opacity:0.0; 
stroke:#840000; stroke-width:60; stroke-opacity:1; 
stroke-linecap:round; stroke-linejoin:round;">
<path d="M102760 75400
L102760 77960
" />
</g>
<g style="fill:#840000; fill-opacity:0.0; 
stroke:#840000; stroke-width:0; stroke-opacity:1; 
stroke-linecap:round; stroke-linejoin:round;">
<g >
</g>
<g style="fill:#FFFFC2; fill-opacity:0.0; 
stroke:#FFFFC2; stroke-width:0; stroke-opacity:1; 
stroke-linecap:round; stroke-linejoin:round;">
</g>
<g style="fill:#FFFFC2; fill-opacity:0.6; 
stroke:#FFFFC2; stroke-width:0; stroke-opacity:1; 
stroke-linecap:round; stroke-linejoin:round;">
<path style="fill:#FFFFC2; fill-opacity:0.6; 
stroke:#FFFFC2; stroke-width:0; stroke-opacity:1; 
stroke-linecap:round; stroke-linejoin:round;fill-rule:evenodd;"
d="M 56500,30500
56500,33500
59500,32000
56500,30500
Z" /> 
</g>
<g style="fill:#840000; fill-opacity:0.6; 
stroke:#840000; stroke-width:0; stroke-opacity:1; 
stroke-linecap:round; stroke-linejoin:round;">
</g>
<g style="fill:#840000; fill-opacity:0.0; 
stroke:#840000; stroke-width:100; stroke-opacity:1; 
stroke-linecap:round; stroke-linejoin:round;">
<path style="fill:#840000; fill-opacity:0.0; 
stroke:#840000; stroke-width:100; stroke-opacity:1; 
stroke-linecap:round; stroke-linejoin:round;fill:none"
d="M 56500,30500
56500,33500
59500,32000
56500,30500
Z" /> 
</g>
<g style="fill:#840000; fill-opacity:0.0; 
stroke:#840000; stroke-width:60; stroke-opacity:1; 
stroke-linecap:round; stroke-linejoin:round;">
<path d="M56500 32000
L55000 32000
" />
<path d="M55860 31370
L55630 31370
L55600 31610
L55630 31590
L55670 31560
L55790 31560
L55840 31590
L55860 31610
L55890 31660
L55890 31780
L55860 31820
L55840 31850
L55790 31870
L55670 31870
L55630 31850
L55600 31820
" />
<circle cx="59750" cy="32000" r="250" /> 
<path d="M60000 32000
L61000 32000
" />
<path d="M60340 31370
L60250 31370
L60200 31400
L60170 31420
L60130 31490
L60100 31590
L60100 31780
L60130 31820
L60150 31850
L60200 31870
L60290 31870
L60340 31850
L60360 31820
L60390 31780
L60390 31660
L60360 31610
L60340 31590
L60290 31560
L60200 31560
L60150 31590
L60130 31610
L60100 31660
" />
</g>
<g style="fill:#008484; fill-opacity:0.0; 
stroke:#008484; stroke-width:60; stroke-opacity:1; 
stroke-linecap:round; stroke-linejoin:round;">
<path d="M57360 28570
L57360 28980
L57390 29020
L57410 29050
L57460 29070
L57550 29070
L57600 29050
L57630 29020
L57650 28980
L57650 28570
" />
<path d="M58130 28570
L57890 28570
L57860 28810
L57890 28790
L57940 28760
L58050 28760
L58100 28790
L58130 28810
L58150 28860
L58150 28980
L58130 29020
L58100 29050
L58050 29070
L57940 29070
L57890 29050
L57860 29020
" />
<path d="M58650 29020
L58630 29050
L58550 29070
L58510 29070
L58440 29050
L58390 29000
L58360 28950
L58340 28860
L58340 28790
L58360 28690
L58390 28640
L58440 28600
L58510 28570
L58550 28570
L58630 28600
L58650 28620
" />
<path d="M56600 29480
L56940 29480
L56720 29980
" />
<path d="M57340 29650
L57340 29980
" />
<path d="M57220 29460
L57100 29810
L57410 29810
" />
<path d="M57600 29980
L57600 29480
" />
<path d="M57600 29720
L57890 29720
" />
<path d="M57890 29980
L57890 29480
" />
<path d="M58410 29930
L58390 29960
L58320 29980
L58270 29980
L58200 29960
L58150 29910
L58130 29860
L58100 29770
L58100 29700
L58130 29600
L58150 29550
L58200 29510
L58270 29480
L58320 29480
L58390 29510
L58410 29530
" />
<path d="M58720 29480
L58770 29480
L58820 29510
L58840 29530
L58860 29580
L58890 29670
L58890 29790
L58860 29890
L58840 29930
L58820 29960
L58770 29980
L58720 29980
L58670 29960
L58650 29930
L58630 29890
L58600 29790
L58600 29670
L58630 29580
L58650 29530
L58670 29510
L58720 29480
" />
<path d="M59320 29650
L59320 29980
" />
<path d="M59200 29460
L59080 29810
L59390 29810
" />
</g>
</g>
<g style="fill:#008484; fill-opacity:0.0; 
stroke:#008484; stroke-width:0; stroke-opacity:1; 
stroke-linecap:round; stroke-linejoin:round;">
<g >
</g>
<g style="fill:#840000; fill-opacity:0.0; 
stroke:#840000; stroke-width:0; stroke-opacity:1; 
stroke-linecap:round; stroke-linejoin:round;">
</g>
<g style="fill:#840000; fill-opacity:0.0; 
stroke:#840000; stroke-width:200; stroke-opacity:1; 
stroke-linecap:round; stroke-linejoin:round;">
<path style="fill:#840000; fill-opacity:0.0; 
stroke:#840000; stroke-width:200; stroke-opacity:1; 
stroke-linecap:round; stroke-linejoin:round;fill:none"
d="M 76200,35700
76200,37300
Z" /> 
<path style="fill:#840000; fill-opacity:0.0; 
stroke:#840000; stroke-width:200; stroke-opacity:1; 
stroke-linecap:round; stroke-linejoin:round;fill:none"
d="M 76800,35700
76800,37300
Z" /> 
</g>
<g style="fill:#840000; fill-opacity:0.0; 
stroke:#840000; stroke-width:60; stroke-opacity:1; 
stroke-linecap:round; stroke-linejoin:round;">
<path d="M76900 36500
L78000 36500
" />
<path d="M76100 36500
L75000 36500
" />
</g>
<g style="fill:#008484; fill-opacity:0.0; 
stroke:#008484; stroke-width:60; stroke-opacity:1; 
stroke-linecap:round; stroke-linejoin:round;">
<path d="M76410 34170
L76390 34200
L76320 34220
L76270 34220
L76200 34200
L76150 34150
L76130 34100
L76100 34010
L76100 33940
L76130 33840
L76150 33790
L76200 33750
L76270 33720
L76320 33720
L76390 33750
L76410 33770
" />
<path d="M76580 33720
L76890 33720
L76720 33910
L76790 33910
L76840 33940
L76860 33960
L76890 34010
L76890 34130
L76860 34170
L76840 34200
L76790 34220
L76650 34220
L76600 34200
L76580 34170
" />
<path d="M75890 34630
L75940 34630
L75980 34660
L76010 34680
L76030 34730
L76050 34820
L76050 34940
L76030 35040
L76010 35080
L75980 35110
L75940 35130
L75890 35130
L75840 35110
L75820 35080
L75790 35040
L75770 34940
L75770 34820
L75790 34730
L75820 34680
L75840 34660
L75890 34630
" />
<path d="M76270 35080
L76290 35110
L76270 35130
L76250 35110
L76270 35080
L76270 35130
" />
<path d="M76770 35130
L76480 35130
" />
<path d="M76630 35130
L76630 34630
L76580 34700
L76530 34750
L76480 34770
" />
<path d="M77200 34800
L77200 35130
" />
<path d="M76980 34800
L76980 35060
L77010 35110
L77050 35130
L77130 35130
L77170 35110
L77200 35080
" />
</g>
</g>
<g style="fill:#008484; fill-opacity:0.0; 
stroke:#008484; stroke-width:0; stroke-opacity:1; 
stroke-linecap:round; stroke-linejoin:round;">
<g >
</g>
<g style="fill:#840000; fill-opacity:0.0; 
stroke:#840000; stroke-width:0; stroke-opacity:1; 
stroke-linecap:round; stroke-linejoin:round;">
</g>
<g style="fill:#840000; fill-opacity:0.0; 
stroke:#840000; stroke-width:100; stroke-opacity:1; 
stroke-linecap:round; stroke-linejoin:round;">
<rect x="70100" y="39500" width="800" height="2000" rx="0" />
</g>
<g style="fill:#840000; fill-opacity:0.0; 
stroke:#840000; stroke-width:60; stroke-opacity:1; 
stroke-linecap:round; stroke-linejoin:round;">
<path d="M70500 39500
L70500 39000
" />
<path d="M70500 41500
L70500 42000
" />
</g>
<g style="fill:#008484; fill-opacity:0.0; 
stroke:#008484; stroke-width:60; stroke-opacity:1; 
stroke-linecap:round; stroke-linejoin:round;">
<path d="M71630 40280
L71470 40040
" />
<path d="M71350 40280
L71350 39780
L71540 39780
L71580 39810
L71610 39830
L71630 39880
L71630 39950
L71610 40000
L71580 40020
L71540 40040
L71350 40040
" />
<path d="M72060 39780
L71970 39780
L71920 39810
L71890 39830
L71850 39900
L71820 40000
L71820 40190
L71850 40230
L71870 40260
L71920 40280
L72010 40280
L72060 40260
L72080 40230
L72110 40190
L72110 40070
L72080 40020
L72060 40000
L72010 39970
L71920 39970
L71870 40000
L71850 40020
L71820 40070
" />
<path d="M71600 41190
L71320 41190
" />
<path d="M71460 41190
L71460 40690
L71410 40760
L71360 40810
L71320 40830
" />
<path d="M72080 41190
L71790 41190
" />
<path d="M71940 41190
L71940 40690
L71890 40760
L71840 40810
L71790 40830
" />
<path d="M72390 40690
L72440 40690
L72480 40720
L72510 40740
L72530 40790
L72550 40880
L72550 41000
L72530 41100
L72510 41140
L72480 41170
L72440 41190
L72390 41190
L72340 41170
L72320 41140
L72290 41100
L72270 41000
L72270 40880
L72290 40790
L72320 40740
L72340 40720
L72390 40690
" />
</g>
</g>
<g style="fill:#008484; fill-opacity:0.0; 
stroke:#008484; stroke-width:0; stroke-opacity:1; 
stroke-linecap:round; stroke-linejoin:round;">
<g >
</g>
<g style="fill:#840000; fill-opacity:0.0; 
stroke:#840000; stroke-width:0; stroke-opacity:1; 
stroke-linecap:round; stroke-linejoin:round;">
</g>
<g style="fill:#840000; fill-opacity:0.0; 
stroke:#840000; stroke-width:100; stroke-opacity:1; 
stroke-linecap:round; stroke-linejoin:round;">
<rect x="65500" y="36100" width="2000" height="800" rx="0" />
</g>
<g style="fill:#840000; fill-opacity:0.0; 
stroke:#840000; stroke-width:60; stroke-opacity:1; 
stroke-linecap:round; stroke-linejoin:round;">
<path d="M67500 36500
L68000 36500
" />
<path d="M65500 36500
L65000 36500
" />
</g>
<g style="fill:#008484; fill-opacity:0.0; 
stroke:#008484; stroke-width:60; stroke-opacity:1; 
stroke-linecap:round; stroke-linejoin:round;">
<path d="M66410 34670
L66250 34430
" />
<path d="M66130 34670
L66130 34170
L66320 34170
L66360 34200
L66390 34220
L66410 34270
L66410 34340
L66390 34390
L66360 34410
L66320 34430
L66130 34430
" />
<path d="M66860 34170
L66630 34170
L66600 34410
L66630 34390
L66670 34360
L66790 34360
L66840 34390
L66860 34410
L66890 34460
L66890 34580
L66860 34620
L66840 34650
L66790 34670
L66670 34670
L66630 34650
L66600 34620
" />
<path d="M65880 35130
L65900 35110
L65950 35080
L66070 35080
L66110 35110
L66140 35130
L66160 35180
L66160 35220
L66140 35300
L65850 35580
L66160 35580
" />
<path d="M66640 35580
L66350 35580
" />
<path d="M66500 35580
L66500 35080
L66450 35150
L66400 35200
L66350 35220
" />
<path d="M66950 35080
L67000 35080
L67040 35110
L67070 35130
L67090 35180
L67110 35270
L67110 35390
L67090 35490
L67070 35530
L67040 35560
L67000 35580
L66950 35580
L66900 35560
L66880 35530
L66850 35490
L66830 35390
L66830 35270
L66850 35180
L66880 35130
L66900 35110
L66950 35080
" />
</g>
</g>
<g style="fill:#008484; fill-opacity:0.0; 
stroke:#008484; stroke-width:0; stroke-opacity:1; 
stroke-linecap:round; stroke-linejoin:round;">
<g >
</g>
<g style="fill:#840000; fill-opacity:0.0; 
stroke:#840000; stroke-width:0; stroke-opacity:1; 
stroke-linecap:round; stroke-linejoin:round;">
</g>
<g style="fill:#840000; fill-opacity:0.0; 
stroke:#840000; stroke-width:200; stroke-opacity:1; 
stroke-linecap:round; stroke-linejoin:round;">
<path style="fill:#840000; fill-opacity:0.0; 
stroke:#840000; stroke-width:200; stroke-opacity:1; 
stroke-linecap:round; stroke-linejoin:round;fill:none"
d="M 42700,46800
44300,46800
Z" /> 
<path style="fill:#840000; fill-opacity:0.0; 
stroke:#840000; stroke-width:200; stroke-opacity:1; 
stroke-linecap:round; stroke-linejoin:round;fill:none"
d="M 42700,46200
44300,46200
Z" /> 
</g>
<g style="fill:#840000; fill-opacity:0.0; 
stroke:#840000; stroke-width:60; stroke-opacity:1; 
stroke-linecap:round; stroke-linejoin:round;">
<path d="M43500 46100
L43500 45000
" />
<path d="M43500 46900
L43500 48000
" />
</g>
<g style="fill:#008484; fill-opacity:0.0; 
stroke:#008484; stroke-width:60; stroke-opacity:1; 
stroke-linecap:round; stroke-linejoin:round;">
<path d="M45080 46230
L45060 46260
L44990 46280
L44940 46280
L44870 46260
L44820 46210
L44800 46160
L44770 46070
L44770 46000
L44800 45900
L44820 45850
L44870 45810
L44940 45780
L44990 45780
L45060 45810
L45080 45830
" />
<path d="M45320 46280
L45420 46280
L45460 46260
L45490 46230
L45530 46160
L45560 46070
L45560 45880
L45530 45830
L45510 45810
L45460 45780
L45370 45780
L45320 45810
L45300 45830
L45270 45880
L45270 46000
L45300 46040
L45320 46070
L45370 46090
L45460 46090
L45510 46070
L45530 46040
L45560 46000
" />
<path d="M44880 46690
L44930 46690
L44980 46720
L45000 46740
L45030 46790
L45050 46880
L45050 47000
L45030 47100
L45000 47140
L44980 47170
L44930 47190
L44880 47190
L44840 47170
L44810 47140
L44790 47100
L44760 47000
L44760 46880
L44790 46790
L44810 46740
L44840 46720
L44880 46690
" />
<path d="M45260 47140
L45290 47170
L45260 47190
L45240 47170
L45260 47140
L45260 47190
" />
<path d="M45760 47190
L45480 47190
" />
<path d="M45620 47190
L45620 46690
L45570 46760
L45530 46810
L45480 46830
" />
<path d="M46190 46860
L46190 47190
" />
<path d="M45980 46860
L45980 47120
L46000 47170
L46050 47190
L46120 47190
L46170 47170
L46190 47140
" />
<path d="M46600 46930
L46430 46930
" />
<path d="M46430 47190
L46430 46690
L46670 46690
" />
</g>
</g>
<g style="fill:#008484; fill-opacity:0.0; 
stroke:#008484; stroke-width:0; stroke-opacity:1; 
stroke-linecap:round; stroke-linejoin:round;">
<g >
</g>
<g style="fill:#840000; fill-opacity:0.0; 
stroke:#840000; stroke-width:0; stroke-opacity:1; 
stroke-linecap:round; stroke-linejoin:round;">
</g>
<g style="fill:#FFFFC2; fill-opacity:0.0; 
stroke:#FFFFC2; stroke-width:0; stroke-opacity:1; 
stroke-linecap:round; stroke-linejoin:round;">
</g>
<g style="fill:#FFFFC2; fill-opacity:0.6; 
stroke:#FFFFC2; stroke-width:0; stroke-opacity:1; 
stroke-linecap:round; stroke-linejoin:round;">
<rect x="47500" y="43500" width="4000" height="6000" rx="0" />
</g>
<g style="fill:#840000; fill-opacity:0.6; 
stroke:#840000; stroke-width:0; stroke-opacity:1; 
stroke-linecap:round; stroke-linejoin:round;">
</g>
<g style="fill:#840000; fill-opacity:0.0; 
stroke:#840000; stroke-width:100; stroke-opacity:1; 
stroke-linecap:round; stroke-linejoin:round;">
<rect x="47500" y="43500" width="4000" height="6000" rx="0" />
</g>
<g style="fill:#840000; fill-opacity:0.0; 
stroke:#840000; stroke-width:60; stroke-opacity:1; 
stroke-linecap:round; stroke-linejoin:round;">
<path d="M49500 43500
L49500 41500
" />
</g>
<g style="fill:#008484; fill-opacity:0.0; 
stroke:#008484; stroke-width:60; stroke-opacity:1; 
stroke-linecap:round; stroke-linejoin:round;">
<path d="M49220 45110
L49720 44940
L49220 44770
" />
<path d="M49670 44320
L49700 44340
L49720 44420
L49720 44460
L49700 44530
L49650 44580
L49600 44610
L49510 44630
L49440 44630
L49340 44610
L49290 44580
L49250 44530
L49220 44460
L49220 44420
L49250 44340
L49270 44320
" />
<path d="M49670 43820
L49700 43840
L49720 43920
L49720 43960
L49700 44030
L49650 44080
L49600 44110
L49510 44130
L49440 44130
L49340 44110
L49290 44080
L49250 44030
L49220 43960
L49220 43920
L49250 43840
L49270 43820
" />
</g>
<g style="fill:#840000; fill-opacity:0.0; 
stroke:#840000; stroke-width:60; stroke-opacity:1; 
stroke-linecap:round; stroke-linejoin:round;">
<path d="M49370 42590
L49370 42880
" />
<path d="M49370 42730
L48870 42730
L48940 42780
L48990 42830
L49010 42880
" />
<path d="M49040 42160
L49370 42160
" />
<path d="M48850 42280
L49200 42400
L49200 42090
" />
<path d="M49500 49500
L49500 51500
" />
</g>
<g style="fill:#008484; fill-opacity:0.0; 
stroke:#008484; stroke-width:60; stroke-opacity:1; 
stroke-linecap:round; stroke-linejoin:round;">
<path d="M49250 48880
L49220 48930
L49220 49000
L49250 49070
L49290 49120
L49340 49150
L49440 49170
L49510 49170
L49600 49150
L49650 49120
L49700 49070
L49720 49000
L49720 48960
L49700 48880
L49670 48860
L49510 48860
L49510 48960
" />
<path d="M49720 48650
L49220 48650
L49720 48360
L49220 48360
" />
<path d="M49720 48120
L49220 48120
L49220 48000
L49250 47930
L49290 47880
L49340 47860
L49440 47840
L49510 47840
L49600 47860
L49650 47880
L49700 47930
L49720 48000
L49720 48120
" />
</g>
<g style="fill:#840000; fill-opacity:0.0; 
stroke:#840000; stroke-width:60; stroke-opacity:1; 
stroke-linecap:round; stroke-linejoin:round;">
<path d="M48870 50660
L48870 50330
L49370 50540
" />
</g>
<g style="fill:#008484; fill-opacity:0.0; 
stroke:#008484; stroke-width:60; stroke-opacity:1; 
stroke-linecap:round; stroke-linejoin:round;">
<path d="M51940 45780
L51940 46190
L51970 46230
L51990 46260
L52040 46280
L52130 46280
L52180 46260
L52210 46230
L52230 46190
L52230 45780
" />
<path d="M52710 45780
L52470 45780
L52440 46020
L52470 46000
L52520 45970
L52630 45970
L52680 46000
L52710 46020
L52730 46070
L52730 46190
L52710 46230
L52680 46260
L52630 46280
L52520 46280
L52470 46260
L52440 46230
" />
<path d="M53210 45810
L53160 45780
L53090 45780
L53020 45810
L52970 45850
L52940 45900
L52920 46000
L52920 46070
L52940 46160
L52970 46210
L53020 46260
L53090 46280
L53130 46280
L53210 46260
L53230 46230
L53230 46070
L53130 46070
" />
<path d="M51890 46690
L52230 46690
L52010 47190
" />
<path d="M52630 46860
L52630 47190
" />
<path d="M52510 46670
L52390 47020
L52700 47020
" />
<path d="M52890 47190
L52890 46690
" />
<path d="M52890 46930
L53180 46930
" />
<path d="M53180 47190
L53180 46690
" />
<path d="M53700 47140
L53680 47170
L53610 47190
L53560 47190
L53490 47170
L53440 47120
L53420 47070
L53390 46980
L53390 46910
L53420 46810
L53440 46760
L53490 46720
L53560 46690
L53610 46690
L53680 46720
L53700 46740
" />
<path d="M54010 46690
L54060 46690
L54110 46720
L54130 46740
L54150 46790
L54180 46880
L54180 47000
L54150 47100
L54130 47140
L54110 47170
L54060 47190
L54010 47190
L53960 47170
L53940 47140
L53920 47100
L53890 47000
L53890 46880
L53920 46790
L53940 46740
L53960 46720
L54010 46690
" />
<path d="M54610 46860
L54610 47190
" />
<path d="M54490 46670
L54370 47020
L54680 47020
" />
</g>
</g>
<g style="fill:#008484; fill-opacity:0.0; 
stroke:#008484; stroke-width:0; stroke-opacity:1; 
stroke-linecap:round; stroke-linejoin:round;">
<g >
</g>
<g style="fill:#840000; fill-opacity:0.0; 
stroke:#840000; stroke-width:0; stroke-opacity:1; 
stroke-linecap:round; stroke-linejoin:round;">
</g>
<g style="fill:#FFFFC2; fill-opacity:0.0; 
stroke:#FFFFC2; stroke-width:0; stroke-opacity:1; 
stroke-linecap:round; stroke-linejoin:round;">
</g>
<g style="fill:#FFFFC2; fill-opacity:0.6; 
stroke:#FFFFC2; stroke-width:0; stroke-opacity:1; 
stroke-linecap:round; stroke-linejoin:round;">
<path style="fill:#FFFFC2; fill-opacity:0.6; 
stroke:#FFFFC2; stroke-width:0; stroke-opacity:1; 
stroke-linecap:round; stroke-linejoin:round;fill-rule:evenodd;"
d="M 56500,26000
56500,29000
59500,27500
56500,26000
Z" /> 
</g>
<g style="fill:#840000; fill-opacity:0.6; 
stroke:#840000; stroke-width:0; stroke-opacity:1; 
stroke-linecap:round; stroke-linejoin:round;">
</g>
<g style="fill:#840000; fill-opacity:0.0; 
stroke:#840000; stroke-width:100; stroke-opacity:1; 
stroke-linecap:round; stroke-linejoin:round;">
<path style="fill:#840000; fill-opacity:0.0; 
stroke:#840000; stroke-width:100; stroke-opacity:1; 
stroke-linecap:round; stroke-linejoin:round;fill:none"
d="M 56500,26000
56500,29000
59500,27500
56500,26000
Z" /> 
</g>
<g style="fill:#840000; fill-opacity:0.0; 
stroke:#840000; stroke-width:60; stroke-opacity:1; 
stroke-linecap:round; stroke-linejoin:round;">
<path d="M56500 27500
L55000 27500
" />
<path d="M55580 26870
L55890 26870
L55720 27060
L55790 27060
L55840 27090
L55860 27110
L55890 27160
L55890 27280
L55860 27320
L55840 27350
L55790 27370
L55650 27370
L55600 27350
L55580 27320
" />
<circle cx="59750" cy="27500" r="250" /> 
<path d="M60000 27500
L61000 27500
" />
<path d="M60340 27040
L60340 27370
" />
<path d="M60220 26850
L60100 27200
L60410 27200
" />
</g>
<g style="fill:#008484; fill-opacity:0.0; 
stroke:#008484; stroke-width:60; stroke-opacity:1; 
stroke-linecap:round; stroke-linejoin:round;">
<path d="M57360 24070
L57360 24480
L57390 24520
L57410 24550
L57460 24570
L57550 24570
L57600 24550
L57630 24520
L57650 24480
L57650 24070
" />
<path d="M58130 24070
L57890 24070
L57860 24310
L57890 24290
L57940 24260
L58050 24260
L58100 24290
L58130 24310
L58150 24360
L58150 24480
L58130 24520
L58100 24550
L58050 24570
L57940 24570
L57890 24550
L57860 24520
" />
<path d="M58530 24310
L58600 24330
L58630 24360
L58650 24400
L58650 24480
L58630 24520
L58600 24550
L58550 24570
L58360 24570
L58360 24070
L58530 24070
L58580 24100
L58600 24120
L58630 24170
L58630 24210
L58600 24260
L58580 24290
L58530 24310
L58360 24310
" />
<path d="M56600 24980
L56940 24980
L56720 25480
" />
<path d="M57340 25150
L57340 25480
" />
<path d="M57220 24960
L57100 25310
L57410 25310
" />
<path d="M57600 25480
L57600 24980
" />
<path d="M57600 25220
L57890 25220
" />
<path d="M57890 25480
L57890 24980
" />
<path d="M58410 25430
L58390 25460
L58320 25480
L58270 25480
L58200 25460
L58150 25410
L58130 25360
L58100 25270
L58100 25200
L58130 25100
L58150 25050
L58200 25010
L58270 24980
L58320 24980
L58390 25010
L58410 25030
" />
<path d="M58720 24980
L58770 24980
L58820 25010
L58840 25030
L58860 25080
L58890 25170
L58890 25290
L58860 25390
L58840 25430
L58820 25460
L58770 25480
L58720 25480
L58670 25460
L58650 25430
L58630 25390
L58600 25290
L58600 25170
L58630 25080
L58650 25030
L58670 25010
L58720 24980
" />
<path d="M59320 25150
L59320 25480
" />
<path d="M59200 24960
L59080 25310
L59390 25310
" />
</g>
</g>
<g style="fill:#008484; fill-opacity:0.0; 
stroke:#008484; stroke-width:0; stroke-opacity:1; 
stroke-linecap:round; stroke-linejoin:round;">
<g >
</g>
<g style="fill:#840000; fill-opacity:0.0; 
stroke:#840000; stroke-width:0; stroke-opacity:1; 
stroke-linecap:round; stroke-linejoin:round;">
</g>
<g style="fill:#FFFFC2; fill-opacity:0.0; 
stroke:#FFFFC2; stroke-width:0; stroke-opacity:1; 
stroke-linecap:round; stroke-linejoin:round;">
</g>
<g style="fill:#FFFFC2; fill-opacity:0.6; 
stroke:#FFFFC2; stroke-width:0; stroke-opacity:1; 
stroke-linecap:round; stroke-linejoin:round;">
<path style="fill:#FFFFC2; fill-opacity:0.6; 
stroke:#FFFFC2; stroke-width:0; stroke-opacity:1; 
stroke-linecap:round; stroke-linejoin:round;fill-rule:evenodd;"
d="M 48000,35000
48000,38000
51000,36500
48000,35000
Z" /> 
</g>
<g style="fill:#840000; fill-opacity:0.6; 
stroke:#840000; stroke-width:0; stroke-opacity:1; 
stroke-linecap:round; stroke-linejoin:round;">
</g>
<g style="fill:#840000; fill-opacity:0.0; 
stroke:#840000; stroke-width:100; stroke-opacity:1; 
stroke-linecap:round; stroke-linejoin:round;">
<path style="fill:#840000; fill-opacity:0.0; 
stroke:#840000; stroke-width:100; stroke-opacity:1; 
stroke-linecap:round; stroke-linejoin:round;fill:none"
d="M 48000,35000
48000,38000
51000,36500
48000,35000
Z" /> 
</g>
<g style="fill:#840000; fill-opacity:0.0; 
stroke:#840000; stroke-width:60; stroke-opacity:1; 
stroke-linecap:round; stroke-linejoin:round;">
<path d="M48000 36500
L46500 36500
" />
<path d="M47390 36370
L47100 36370
" />
<path d="M47250 36370
L47250 35870
L47200 35940
L47150 35990
L47100 36010
" />
<circle cx="51250" cy="36500" r="250" /> 
<path d="M51500 36500
L52500 36500
" />
<path d="M51600 35920
L51630 35900
L51670 35870
L51790 35870
L51840 35900
L51860 35920
L51890 35970
L51890 36010
L51860 36090
L51580 36370
L51890 36370
" />
</g>
<g style="fill:#008484; fill-opacity:0.0; 
stroke:#008484; stroke-width:60; stroke-opacity:1; 
stroke-linecap:round; stroke-linejoin:round;">
<path d="M48900 33070
L48900 33480
L48920 33520
L48950 33550
L49000 33570
L49090 33570
L49140 33550
L49160 33520
L49190 33480
L49190 33070
" />
<path d="M49660 33070
L49420 33070
L49400 33310
L49420 33290
L49470 33260
L49590 33260
L49640 33290
L49660 33310
L49690 33360
L49690 33480
L49660 33520
L49640 33550
L49590 33570
L49470 33570
L49420 33550
L49400 33520
" />
<path d="M49880 33430
L50110 33430
" />
<path d="M49830 33570
L50000 33070
L50160 33570
" />
<path d="M48100 33980
L48440 33980
L48220 34480
" />
<path d="M48840 34150
L48840 34480
" />
<path d="M48720 33960
L48600 34310
L48910 34310
" />
<path d="M49100 34480
L49100 33980
" />
<path d="M49100 34220
L49390 34220
" />
<path d="M49390 34480
L49390 33980
" />
<path d="M49910 34430
L49890 34460
L49820 34480
L49770 34480
L49700 34460
L49650 34410
L49630 34360
L49600 34270
L49600 34200
L49630 34100
L49650 34050
L49700 34010
L49770 33980
L49820 33980
L49890 34010
L49910 34030
" />
<path d="M50220 33980
L50270 33980
L50320 34010
L50340 34030
L50360 34080
L50390 34170
L50390 34290
L50360 34390
L50340 34430
L50320 34460
L50270 34480
L50220 34480
L50170 34460
L50150 34430
L50130 34390
L50100 34290
L50100 34170
L50130 34080
L50150 34030
L50170 34010
L50220 33980
" />
<path d="M50820 34150
L50820 34480
" />
<path d="M50700 33960
L50580 34310
L50890 34310
" />
</g>
</g>
<g style="fill:#008484; fill-opacity:0.0; 
stroke:#008484; stroke-width:0; stroke-opacity:1; 
stroke-linecap:round; stroke-linejoin:round;">
<g >
</g>
<g style="fill:#840000; fill-opacity:0.0; 
stroke:#840000; stroke-width:0; stroke-opacity:1; 
stroke-linecap:round; stroke-linejoin:round;">
</g>
<g style="fill:#FFFFC2; fill-opacity:0.0; 
stroke:#FFFFC2; stroke-width:0; stroke-opacity:1; 
stroke-linecap:round; stroke-linejoin:round;">
</g>
<g style="fill:#FFFFC2; fill-opacity:0.6; 
stroke:#FFFFC2; stroke-width:0; stroke-opacity:1; 
stroke-linecap:round; stroke-linejoin:round;">
<path style="fill:#FFFFC2; fill-opacity:0.6; 
stroke:#FFFFC2; stroke-width:0; stroke-opacity:1; 
stroke-linecap:round; stroke-linejoin:round;fill-rule:evenodd;"
d="M 56500,44000
56500,47000
59500,45500
56500,44000
Z" /> 
</g>
<g style="fill:#840000; fill-opacity:0.6; 
stroke:#840000; stroke-width:0; stroke-opacity:1; 
stroke-linecap:round; stroke-linejoin:round;">
</g>
<g style="fill:#840000; fill-opacity:0.0; 
stroke:#840000; stroke-width:100; stroke-opacity:1; 
stroke-linecap:round; stroke-linejoin:round;">
<path style="fill:#840000; fill-opacity:0.0; 
stroke:#840000; stroke-width:100; stroke-opacity:1; 
stroke-linecap:round; stroke-linejoin:round;fill:none"
d="M 56500,44000
56500,47000
59500,45500
56500,44000
Z" /> 
</g>
<g style="fill:#840000; fill-opacity:0.0; 
stroke:#840000; stroke-width:60; stroke-opacity:1; 
stroke-linecap:round; stroke-linejoin:round;">
<circle cx="59750" cy="45500" r="250" /> 
<path d="M60000 45500
L61000 45500
" />
<path d="M60150 45370
L59860 45370
" />
<path d="M60010 45370
L60010 44870
L59960 44940
L59910 44990
L59860 45010
" />
<path d="M60340 44920
L60360 44900
L60410 44870
L60530 44870
L60580 44900
L60600 44920
L60630 44970
L60630 45010
L60600 45090
L60320 45370
L60630 45370
" />
<path d="M56500 45500
L55000 45500
" />
<path d="M55650 45370
L55360 45370
" />
<path d="M55510 45370
L55510 44870
L55460 44940
L55410 44990
L55360 45010
" />
<path d="M55820 44870
L56130 44870
L55960 45060
L56030 45060
L56080 45090
L56100 45110
L56130 45160
L56130 45280
L56100 45320
L56080 45350
L56030 45370
L55890 45370
L55840 45350
L55820 45320
" />
</g>
<g style="fill:#008484; fill-opacity:0.0; 
stroke:#008484; stroke-width:60; stroke-opacity:1; 
stroke-linecap:round; stroke-linejoin:round;">
<path d="M57400 42070
L57400 42480
L57420 42520
L57450 42550
L57500 42570
L57590 42570
L57640 42550
L57660 42520
L57690 42480
L57690 42070
" />
<path d="M58160 42070
L57920 42070
L57900 42310
L57920 42290
L57970 42260
L58090 42260
L58140 42290
L58160 42310
L58190 42360
L58190 42480
L58160 42520
L58140 42550
L58090 42570
L57970 42570
L57920 42550
L57900 42520
" />
<path d="M58570 42310
L58400 42310
" />
<path d="M58400 42570
L58400 42070
L58640 42070
" />
<path d="M56600 42980
L56940 42980
L56720 43480
" />
<path d="M57340 43150
L57340 43480
" />
<path d="M57220 42960
L57100 43310
L57410 43310
" />
<path d="M57600 43480
L57600 42980
" />
<path d="M57600 43220
L57890 43220
" />
<path d="M57890 43480
L57890 42980
" />
<path d="M58410 43430
L58390 43460
L58320 43480
L58270 43480
L58200 43460
L58150 43410
L58130 43360
L58100 43270
L58100 43200
L58130 43100
L58150 43050
L58200 43010
L58270 42980
L58320 42980
L58390 43010
L58410 43030
" />
<path d="M58720 42980
L58770 42980
L58820 43010
L58840 43030
L58860 43080
L58890 43170
L58890 43290
L58860 43390
L58840 43430
L58820 43460
L58770 43480
L58720 43480
L58670 43460
L58650 43430
L58630 43390
L58600 43290
L58600 43170
L58630 43080
L58650 43030
L58670 43010
L58720 42980
" />
<path d="M59320 43150
L59320 43480
" />
<path d="M59200 42960
L59080 43310
L59390 43310
" />
</g>
</g>
<g style="fill:#008484; fill-opacity:0.0; 
stroke:#008484; stroke-width:0; stroke-opacity:1; 
stroke-linecap:round; stroke-linejoin:round;">
<g >
</g>
<g style="fill:#840000; fill-opacity:0.0; 
stroke:#840000; stroke-width:0; stroke-opacity:1; 
stroke-linecap:round; stroke-linejoin:round;">
</g>
<g style="fill:#FFFFC2; fill-opacity:0.0; 
stroke:#FFFFC2; stroke-width:0; stroke-opacity:1; 
stroke-linecap:round; stroke-linejoin:round;">
</g>
<g style="fill:#FFFFC2; fill-opacity:0.6; 
stroke:#FFFFC2; stroke-width:0; stroke-opacity:1; 
stroke-linecap:round; stroke-linejoin:round;">
<path style="fill:#FFFFC2; fill-opacity:0.6; 
stroke:#FFFFC2; stroke-width:0; stroke-opacity:1; 
stroke-linecap:round; stroke-linejoin:round;fill-rule:evenodd;"
d="M 56500,39500
56500,42500
59500,41000
56500,39500
Z" /> 
</g>
<g style="fill:#840000; fill-opacity:0.6; 
stroke:#840000; stroke-width:0; stroke-opacity:1; 
stroke-linecap:round; stroke-linejoin:round;">
</g>
<g style="fill:#840000; fill-opacity:0.0; 
stroke:#840000; stroke-width:100; stroke-opacity:1; 
stroke-linecap:round; stroke-linejoin:round;">
<path style="fill:#840000; fill-opacity:0.0; 
stroke:#840000; stroke-width:100; stroke-opacity:1; 
stroke-linecap:round; stroke-linejoin:round;fill:none"
d="M 56500,39500
56500,42500
59500,41000
56500,39500
Z" /> 
</g>
<g style="fill:#840000; fill-opacity:0.0; 
stroke:#840000; stroke-width:60; stroke-opacity:1; 
stroke-linecap:round; stroke-linejoin:round;">
<circle cx="59750" cy="41000" r="250" /> 
<path d="M60000 41000
L61000 41000
" />
<path d="M60150 40870
L59860 40870
" />
<path d="M60010 40870
L60010 40370
L59960 40440
L59910 40490
L59860 40510
" />
<path d="M60460 40370
L60510 40370
L60550 40400
L60580 40420
L60600 40470
L60630 40560
L60630 40680
L60600 40780
L60580 40820
L60550 40850
L60510 40870
L60460 40870
L60410 40850
L60390 40820
L60360 40780
L60340 40680
L60340 40560
L60360 40470
L60390 40420
L60410 40400
L60460 40370
" />
<path d="M56500 41000
L55000 41000
" />
<path d="M55650 40870
L55360 40870
" />
<path d="M55510 40870
L55510 40370
L55460 40440
L55410 40490
L55360 40510
" />
<path d="M56130 40870
L55840 40870
" />
<path d="M55980 40870
L55980 40370
L55940 40440
L55890 40490
L55840 40510
" />
</g>
<g style="fill:#008484; fill-opacity:0.0; 
stroke:#008484; stroke-width:60; stroke-opacity:1; 
stroke-linecap:round; stroke-linejoin:round;">
<path d="M57390 37570
L57390 37980
L57410 38020
L57440 38050
L57480 38070
L57580 38070
L57630 38050
L57650 38020
L57670 37980
L57670 37570
" />
<path d="M58150 37570
L57910 37570
L57890 37810
L57910 37790
L57960 37760
L58080 37760
L58130 37790
L58150 37810
L58170 37860
L58170 37980
L58150 38020
L58130 38050
L58080 38070
L57960 38070
L57910 38050
L57890 38020
" />
<path d="M58390 37810
L58550 37810
" />
<path d="M58630 38070
L58390 38070
L58390 37570
L58630 37570
" />
<path d="M56600 38480
L56940 38480
L56720 38980
" />
<path d="M57340 38650
L57340 38980
" />
<path d="M57220 38460
L57100 38810
L57410 38810
" />
<path d="M57600 38980
L57600 38480
" />
<path d="M57600 38720
L57890 38720
" />
<path d="M57890 38980
L57890 38480
" />
<path d="M58410 38930
L58390 38960
L58320 38980
L58270 38980
L58200 38960
L58150 38910
L58130 38860
L58100 38770
L58100 38700
L58130 38600
L58150 38550
L58200 38510
L58270 38480
L58320 38480
L58390 38510
L58410 38530
" />
<path d="M58720 38480
L58770 38480
L58820 38510
L58840 38530
L58860 38580
L58890 38670
L58890 38790
L58860 38890
L58840 38930
L58820 38960
L58770 38980
L58720 38980
L58670 38960
L58650 38930
L58630 38890
L58600 38790
L58600 38670
L58630 38580
L58650 38530
L58670 38510
L58720 38480
" />
<path d="M59320 38650
L59320 38980
" />
<path d="M59200 38460
L59080 38810
L59390 38810
" />
</g>
</g>
<g style="fill:#008484; fill-opacity:0.0; 
stroke:#008484; stroke-width:0; stroke-opacity:1; 
stroke-linecap:round; stroke-linejoin:round;">
<g >
</g>
<g style="fill:#840000; fill-opacity:0.0; 
stroke:#840000; stroke-width:0; stroke-opacity:1; 
stroke-linecap:round; stroke-linejoin:round;">
</g>
<g style="fill:#FFFFC2; fill-opacity:0.0; 
stroke:#FFFFC2; stroke-width:0; stroke-opacity:1; 
stroke-linecap:round; stroke-linejoin:round;">
</g>
<g style="fill:#FFFFC2; fill-opacity:0.6; 
stroke:#FFFFC2; stroke-width:0; stroke-opacity:1; 
stroke-linecap:round; stroke-linejoin:round;">
<path style="fill:#FFFFC2; fill-opacity:0.6; 
stroke:#FFFFC2; stroke-width:0; stroke-opacity:1; 
stroke-linecap:round; stroke-linejoin:round;fill-rule:evenodd;"
d="M 56500,35000
56500,38000
59500,36500
56500,35000
Z" /> 
</g>
<g style="fill:#840000; fill-opacity:0.6; 
stroke:#840000; stroke-width:0; stroke-opacity:1; 
stroke-linecap:round; stroke-linejoin:round;">
</g>
<g style="fill:#840000; fill-opacity:0.0; 
stroke:#840000; stroke-width:100; stroke-opacity:1; 
stroke-linecap:round; stroke-linejoin:round;">
<path style="fill:#840000; fill-opacity:0.0; 
stroke:#840000; stroke-width:100; stroke-opacity:1; 
stroke-linecap:round; stroke-linejoin:round;fill:none"
d="M 56500,35000
56500,38000
59500,36500
56500,35000
Z" /> 
</g>
<g style="fill:#840000; fill-opacity:0.0; 
stroke:#840000; stroke-width:60; stroke-opacity:1; 
stroke-linecap:round; stroke-linejoin:round;">
<circle cx="59750" cy="36500" r="250" /> 
<path d="M60000 36500
L61000 36500
" />
<path d="M60200 36090
L60150 36060
L60130 36040
L60100 35990
L60100 35970
L60130 35920
L60150 35900
L60200 35870
L60290 35870
L60340 35900
L60360 35920
L60390 35970
L60390 35990
L60360 36040
L60340 36060
L60290 36090
L60200 36090
L60150 36110
L60130 36130
L60100 36180
L60100 36280
L60130 36320
L60150 36350
L60200 36370
L60290 36370
L60340 36350
L60360 36320
L60390 36280
L60390 36180
L60360 36130
L60340 36110
L60290 36090
" />
<path d="M56500 36500
L55000 36500
" />
<path d="M55650 36370
L55750 36370
L55790 36350
L55820 36320
L55860 36250
L55890 36160
L55890 35970
L55860 35920
L55840 35900
L55790 35870
L55700 35870
L55650 35900
L55630 35920
L55600 35970
L55600 36090
L55630 36130
L55650 36160
L55700 36180
L55790 36180
L55840 36160
L55860 36130
L55890 36090
" />
</g>
<g style="fill:#008484; fill-opacity:0.0; 
stroke:#008484; stroke-width:60; stroke-opacity:1; 
stroke-linecap:round; stroke-linejoin:round;">
<path d="M57360 33070
L57360 33480
L57390 33520
L57410 33550
L57460 33570
L57550 33570
L57600 33550
L57630 33520
L57650 33480
L57650 33070
" />
<path d="M58130 33070
L57890 33070
L57860 33310
L57890 33290
L57940 33260
L58050 33260
L58100 33290
L58130 33310
L58150 33360
L58150 33480
L58130 33520
L58100 33550
L58050 33570
L57940 33570
L57890 33550
L57860 33520
" />
<path d="M58360 33570
L58360 33070
L58480 33070
L58550 33100
L58600 33140
L58630 33190
L58650 33290
L58650 33360
L58630 33450
L58600 33500
L58550 33550
L58480 33570
L58360 33570
" />
<path d="M56600 33980
L56940 33980
L56720 34480
" />
<path d="M57340 34150
L57340 34480
" />
<path d="M57220 33960
L57100 34310
L57410 34310
" />
<path d="M57600 34480
L57600 33980
" />
<path d="M57600 34220
L57890 34220
" />
<path d="M57890 34480
L57890 33980
" />
<path d="M58410 34430
L58390 34460
L58320 34480
L58270 34480
L58200 34460
L58150 34410
L58130 34360
L58100 34270
L58100 34200
L58130 34100
L58150 34050
L58200 34010
L58270 33980
L58320 33980
L58390 34010
L58410 34030
" />
<path d="M58720 33980
L58770 33980
L58820 34010
L58840 34030
L58860 34080
L58890 34170
L58890 34290
L58860 34390
L58840 34430
L58820 34460
L58770 34480
L58720 34480
L58670 34460
L58650 34430
L58630 34390
L58600 34290
L58600 34170
L58630 34080
L58650 34030
L58670 34010
L58720 33980
" />
<path d="M59320 34150
L59320 34480
" />
<path d="M59200 33960
L59080 34310
L59390 34310
" />
</g>
</g>
<g style="fill:#008484; fill-opacity:0.0; 
stroke:#008484; stroke-width:60; stroke-opacity:1; 
stroke-linecap:round; stroke-linejoin:round;">
</g>
<g style="fill:#008400; fill-opacity:0.0; 
stroke:#008400; stroke-width:60; stroke-opacity:1; 
stroke-linecap:round; stroke-linejoin:round;">
<path d="M43500 51500
L49500 51500
" />
<path d="M62500 45500
L61000 45500
" />
<path d="M78000 36500
L82000 36500
" />
<path d="M49500 51500
L70500 51500
" />
<path d="M41500 51500
L43500 51500
" />
<path d="M62500 41000
L62500 45500
" />
<path d="M41500 41500
L43500 41500
" />
<path d="M41500 36500
L46500 36500
" />
<path d="M62500 36500
L65000 36500
" />
<path d="M68000 36500
L70500 36500
" />
<path d="M70500 39000
L70500 36500
" />
<path d="M70500 36500
L75000 36500
" />
<path d="M70500 42000
L70500 51500
" />
<path d="M43500 45000
L43500 41500
" />
<path d="M43500 41500
L49500 41500
" />
<path d="M43500 48000
L43500 51500
" />
<path d="M62500 41000
L61000 41000
" />
<path d="M52500 36500
L53500 36500
" />
<path d="M53500 36500
L53500 32000
" />
<path d="M53500 32000
L55000 32000
" />
<path d="M53500 36500
L55000 36500
" />
<path d="M53500 32000
L53500 27500
" />
<path d="M53500 27500
L55000 27500
" />
<path d="M53500 36500
L53500 41000
" />
<path d="M53500 41000
L55000 41000
" />
<path d="M53500 41000
L53500 45500
" />
<path d="M53500 45500
L55000 45500
" />
<path d="M61000 27500
L62500 27500
" />
<path d="M62500 32000
L61000 32000
" />
<path d="M62500 32000
L62500 36500
" />
<path d="M62500 36500
L61000 36500
" />
<path d="M62500 36500
L62500 41000
" />
<path d="M62500 27500
L62500 32000
" />
</g>
<g style="fill:#848400; fill-opacity:0.0; 
stroke:#848400; stroke-width:60; stroke-opacity:1; 
stroke-linecap:round; stroke-linejoin:round;">
<path d="M82720 36700
L82790 36720
L82910 36720
L82960 36700
L82980 36670
L83010 36630
L83010 36580
L82980 36530
L82960 36510
L82910 36480
L82820 36460
L82770 36440
L82740 36410
L82720 36360
L82720 36320
L82740 36270
L82770 36250
L82820 36220
L82930 36220
L83010 36250
" />
<path d="M83220 36720
L83220 36220
L83410 36220
L83460 36250
L83480 36270
L83510 36320
L83510 36390
L83480 36440
L83460 36460
L83410 36480
L83220 36480
" />
<path d="M83720 36720
L83720 36220
L83840 36220
L83910 36250
L83960 36290
L83980 36340
L84010 36440
L84010 36510
L83980 36600
L83960 36650
L83910 36700
L83840 36720
L83720 36720
" />
<path d="M84220 36720
L84220 36220
" />
<path d="M84630 36460
L84460 36460
" />
<path d="M84460 36720
L84460 36220
L84700 36220
" />
</g>
<g style="fill:#848400; fill-opacity:0.0; 
stroke:#848400; stroke-width:100; stroke-opacity:1; 
stroke-linecap:round; stroke-linejoin:round;">
<path style="fill:#848400; fill-opacity:0.0; 
stroke:#848400; stroke-width:100; stroke-opacity:1; 
stroke-linecap:round; stroke-linejoin:round;fill:none"
d="M 82500,36500
82250,36250
82000,36250
82000,36750
82250,36750
82500,36500
Z" /> 
</g>
<g style="fill:#848400; fill-opacity:0.0; 
stroke:#848400; stroke-width:60; stroke-opacity:1; 
stroke-linecap:round; stroke-linejoin:round;">
<path d="M39720 51250
L39670 51220
L39600 51220
L39530 51250
L39480 51290
L39460 51340
L39440 51440
L39440 51510
L39460 51600
L39480 51650
L39530 51700
L39600 51720
L39650 51720
L39720 51700
L39750 51670
L39750 51510
L39650 51510
" />
<path d="M39960 51720
L39960 51220
L40250 51720
L40250 51220
" />
<path d="M40480 51720
L40480 51220
L40600 51220
L40670 51250
L40720 51290
L40750 51340
L40770 51440
L40770 51510
L40750 51600
L40720 51650
L40670 51700
L40600 51720
L40480 51720
" />
</g>
<g style="fill:#848400; fill-opacity:0.0; 
stroke:#848400; stroke-width:100; stroke-opacity:1; 
stroke-linecap:round; stroke-linejoin:round;">
<path style="fill:#848400; fill-opacity:0.0; 
stroke:#848400; stroke-width:100; stroke-opacity:1; 
stroke-linecap:round; stroke-linejoin:round;fill:none"
d="M 41500,51500
41250,51250
41000,51250
41000,51750
41250,51750
41500,51500
Z" /> 
</g>
<g style="fill:#848400; fill-opacity:0.0; 
stroke:#848400; stroke-width:60; stroke-opacity:1; 
stroke-linecap:round; stroke-linejoin:round;">
<path d="M39480 41220
L39650 41720
L39820 41220
" />
<path d="M40270 41670
L40250 41700
L40170 41720
L40130 41720
L40060 41700
L40010 41650
L39980 41600
L39960 41510
L39960 41440
L39980 41340
L40010 41290
L40060 41250
L40130 41220
L40170 41220
L40250 41250
L40270 41270
" />
<path d="M40770 41670
L40750 41700
L40670 41720
L40630 41720
L40560 41700
L40510 41650
L40480 41600
L40460 41510
L40460 41440
L40480 41340
L40510 41290
L40560 41250
L40630 41220
L40670 41220
L40750 41250
L40770 41270
" />
</g>
<g style="fill:#848400; fill-opacity:0.0; 
stroke:#848400; stroke-width:100; stroke-opacity:1; 
stroke-linecap:round; stroke-linejoin:round;">
<path style="fill:#848400; fill-opacity:0.0; 
stroke:#848400; stroke-width:100; stroke-opacity:1; 
stroke-linecap:round; stroke-linejoin:round;fill:none"
d="M 41500,41500
41250,41250
41000,41250
41000,41750
41250,41750
41500,41500
Z" /> 
</g>
<g style="fill:#848400; fill-opacity:0.0; 
stroke:#848400; stroke-width:60; stroke-opacity:1; 
stroke-linecap:round; stroke-linejoin:round;">
<path d="M37270 36700
L37340 36720
L37460 36720
L37510 36700
L37530 36670
L37560 36630
L37560 36580
L37530 36530
L37510 36510
L37460 36480
L37370 36460
L37320 36440
L37290 36410
L37270 36360
L37270 36320
L37290 36270
L37320 36250
L37370 36220
L37480 36220
L37560 36250
" />
<path d="M37770 36720
L37770 36220
L37960 36220
L38010 36250
L38030 36270
L38060 36320
L38060 36390
L38030 36440
L38010 36460
L37960 36480
L37770 36480
" />
<path d="M38270 36720
L38270 36220
L38390 36220
L38460 36250
L38510 36290
L38530 36340
L38560 36440
L38560 36510
L38530 36600
L38510 36650
L38460 36700
L38390 36720
L38270 36720
" />
<path d="M38770 36720
L38770 36220
" />
<path d="M39170 36460
L39010 36460
" />
<path d="M39010 36720
L39010 36220
L39250 36220
" />
<path d="M39320 36770
L39700 36770
" />
<path d="M39750 36220
L40030 36220
" />
<path d="M39890 36720
L39890 36220
" />
<path d="M40130 36220
L40410 36220
" />
<path d="M40270 36720
L40270 36220
" />
<path d="M40820 36720
L40580 36720
L40580 36220
" />
</g>
<g style="fill:#848400; fill-opacity:0.0; 
stroke:#848400; stroke-width:100; stroke-opacity:1; 
stroke-linecap:round; stroke-linejoin:round;">
<path style="fill:#848400; fill-opacity:0.0; 
stroke:#848400; stroke-width:100; stroke-opacity:1; 
stroke-linecap:round; stroke-linejoin:round;fill:none"
d="M 41500,36500
41250,36250
41000,36250
41000,36750
41250,36750
41500,36500
Z" /> 
</g>
<g style="fill:#848400; fill-opacity:0.0; 
stroke:#848400; stroke-width:0; stroke-opacity:1; 
stroke-linecap:round; stroke-linejoin:round;">
</g>
<g style="fill:#008400; fill-opacity:0.0; 
stroke:#008400; stroke-width:0; stroke-opacity:1; 
stroke-linecap:round; stroke-linejoin:round;">
</g>
<g style="fill:#008400; fill-opacity:1.0; 
stroke:#008400; stroke-width:100; stroke-opacity:1; 
stroke-linecap:round; stroke-linejoin:round;">
<circle cx="70500" cy="36500" r="200" /> 
</g>
<g style="fill:#008400; fill-opacity:1.0; 
stroke:#008400; stroke-width:0; stroke-opacity:1; 
stroke-linecap:round; stroke-linejoin:round;">
</g>
<g style="fill:#008400; fill-opacity:1.0; 
stroke:#008400; stroke-width:100; stroke-opacity:1; 
stroke-linecap:round; stroke-linejoin:round;">
<circle cx="62500" cy="36500" r="200" /> 
</g>
<g style="fill:#008400; fill-opacity:1.0; 
stroke:#008400; stroke-width:0; stroke-opacity:1; 
stroke-linecap:round; stroke-linejoin:round;">
</g>
<g style="fill:#008400; fill-opacity:1.0; 
stroke:#008400; stroke-width:100; stroke-opacity:1; 
stroke-linecap:round; stroke-linejoin:round;">
<circle cx="43500" cy="51500" r="200" /> 
</g>
<g style="fill:#008400; fill-opacity:1.0; 
stroke:#008400; stroke-width:0; stroke-opacity:1; 
stroke-linecap:round; stroke-linejoin:round;">
</g>
<g style="fill:#008400; fill-opacity:1.0; 
stroke:#008400; stroke-width:100; stroke-opacity:1; 
stroke-linecap:round; stroke-linejoin:round;">
<circle cx="62500" cy="41000" r="200" /> 
</g>
<g style="fill:#008400; fill-opacity:1.0; 
stroke:#008400; stroke-width:0; stroke-opacity:1; 
stroke-linecap:round; stroke-linejoin:round;">
</g>
<g style="fill:#008400; fill-opacity:1.0; 
stroke:#008400; stroke-width:100; stroke-opacity:1; 
stroke-linecap:round; stroke-linejoin:round;">
<circle cx="43500" cy="41500" r="200" /> 
</g>
<g style="fill:#008400; fill-opacity:1.0; 
stroke:#008400; stroke-width:0; stroke-opacity:1; 
stroke-linecap:round; stroke-linejoin:round;">
</g>
<g style="fill:#008400; fill-opacity:1.0; 
stroke:#008400; stroke-width:100; stroke-opacity:1; 
stroke-linecap:round; stroke-linejoin:round;">
<circle cx="53500" cy="36500" r="200" /> 
</g>
<g style="fill:#008400; fill-opacity:1.0; 
stroke:#008400; stroke-width:0; stroke-opacity:1; 
stroke-linecap:round; stroke-linejoin:round;">
</g>
<g style="fill:#008400; fill-opacity:1.0; 
stroke:#008400; stroke-width:100; stroke-opacity:1; 
stroke-linecap:round; stroke-linejoin:round;">
<circle cx="62500" cy="32000" r="200" /> 
</g>
<g style="fill:#008400; fill-opacity:1.0; 
stroke:#008400; stroke-width:0; stroke-opacity:1; 
stroke-linecap:round; stroke-linejoin:round;">
</g>
<g style="fill:#008400; fill-opacity:1.0; 
stroke:#008400; stroke-width:100; stroke-opacity:1; 
stroke-linecap:round; stroke-linejoin:round;">
<circle cx="53500" cy="32000" r="200" /> 
</g>
<g style="fill:#008400; fill-opacity:1.0; 
stroke:#008400; stroke-width:0; stroke-opacity:1; 
stroke-linecap:round; stroke-linejoin:round;">
</g>
<g style="fill:#008400; fill-opacity:1.0; 
stroke:#008400; stroke-width:100; stroke-opacity:1; 
stroke-linecap:round; stroke-linejoin:round;">
<circle cx="53500" cy="41000" r="200" /> 
</g>
<g style="fill:#008400; fill-opacity:1.0; 
stroke:#008400; stroke-width:0; stroke-opacity:1; 
stroke-linecap:round; stroke-linejoin:round;">
</g>
<g style="fill:#008400; fill-opacity:1.0; 
stroke:#008400; stroke-width:100; stroke-opacity:1; 
stroke-linecap:round; stroke-linejoin:round;">
<circle cx="49500" cy="51500" r="200" /> 
</g> 
</svg>
